<?xml version="1.0" encoding="utf-8"?>
<!-- Generator: Adobe Illustrator 26.0.0, SVG Export Plug-In . SVG Version: 6.00 Build 0)  -->
<svg version="1.1" id="Layer_1" xmlns="http://www.w3.org/2000/svg" xmlns:xlink="http://www.w3.org/1999/xlink" x="0px" y="0px"
	 viewBox="0 0 400 50" style="enable-background:new 0 0 400 50;" xml:space="preserve">
<style type="text/css">
	.st0{fill:#573F2F;}
	.st1{fill:#00A650;}
	.st2{fill:#496E6E;}
	.st3{fill:#FFFFFF;}
	.st4{fill:#007E3A;}
	.st5{fill:#D21034;}
	.st6{fill:#FEC00F;}
	.st7{fill:url(#path66_00000081613077489368763910000017052728059384941707_);}
	.st8{fill:url(#path78_00000013189938796534132930000008020234689212778142_);}
	.st9{fill:url(#path100_00000023972738186621853290000017646948499788312462_);}
	.st10{fill:url(#path112_00000100344553145185323990000017744321591639694990_);}
	.st11{fill:url(#path124_00000135688842776746448240000008832673750122545029_);}
	.st12{fill:url(#path136_00000168096195597612297240000011225796187705480382_);}
	.st13{fill:url(#path148_00000044176097909539729570000006857119158104650164_);}
	.st14{fill:#C7C4E2;}
	.st15{fill:#414042;}
</style>
<g id="g12" transform="matrix(1.25,0,0,-1.25,-99.132688,774.00054)">
	<g id="g2964" transform="matrix(0.97794693,0,0,0.97794693,1.7489442,3.0744652)">
		<path id="path14" class="st0" d="M89.19,614.98c-0.27-0.16-0.41-0.42-0.31-0.58c0.09-0.16,0.39-0.16,0.66,0
			c0.27,0.16,0.41,0.42,0.31,0.58C89.75,615.13,89.46,615.13,89.19,614.98L89.19,614.98L89.19,614.98z"/>
		<path id="path16" class="st0" d="M112.42,614.98c0.27-0.16,0.41-0.42,0.31-0.58c-0.09-0.16-0.39-0.16-0.66,0
			c-0.27,0.16-0.41,0.42-0.31,0.58C111.86,615.13,112.15,615.13,112.42,614.98L112.42,614.98L112.42,614.98z"/>
		<path id="path18" class="st1" d="M98.53,628.19c0,0-0.08-0.03-0.06-0.16c0.02-0.13-0.2-0.03-0.2,0.01c0,0.04-0.07-0.05-0.04-0.07
			s0.1-0.06,0.13-0.11c0.03-0.06-0.01-0.16-0.04-0.13c-0.03,0.03-0.14,0.04-0.12,0.01c0.02-0.03,0.1-0.04,0.16-0.15
			c0.07-0.11-0.01-0.12-0.01-0.12s-0.1,0.03-0.1-0.02c0-0.05,0.02-0.1,0.07-0.13c0.06-0.03,0.18-0.13,0.24-0.13
			c0.07,0,0.04-0.09,0.04-0.09s-0.12,0.06-0.15-0.02c-0.02-0.08,0.06-0.15,0.06-0.15s0.2-0.15,0.28-0.16
			c0.08-0.02,0.13-0.12,0.08-0.13c-0.05-0.01-0.2-0.02-0.24-0.01c-0.05,0.01-0.11-0.09-0.06-0.13s0.2-0.1,0.34-0.13
			s0.11-0.09,0.08-0.11s-0.24-0.04-0.29,0s-0.17-0.05-0.06-0.11c0.11-0.07,0.33-0.03,0.31-0.16c-0.02-0.13-0.12-0.08-0.17-0.09
			c-0.05-0.01-0.11-0.08-0.02-0.13c0.09-0.05,0.26-0.15,0.35-0.15s0.11-0.14,0.07-0.14c-0.05,0-0.24,0.02-0.24,0.03
			c-0.01,0.02-0.17,0-0.01-0.12c0.16-0.11,0.07-0.07,0.22-0.13s0-0.15-0.02-0.14s-0.14-0.08-0.03-0.11
			c0.11-0.03,0.19-0.08,0.15-0.11c-0.03-0.03-0.13-0.12-0.02-0.15c0.11-0.02,0.28-0.05,0.22-0.14c-0.07-0.09,0.02-0.04,0.14-0.08
			c0.11-0.04,0.01-0.13-0.03-0.12s-0.3,0.14-0.33,0.07c-0.02-0.07,0.02-0.1,0.02-0.1s0.19-0.03,0.27-0.1c0.08-0.06,0.1-0.12,0-0.12
			s-0.14,0.1-0.2,0.04s0.07-0.15,0.02-0.26c-0.04-0.11-0.11-0.04-0.11,0.11c0,0.15-0.13,0.28-0.13,0.28s-0.05-0.12-0.05,0.07
			c0,0.2-0.11,0.1-0.11,0.03c0-0.07,0.07-0.18,0.02-0.2c-0.06-0.02-0.21,0.23-0.21,0.32s-0.13,0.11-0.13,0s0.07-0.34,0.15-0.48
			c0.08-0.14,0.23-0.32,0.15-0.36c-0.07-0.04-0.14-0.05-0.14,0.02s-0.28,0.72-0.41,0.89c-0.14,0.16-0.15,0.15-0.15,0.05
			c0-0.11,0.25-0.4,0.2-0.57c-0.06-0.17-0.11,0-0.12,0s-0.13,0.49-0.37,0.81c-0.24,0.32-0.24,0.11-0.18,0.02
			c0.07-0.08,0.32-0.4,0.28-0.6c-0.03-0.2-0.1-0.11-0.11-0.02c-0.02,0.1-0.24,0.72-0.54,0.96c-0.29,0.24-0.24,0.01-0.18-0.03
			c0.07-0.04,0.37-0.36,0.38-0.64c0.01-0.28-0.09-0.1-0.11-0.04c-0.02,0.06-0.14,0.54-0.48,0.82c-0.34,0.28-0.16-0.07-0.16-0.02
			s0.36-0.33,0.36-0.58c0-0.24-0.11-0.15-0.11-0.11c-0.01,0.05-0.15,0.48-0.42,0.66s-0.25,0.23-0.35,0.2
			c-0.1-0.03-0.15-0.01-0.19,0.05c-0.03,0.06-0.31,0.15-0.2-0.05s-0.16,0.04-0.17,0.05c-0.01,0.01-0.34,0.16-0.23,0
			c0.11-0.16,0.54-0.24,0.54-0.45c0-0.2,0.07-0.23-0.07-0.13c-0.15,0.1-0.23,0.41-0.57,0.51c-0.34,0.11,0-0.19-0.01-0.15
			s0.28-0.17,0.13-0.21c-0.15-0.04-0.18,0.11-0.23,0.18s-0.24,0.24-0.29,0.17s0.06-0.11-0.02-0.11c-0.07,0-0.28,0.07-0.27-0.07
			s-0.07-0.06-0.11-0.06c-0.05,0-0.13-0.02-0.12-0.07c0.01-0.05-0.15,0-0.15-0.06s0.08-0.08,0.13-0.09c0.05-0.01,0.09-0.04,0-0.12
			s-0.06-0.23,0.05-0.19s0.2,0.11,0.29,0.11c0.1,0,0.12,0.02,0.07-0.05s-0.11-0.16,0-0.16s0.4,0.25,0.46,0.15
			c0.07-0.1,0.07-0.12-0.02-0.19c-0.08-0.06-0.01-0.14,0.12-0.12c0.13,0.02,0.33,0.15,0.45,0.08c0.11-0.07,0.03-0.08-0.02-0.11
			c-0.06-0.03-0.13-0.12-0.03-0.12s0.18,0.03,0.35,0.02s0.1,0.1,0.19,0.02c0.09-0.08,0.15-0.08,0.03-0.13
			c-0.11-0.05-0.15-0.17-0.02-0.16c0.14,0.01,0.28,0.11,0.46,0.09c0.18-0.02,0.19-0.04,0.11-0.11c-0.07-0.07-0.19-0.07-0.19-0.15
			s0.12-0.08,0.17-0.06c0.05,0.02,0.19,0.08,0.25,0.08c0.07,0,0.13-0.01,0.07-0.07c-0.06-0.07-0.1-0.03-0.14-0.1
			c-0.04-0.07-0.04-0.09,0.08-0.1c0.12-0.01,0.32,0.02,0.35,0s0.2-0.02,0.11-0.05c-0.08-0.03-0.27-0.13-0.16-0.15
			c0.11-0.02,0.22-0.05,0.35-0.03c0.13,0.02,0.25-0.07,0.18-0.09s-0.16-0.1,0.01-0.1c0.17,0,0.28,0,0.28-0.07s-0.11-0.02-0.15-0.13
			c-0.05-0.11,0.33-0.43,0.52-0.72c0.19-0.29,0.17-0.07,0.11-0.19c-0.07-0.11-0.2-0.07-0.24,0.02c-0.04,0.1-0.13,0.27-0.37,0.5
			c-0.24,0.24-0.23,0.26-0.26,0.26s-0.1-0.07,0.01-0.19s0.37-0.3,0.42-0.51c0.05-0.21-0.15-0.11-0.16-0.06s-0.14,0.37-0.45,0.64
			c-0.31,0.28-0.59,0.28-0.47,0.15c0.11-0.13,0.52-0.34,0.57-0.61c0.05-0.27-0.15-0.11-0.16-0.07c-0.01,0.05-0.18,0.38-0.47,0.59
			c-0.29,0.2-0.48,0.18-0.4,0.04s-0.05-0.09-0.07-0.07s-0.24,0.17-0.29,0.14c-0.06-0.03-0.1-0.04-0.05-0.13
			c0.05-0.09-0.08-0.03-0.2,0.01c-0.11,0.04-0.25,0.09-0.25-0.02c0-0.11-0.19,0.03-0.24,0.04c-0.05,0.01-0.42,0.1-0.42,0.02
			s0.15-0.17,0-0.18s-0.33-0.03-0.24-0.12c0.08-0.09,0.3,0.03,0.54-0.28c0.24-0.32-0.09-0.12-0.1-0.12s-0.12,0.17-0.28,0.24
			c-0.15,0.07-0.32,0.15-0.48,0.16c-0.16,0.02-0.3-0.07-0.15-0.14s0.46-0.08,0.62-0.28s-0.2-0.06-0.24,0.01
			c-0.03,0.07-0.44,0.14-0.44,0.14s-0.62,0.01-0.19-0.15c0.43-0.15,0.65-0.31,0.25-0.2s-1.03,0.1-0.74-0.02
			c0.28-0.12-0.11-0.05-0.18-0.06s-0.25-0.07-0.12-0.24s-0.18-0.03-0.02-0.1c0.16-0.07-0.21-0.14,0.06-0.15
			c0.27-0.02-0.4-0.15-0.24-0.17c0.16-0.02-0.28-0.3,0.05-0.23s0.03-0.02,0.15-0.09s0.13,0.16,0.18,0.17s0.19,0.26,0.19,0.07
			s-0.08-0.3,0.16-0.04c0.24,0.26,0.19,0.08,0.17-0.01c-0.02-0.09,0-0.19,0.09-0.13s0.04-0.2,0.14-0.07s0.08,0.3,0.2,0.37
			c0.11,0.07,0.23,0.15,0.15-0.03c-0.07-0.19-0.04-0.37,0.14-0.11s0.25,0.32,0.21,0.16c-0.04-0.15-0.02-0.29,0.11-0.11
			c0.13,0.19,0.24,0.24,0.17,0.07c-0.07-0.16,0.05-0.08,0.12-0.05s0.11,0.04,0.09-0.07c-0.02-0.11,0.2,0.26,0.27,0.33
			s0.28,0.28,0.1-0.1c-0.19-0.38,0.14-0.08,0.14-0.08s0.53,0.51,0.33,0.15s-0.1-0.39,0.06-0.28c0.15,0.11,0.35,0.49,0.24,0.19
			s-0.07-0.37,0.11-0.17c0.19,0.2,0.59,0.68,0.44,0.24c-0.15-0.43,0.16-0.09,0.21-0.03c0.05,0.06,0.3,0.19,0.11-0.07
			c-0.2-0.25,0.16-0.1,0.24-0.04c0.07,0.06,0.33,0.29,0.15-0.02c-0.19-0.31-0.07-0.2,0.14-0.1c0.2,0.11,0.23,0,0.13-0.13
			c-0.1-0.13-0.19,0.03-0.1-0.2c0.09-0.23-0.12-0.11-0.21-0.12c-0.09-0.02,0.08-0.11-0.12-0.15c-0.2-0.04-0.81-0.06-0.46-0.22
			c0.34-0.16-0.09-0.03-0.14-0.08s-0.28-0.08-0.15-0.14s-0.15-0.1-0.2-0.09c-0.06,0.01-0.69-0.11-0.35-0.15
			c0.34-0.04,1.03,0.14,1.08-0.04s-0.33-0.07-0.44-0.07s-1.52-0.09-0.92-0.15s0.67,0.01,0.73-0.05c0.07-0.06-0.31-0.08-0.42-0.08
			s-0.93-0.11-0.59-0.15c0.33-0.03,0.3-0.07,0.08-0.11c-0.22-0.05-0.59-0.18-0.17-0.2s0.96-0.03,0.45-0.12
			c-0.51-0.09-0.53,0.04-0.82-0.06s-0.45-0.16,0.44-0.17s0.12-0.06,0.15-0.1c0.02-0.03-0.66-0.01-0.99-0.14
			c-0.33-0.13-0.17-0.19-0.27-0.27s-0.33-0.27,0.19-0.19c0.51,0.08-0.2-0.18-0.26-0.18c-0.07,0-0.76-0.55,0.12-0.17
			c0.88,0.38,0.33,0.07,0.27-0.04c-0.06-0.11-0.76-0.3-0.76-0.3s-0.07-0.16,0.14-0.11c0.2,0.05,0.36,0.28,0.46,0.18
			c0.11-0.11-0.2-0.16-0.45-0.28c-0.24-0.11-0.6-0.46,0.11-0.16c0.71,0.29,0.11-0.07,0.06-0.11c-0.06-0.03-0.42-0.11-0.55-0.35
			c-0.13-0.24-0.07-0.42,0.1-0.31s0.19,0.09,0.11-0.06s-0.12-0.41-0.07-0.46c0.06-0.06,0.14-0.14,0.17,0.15
			c0.03,0.28,0.13,0.24,0.13,0.11s0.09-0.05,0.11,0.14c0.02,0.19,0.15,0.15,0.15,0.06c0-0.1,0.07-0.18,0.11,0.15
			c0.05,0.33,0.11,0.35,0.12,0.2c0.02-0.15,0.11-0.42,0.15,0.02c0.04,0.45,0.11,0.42,0.13,0.25s0.11-0.28,0.16,0.12
			c0.06,0.4,0.04,0.72,0.12,0.33c0.08-0.38,0.16,0.07,0.16,0.24c0,0.16,0.11,0.36,0.11,0.13s0.12-0.46,0.25-0.03
			c0.13,0.42,0.14,0.57,0.14,0.28s0.14-0.1,0.15,0.01c0.02,0.11,0.17,0.93,0.24,0.37s0.16-0.09,0.15,0.04s0.15,0.72,0.15,0.13
			c0.01-0.59,0.2,0.08,0.19,0.11c-0.01,0.03,0.07,0.65,0.15,0.15s0.16,0.03,0.15,0.09s0.2,0.72,0.15,0.15
			c-0.04-0.58,0.13-0.14,0.13-0.06s0.13,0.58,0.14,0.19s0.14,0.17,0.14,0.15c0-0.02,0.05,0.01,0.08,0.2
			c0.03,0.2,0.11,0.05,0.11-0.04s-0.13-0.33,0.08-0.22c0.21,0.11,0.08-0.02,0.09-0.11c0.01-0.09,0.38,0.23,0.59,0.28
			c0.2,0.05,0.33-0.04,0.05-0.11s-0.74-0.37-0.81-0.48s-0.11-0.28,0.02-0.23c0.13,0.06,0.08-0.05,0.02-0.09
			c-0.06-0.04-0.25-0.4,0.04-0.2s0.07,0.17,0.49,0.32s0.1-0.08-0.03-0.14s-0.61-0.25-0.81-0.49s0.02-0.21,0.04-0.2
			c0.02,0.02,0.23,0.27,0.51,0.38s0.29,0.12,0.25-0.01s-0.26-0.09-0.41-0.2s-0.4-0.26-0.52-0.49c-0.12-0.23-0.13-0.2,0.02-0.2
			c0.15-0.01,0.42,0.5,0.67,0.54c0.24,0.03,0.06-0.15,0.03-0.15s-0.15-0.01-0.31-0.13c-0.15-0.12-0.34-0.22-0.41-0.39
			c-0.07-0.17-0.08-0.05,0.13-0.05s0.14,0.28,0.4,0.32s0.17-0.15,0.1-0.17c-0.07-0.02-0.5-0.15-0.71-0.48
			c-0.2-0.33,0.13-0.15,0.13-0.15s0.15,0.24,0.42,0.36c0.28,0.11,0.09-0.09,0.11-0.1c0.02-0.01-0.48-0.15-0.73-0.53
			c-0.25-0.37,0.1-0.22,0.12-0.15c0.02,0.07,0.21,0.35,0.44,0.41s0.1-0.14,0.04-0.2s-0.46-0.12-0.64-0.49s0.13-0.11,0.13-0.11
			s0.11,0.32,0.41,0.36c0.29,0.04,0.2,0,0.02-0.15c-0.17-0.15-0.46-0.31-0.47-0.49s-0.04-0.29,0.12-0.13s0.37,0.34,0.37,0.34
			s0.23-0.02,0-0.11c-0.23-0.09-0.51-0.37-0.51-0.46s-0.11-0.34,0.15-0.07c0.25,0.27,0.11,0.05,0.06-0.07
			c-0.06-0.11-0.15-0.51,0.09-0.19c0.24,0.33,0.03,0.31,0.16,0.2c0.13-0.11,0.09-0.1,0.05-0.15c-0.04-0.06-0.05-0.02-0.19-0.24
			c-0.14-0.21-0.31-0.34-0.14-0.37c0.17-0.02,0.09-0.23,0.1-0.32s0.09-0.15,0.17-0.07c0.08,0.07,0.07-0.2,0.07-0.28
			s0.11-0.05,0.11-0.01s-0.02,0.33,0.07,0.21c0.09-0.11,0.17-0.08,0.15,0.02c-0.02,0.1-0.21,0.53-0.03,0.37
			c0.18-0.16,0.03,0.2,0.02,0.25c-0.02,0.05-0.02,0.31,0.1,0.03c0.11-0.28,0.11,0.17,0.09,0.23c-0.02,0.06,0.02,0.24,0.08,0.04
			c0.06-0.2,0.03,0.05-0.02,0.32c-0.05,0.27-0.13,0.55,0.02,0.42c0.15-0.13,0.29-0.17,0.19,0.04c-0.11,0.21-0.3,0.75-0.12,0.56
			s0.16-0.19,0.15-0.02c-0.02,0.17-0.02,0.24,0.1,0.12c0.12-0.12,0.14,0.15,0.07,0.22c-0.07,0.07-0.2,0.39-0.08,0.31
			c0.11-0.08,0.07,0.06,0.06,0.13c-0.02,0.07,0.08,0.06,0.13,0.01c0.05-0.05,0.01,0.24-0.04,0.27s-0.16,0.43-0.02,0.3
			c0.14-0.13,0.12-0.07,0.16,0.04s0.08,0.06,0.04-0.07c-0.04-0.14-0.14-0.36,0.02-0.3c0.15,0.06,0.02-0.09,0.01-0.17
			c-0.02-0.08-0.05-0.28,0.1-0.18c0.15,0.11,0.04-0.14,0.02-0.2c-0.02-0.06-0.14-0.54,0.1-0.18s0.17,0.3,0.09,0.09
			c-0.08-0.21-0.19-0.47-0.15-0.55c0.03-0.07,0.17,0.1,0.34,0.52c0.17,0.42,0.4,0.54,0.33,0.39c-0.07-0.15-0.28-0.5-0.37-0.75
			c-0.09-0.24-0.27-0.84-0.07-0.67c0.2,0.17,0.06-0.09,0.04-0.15c-0.02-0.07-0.08-0.33,0.01-0.2c0.09,0.12,0.09-0.1,0.08-0.24
			c-0.01-0.14,0.05-0.17,0.02-0.37c-0.03-0.2,0.11-0.18,0.14-0.11s0.02-0.14,0.04-0.2c0.02-0.06,0.03-0.18,0.12-0.11
			c0.09,0.06,0.09-0.09,0.09-0.16c0-0.07,0.11,0.26,0.09-0.02c-0.02-0.28,0.15-0.46,0.16-0.33s0.14,0.02,0.18-0.16
			c0.04-0.19,0.18-0.24,0.18-0.11s-0.14,0.5,0.01,0.33c0.15-0.16,0.11,0.03,0.09,0.1c-0.02,0.07-0.28,0.31-0.14,0.25
			c0.15-0.06,0.2,0.02,0.15,0.1s-0.27,0.28-0.12,0.28c0.15,0.01,0.16,0.1,0.05,0.24c-0.11,0.15,0.07,0.12,0.15,0.06
			c0.09-0.07,0.06,0.14-0.04,0.24c-0.1,0.11-0.23,0.37-0.06,0.31c0.17-0.07,0.12,0.06,0.1,0.11c-0.02,0.06-0.4,0.43-0.12,0.29
			s0.2-0.08,0.15,0.08c-0.06,0.16-0.39,0.52-0.17,0.47c0.22-0.05,0.17,0.1,0.1,0.19s-0.2,0.28-0.01,0.24
			c0.2-0.04-0.07,0.15-0.07,0.18c0.01,0.03-0.15,0.21,0.01,0.2s0.12,0.04,0.06,0.17c-0.07,0.13-0.12,0.24,0.07,0.13
			s0.1,0.13,0.07,0.21s-0.28,0.29-0.07,0.27c0.2-0.02,0.06,0.11,0.05,0.16c-0.01,0.05,0.24,0,0.15,0.15s-0.4,0.43-0.21,0.4
			c0.19-0.03,0.02,0.2-0.01,0.28c-0.02,0.08-0.13,0.28,0.01,0.22c0.14-0.06,0.2-0.31,0.3-0.33c0.11-0.02,0.24,0.03,0.19-0.04
			c-0.05-0.07,0.05-0.07,0.16,0.06c0.11,0.12,0.2,0.34,0.22,0.23c0.02-0.11-0.06-0.24-0.11-0.31s-0.33-0.38-0.33-0.51
			s-0.01-0.18,0.18,0.06s0.4,0.33,0.28,0.09s-0.34-0.75-0.07-0.42s0.35,0.25,0.12-0.07c-0.23-0.33-0.21-0.5-0.01-0.26
			s0.48,0.6,0.24,0.08c-0.24-0.52-0.46-0.68-0.2-0.53c0.27,0.15,0.25,0.17,0.18,0.02c-0.07-0.15-0.28-0.29-0.28-0.33
			c0-0.04-0.05-0.3,0.2-0.04c0.24,0.26,0.24,0.09,0.15-0.04c-0.08-0.13-0.7-0.85-0.16-0.5c0.54,0.36,0.1-0.02,0.1-0.06
			c0-0.05-0.33-0.59,0.04-0.22c0.37,0.37,0.13-0.09,0.07-0.11c-0.07-0.02-0.55-0.7-0.22-0.51s0.42,0.38,0.35,0.18
			s-0.28-0.33-0.33-0.39c-0.04-0.06-0.28-0.5-0.02-0.32s0.41,0.42,0.33,0.21c-0.08-0.21-0.33-0.46-0.14-0.43s0.02-0.11-0.02-0.2
			c-0.04-0.09-0.07-0.24,0.05-0.2c0.11,0.05,0.08-0.12,0.08-0.2s0.13-0.12,0.16,0.02c0.03,0.14-0.04,0.13,0.12,0.11
			s-0.02,0.11-0.01,0.22c0.02,0.11,0.16,0.04,0.22-0.01s0.16-0.16,0.23-0.06c0.07,0.11-0.15,0.47-0.27,0.61
			c-0.12,0.14-0.11,0.42-0.02,0.31c0.1-0.11,0.25-0.41,0.27-0.48s0.12,0,0.07,0.18s-0.12,0.37-0.23,0.47s-0.2,0.35-0.07,0.26
			c0.13-0.09,0.33-0.59,0.33-0.59s0.2-0.33,0.16,0.05c-0.04,0.38-0.39,0.68-0.43,0.73c-0.04,0.06-0.16,0.25-0.04,0.24
			s0.37-0.54,0.37-0.54s0.15-0.05,0.02,0.28c-0.12,0.33-0.37,0.43-0.41,0.49c-0.03,0.06-0.1,0.39,0.06,0.2
			c0.15-0.19,0.33-0.42,0.37-0.6c0.03-0.18,0.14,0.03,0.08,0.15c-0.06,0.11-0.18,0.48-0.41,0.68s-0.13,0.28-0.02,0.16
			c0.11-0.12,0.53-0.87,0.5-0.5c-0.02,0.37-0.42,0.68-0.49,0.76s-0.09,0.28,0.04,0.13s0.45-0.59,0.36-0.26s-0.49,0.56-0.49,0.56
			s-0.14,0.22,0.02,0.15c0.16-0.07,0.81-0.99,0.61-0.43s-0.25,0.28-0.28,0.41c-0.03,0.12,0.17,0.08,0.17,0.08s-0.11,0.16-0.25,0.25
			s-0.11,0.15-0.01,0.11c0.1-0.04,0.22-0.01,0.07,0.15c-0.15,0.16-0.28,0.46-0.07,0.24c0.21-0.22,0.38-0.22,0.25,0.01
			s-0.32,0.29-0.24,0.42c0.08,0.12-0.11,0.33,0.06,0.24s0.1-0.33,0.21-0.26s0.11,0.51,0.18,0.03s0.2-0.58,0.2-0.31
			s0.17-0.02,0.17-0.31s0.12-0.48,0.15-0.23s0.12,0.35,0.11,0s0.23-0.34,0.22-0.04c-0.01,0.3,0.18-0.05,0.11-0.4
			c-0.07-0.35-0.06-0.88,0.15-0.28c0.2,0.59,0.16,0.24,0.2,0.04c0.03-0.2,0.04-0.48,0.18-0.21c0.14,0.27,0.07-0.26,0.07-0.41
			c-0.01-0.15,0.17-0.19,0.17-0.01s0.18-0.07,0.12-0.31s0-0.28,0.11-0.29c0.11-0.02,0.19-0.41,0.2-0.23
			c0.01,0.18,0.07,0.07,0.16-0.03c0.09-0.11,0.19,0.05,0.2-0.12c0.01-0.17,0.12-0.01,0.1,0.28c-0.02,0.28,0.14-0.02,0.21-0.07
			s0.22-0.04-0.03,0.46s0.07,0.07,0.14,0.11s-0.09,0.24-0.15,0.33c-0.06,0.09-0.07,0.22,0.07,0.24s0.06,0.09-0.16,0.24
			c-0.22,0.15-0.13,0.13,0.02,0.14c0.15,0.01-0.04,0.13-0.18,0.23s-0.33,0.27-0.11,0.31c0.21,0.04,0.14,0.15-0.15,0.23
			c-0.29,0.08-0.52,0.14-0.26,0.21c0.26,0.07,0.31,0.07,0.15,0.11c-0.15,0.05-0.3-0.01-0.28,0.15c0.02,0.16,0.11,0.19-0.07,0.25
			c-0.18,0.07-0.1,0-0.34,0.03s0.15,0.06,0.2,0.19c0.05,0.13-0.11,0.08-0.19,0.09c-0.07,0.01-0.28,0.08-0.12,0.15
			c0.15,0.07-0.16,0.2-0.28,0.2c-0.11,0-0.27,0.07-0.07,0.17c0.2,0.11-0.11,0.15-0.22,0.15s-0.29,0.06-0.11,0.12
			c0.18,0.07-0.14,0.13-0.2,0.12c-0.07-0.01-0.38,0.02-0.11,0.11c0.28,0.08-0.13,0.15-0.24,0.14c-0.11-0.02-0.2,0.18-0.2,0.18
			s-0.14,0.45-0.01,0.31s0.57-0.57,0.44-0.31s-0.21,0.46-0.05,0.31c0.16-0.15,0.36-0.72,0.36-0.38c0,0.33-0.23,0.53,0.02,0.3
			c0.25-0.23,0.25-0.68,0.34-0.38s-0.02,0.39,0.15,0.15s0.11-0.07,0.13,0.05s0.07,0.03,0.11-0.12c0.03-0.15,0.24-0.39,0.2-0.01
			s0.09,0.14,0.15,0c0.06-0.14,0.15-0.41,0.2-0.12c0.06,0.28,0.2-0.07,0.22-0.2c0.02-0.14,0.2-0.31,0.16,0.01
			c-0.04,0.32,0.17-0.03,0.17-0.17c0-0.14,0.21-0.24,0.15,0.09s0.13,0.23,0.2-0.07s0.21-0.46,0.21-0.14c0,0.33,0.14,0.07,0.2-0.13
			c0.07-0.2,0.28-0.68,0.25-0.14c-0.02,0.54,0.02,0.28,0.11,0.07c0.1-0.21,0.23-0.5,0.23-0.15s0.15,0.06,0.17-0.12
			s0.11-0.54,0.15-0.18s0.11,0.07,0.15-0.06c0.05-0.12,0.28-0.15,0.28-0.04c0,0.11-0.03,0.16,0.11,0.13
			c0.15-0.03,0.07,0.25,0.02,0.21s-0.06,0.17,0.11,0.14c0.16-0.03-0.01,0.23-0.07,0.23c-0.07,0,0,0.1-0.18,0.15
			c-0.18,0.05-0.1,0.14-0.08,0.19s0.02,0.09-0.11,0.12c-0.14,0.03-0.05,0.11-0.03,0.17c0.02,0.06-0.02,0.11-0.18,0.06
			c-0.15-0.05-0.46,0.02-0.22,0.11c0.24,0.09,0.2,0.2,0.03,0.2c-0.17,0.01-0.28-0.01-0.16,0.11c0.11,0.11-0.11,0.18-0.29,0.15
			c-0.18-0.03-0.61-0.15-0.39-0.03s0.24,0.27,0.07,0.24c-0.17-0.02-0.68-0.12-0.47-0.03c0.2,0.09,0.31,0.31,0.11,0.28
			c-0.2-0.02-0.59-0.16-0.39-0.01c0.2,0.15,0.22,0.28,0.02,0.27c-0.2-0.01-0.48-0.19-0.41-0.1s-0.05,0.19-0.19,0.15
			c-0.14-0.03-0.29,0.07-0.01,0.14s-0.1,0.08-0.38,0.02s-0.57-0.07-0.25,0.07c0.32,0.15-0.05,0.17-0.23,0.1s-0.49-0.2-0.29-0.03
			s-0.18,0.07-0.28,0.02c-0.11-0.05-0.37-0.02-0.21,0.06c0.16,0.09-0.1,0.15-0.16,0.05c-0.07-0.1-0.24,0.05-0.11,0.11
			c0.13,0.07-0.14,0.01-0.28-0.08s-0.37-0.12-0.31-0.03c0.06,0.09-0.22-0.02-0.34-0.11c-0.12-0.1-0.34,0.17-0.22,0.2
			c0.12,0.03,0.05,0.14-0.08,0.19s0.03,0.13,0.21-0.05s0.08,0.17,0.04,0.2s-0.25,0.21,0.04,0.16c0.29-0.05,0.36-0.09,0.26,0.07
			c-0.1,0.15-0.12,0.2,0.11,0.11c0.24-0.09,0.43-0.02,0.32,0.1c-0.11,0.11-0.04,0.16,0.11,0.09c0.15-0.07,0.2-0.08,0.13,0.06
			s-0.02,0.2,0.15-0.01c0.18-0.21,0.42-0.1,0.26,0.05c-0.16,0.15-0.1,0.2,0.07,0.08c0.16-0.12,0.28-0.06,0.15,0.08
			s-0.07,0.27,0.15,0.08c0.21-0.19,0.32-0.08,0.17,0.04s0.02,0.21,0.19-0.06c0.17-0.27,0.27-0.13,0.21-0.01s-0.01,0.22,0.12-0.01
			c0.13-0.23,0.28-0.04,0.2,0.05c-0.07,0.09,0.07,0.2,0.2-0.04s0.3-0.16,0.2,0.01c-0.11,0.17,0.06,0.21,0.16,0
			c0.11-0.21,0.33-0.23,0.27-0.07c-0.06,0.15,0.11,0.1,0.15,0.03s0.3-0.12,0.19,0.05s0.11,0.1,0.18-0.06
			c0.07-0.15,0.24-0.19,0.2-0.06s0.12-0.04,0.19-0.14c0.07-0.1,0.23-0.08,0.2,0c-0.02,0.08,0.22-0.09,0.15,0.21
			c-0.07,0.3-0.12,0.23-0.08,0.3s-0.07,0.07-0.11,0.09s-0.14,0.09-0.06,0.13s-0.08,0.17-0.22,0.12s-0.54-0.04-0.2,0.1
			c0.34,0.14,0.08,0.17,0.02,0.17c-0.07,0,0.23,0.21-0.24,0.13c-0.46-0.08-0.28,0.01-0.14,0.07s0.06,0.23-0.48-0.06
			c-0.54-0.28-0.77-0.25-0.33-0.02c0.44,0.23,0.73,0.45,0.09,0.23c-0.64-0.22-0.28,0.02-0.19,0.07c0.1,0.05,0.41,0.34-0.22,0.05
			c-0.63-0.29-0.61-0.28-0.34-0.09c0.27,0.19,0.24,0.47-0.27-0.02c-0.51-0.49-0.68-0.62-0.56-0.43c0.11,0.19,0.76,0.81,0.2,0.51
			c-0.57-0.29-0.58-1.03-0.68-0.6c-0.1,0.42,0.24,0.34,0.39,0.49c0.15,0.15-0.09,0.18-0.26,0.01c-0.17-0.17-0.29-0.19-0.29-0.56
			s-0.22-0.13-0.17-0.06s0.02,0.5,0.29,0.73c0.28,0.24-0.31-0.07-0.33-0.11c-0.02-0.05-0.25-0.33-0.24-0.15
			c0.02,0.17-0.06,0.03-0.2-0.02c-0.13-0.06-0.43-0.09-0.34-0.02c0.09,0.07,0.25,0.23,0.43,0.21c0.18-0.02,0.11,0.14-0.07,0.11
			c-0.17-0.02-0.39,0.1-0.14,0.12s0.52,0.15,0.38,0.21s-0.1,0.09,0.08,0.12c0.18,0.03,0.43,0.18,0.2,0.2s-0.29,0.16-0.03,0.16
			s0.54,0.11,0.41,0.18s-0.05,0.08,0.09,0.07s0.11,0.11-0.05,0.15c-0.16,0.05,0.05,0.13,0.27,0.13c0.22,0,0.38,0.11,0.28,0.14
			c-0.11,0.03-0.07,0.12,0.11,0.08c0.17-0.04,0.52,0.06,0.37,0.09c-0.15,0.03-0.1,0.16,0.07,0.16s0.31,0.01,0.24,0.09
			s0.03,0.07,0.2,0.08c0.17,0.02,0.61,0.04,0.45,0.09c-0.16,0.05-0.34,0.17-0.22,0.2c0.12,0.02-0.11,0.14-0.22,0.17
			c-0.11,0.03-0.23,0.1-0.22,0.15c0.01,0.05-0.11,0.05-0.19-0.02s-0.22-0.06-0.21,0.02c0.01,0.07,0,0.06-0.11,0
			c-0.11-0.07-0.23-0.1-0.2-0.02c0.02,0.08-0.14,0-0.2-0.07c-0.07-0.07-0.18-0.22-0.18-0.12s-0.2,0.21-0.2,0.08
			c-0.01-0.13-0.15-0.45-0.15-0.34s-0.05,0.35-0.16,0.2c-0.11-0.15-0.02-0.46-0.13-0.42c-0.11,0.03-0.02,0.18-0.01,0.29
			c0.01,0.11-0.16,0.28-0.24-0.04c-0.07-0.33,0.12-0.71,0.01-0.62s-0.14,0.18-0.13,0.39s-0.14,0.11-0.15-0.06
			c-0.02-0.17,0.04-0.68-0.02-0.42c-0.07,0.26-0.07,0.76-0.2,0.43s0.1-0.96,0-0.81s-0.14,0.23-0.14,0.41s-0.14,0.15-0.18,0
			s0-0.9-0.03-0.76c-0.03,0.13,0,0.29-0.07,0.44s-0.13-0.26-0.13-0.19s0.13-0.49,0.06-0.42s-0.17-0.14-0.24,0.23
			s-0.09-0.02-0.16-0.09c-0.07-0.07-0.15,0.1-0.23-0.27c-0.07-0.37-0.14-0.49-0.22-0.37s-0.18-0.03-0.18-0.17
			c0-0.14-0.15-0.24-0.16-0.15c-0.02,0.1-0.19,0.05-0.2,0.17c-0.01,0.12-0.11,0.06-0.15-0.15s-0.16-0.11-0.09,0.23s0.1,0.59,0,0.49
			c-0.1-0.11-0.11,0.08-0.1,0.2s0.01,0.32-0.03,0.27s-0.13-0.11-0.09,0.15c0.04,0.27-0.05,0.36-0.12,0.07s0.01-0.72-0.09-0.81
			s-0.2-0.11-0.13,0.07s0.2,0.53,0.18,0.93c-0.02,0.4-0.13,0.51-0.15,0.25c-0.02-0.26,0.09-0.69-0.08-0.82s-0.2-0.07-0.15,0.07
			c0.04,0.15,0.19,0.33,0.13,0.7c-0.06,0.37-0.22,0.55-0.23,0.29s0.11-0.62-0.02-0.67s-0.13,0.03-0.07,0.18
			c0.06,0.15,0.1,0.59,0.07,0.81c-0.02,0.21-0.18,0.28-0.2,0.11c-0.02-0.17-0.03,0.19-0.02,0.33c0.02,0.14-0.13,0.44-0.15,0.21
			c-0.02-0.23-0.13-0.18-0.13,0.01s0.01,0.65-0.07,0.41c-0.07-0.24-0.15-0.28-0.17-0.16c-0.02,0.12-0.02,0.43-0.08,0.36
			c-0.07-0.07-0.17-0.06-0.2,0.04c-0.02,0.11-0.04,0.1-0.07-0.02C98.67,628.05,98.55,628.18,98.53,628.19L98.53,628.19L98.53,628.19
			z"/>
		<path id="path20" class="st2" d="M89.02,611.65c0.28-1.01,0.69-1.37,1.14-1.93c-0.23-0.73-2.17-2.28-3.05-3.65
			c-0.37,0.94-0.74,0.96-1.14,1.89C86.98,609.82,88.17,610.29,89.02,611.65L89.02,611.65z"/>
		<path id="path22" class="st2" d="M112.59,611.65c-0.28-1.01-0.69-1.37-1.14-1.93c0.23-0.73,2.17-2.28,3.05-3.65
			c0.37,0.94,0.74,0.96,1.14,1.89C114.63,609.82,113.44,610.29,112.59,611.65L112.59,611.65z"/>
		<path id="path24" class="st3" d="M87.6,609.27c0.21,0.23,0.55,0.43,0.86,0.08c0.21-0.38,0.04-0.76-0.15-1.03
			c0.02,0.2,0.06,0.55-0.07,0.77C88,609.34,87.92,609.27,87.6,609.27L87.6,609.27z"/>
		<path id="path26" class="st3" d="M114.01,609.27c-0.21,0.23-0.55,0.43-0.86,0.08c-0.21-0.38-0.04-0.76,0.15-1.03
			c-0.02,0.2-0.07,0.55,0.07,0.77C113.61,609.34,113.69,609.27,114.01,609.27L114.01,609.27z"/>
		<path id="path28" class="st0" d="M89.7,614.52l11.1-19.7v-1.46L89.35,614.3C89.48,614.36,89.6,614.43,89.7,614.52L89.7,614.52z"/>
		<path id="path30" class="st0" d="M111.91,614.52l-11.1-19.7v-1.46l11.45,20.94C112.13,614.36,112.01,614.43,111.91,614.52
			L111.91,614.52z"/>
		<path id="path32" class="st0" d="M89.19,614.98c-0.27-0.16-0.41-0.42-0.31-0.58c0.09-0.16,0.39-0.16,0.66,0
			c0.27,0.16,0.41,0.42,0.31,0.58C89.75,615.13,89.46,615.13,89.19,614.98L89.19,614.98L89.19,614.98z"/>
		<path id="path34" class="st0" d="M112.42,614.98c0.27-0.16,0.41-0.42,0.31-0.58c-0.09-0.16-0.39-0.16-0.66,0
			c-0.27,0.16-0.41,0.42-0.31,0.58C111.86,615.13,112.15,615.13,112.42,614.98L112.42,614.98L112.42,614.98z"/>
		<path id="path36" class="st0" d="M100.64,613.46c-0.05-6.82-0.24-12.85-0.29-19.67c-0.29-1.08-0.83-1.78-1.81-1.84
			c-0.16,0-0.24-0.07-0.23-0.22c0-0.13,0-0.26,0-0.39c-0.01-0.19,0.05-0.27,0.2-0.24c0.79,0.08,1.51-0.25,2.3-0.28
			c0.79,0.02,1.51,0.36,2.3,0.28c0.15-0.02,0.2,0.06,0.2,0.24c0,0.13,0,0.26,0,0.39c0.02,0.15-0.07,0.22-0.23,0.22
			c-0.98,0.06-1.52,0.76-1.81,1.84c-0.06,6.82-0.22,12.85-0.27,19.67H100.64L100.64,613.46z"/>
		<path id="path38" class="st4" d="M98.53,628.19c0,0-0.08-0.03-0.06-0.16c0.02-0.13-0.2-0.03-0.2,0.01c0,0.04-0.07-0.05-0.04-0.07
			s0.1-0.06,0.13-0.11c0.03-0.06-0.01-0.16-0.04-0.13c-0.03,0.03-0.14,0.04-0.12,0.01c0.02-0.03,0.1-0.04,0.16-0.15
			c0.07-0.11-0.01-0.12-0.01-0.12s-0.1,0.03-0.1-0.02c0-0.05,0.02-0.1,0.07-0.13c0.06-0.03,0.18-0.13,0.24-0.13
			c0.07,0,0.04-0.09,0.04-0.09s-0.12,0.06-0.15-0.02c-0.02-0.08,0.06-0.15,0.06-0.15s0.2-0.15,0.28-0.16
			c0.08-0.02,0.13-0.12,0.08-0.13c-0.05-0.01-0.2-0.02-0.24-0.01c-0.05,0.01-0.11-0.09-0.06-0.13s0.2-0.1,0.34-0.13
			s0.11-0.09,0.08-0.11s-0.24-0.04-0.29,0s-0.17-0.05-0.06-0.11c0.11-0.07,0.33-0.03,0.31-0.16c-0.02-0.13-0.12-0.08-0.17-0.09
			c-0.05-0.01-0.11-0.08-0.02-0.13c0.09-0.05,0.26-0.15,0.35-0.15s0.11-0.14,0.07-0.14c-0.05,0-0.24,0.02-0.24,0.03
			c-0.01,0.02-0.17,0-0.01-0.12c0.16-0.11,0.07-0.07,0.22-0.13s0-0.15-0.02-0.14s-0.14-0.08-0.03-0.11
			c0.11-0.03,0.19-0.08,0.15-0.11c-0.03-0.03-0.13-0.12-0.02-0.15c0.11-0.02,0.28-0.05,0.22-0.14c-0.07-0.09,0.02-0.04,0.14-0.08
			c0.11-0.04,0.01-0.13-0.03-0.12s-0.3,0.14-0.33,0.07c-0.02-0.07,0.02-0.1,0.02-0.1s0.19-0.03,0.27-0.1c0.08-0.06,0.1-0.12,0-0.12
			s-0.14,0.1-0.2,0.04s0.07-0.15,0.02-0.26c-0.04-0.11-0.11-0.04-0.11,0.11c0,0.15-0.13,0.28-0.13,0.28s-0.05-0.12-0.05,0.07
			c0,0.2-0.11,0.1-0.11,0.03c0-0.07,0.07-0.18,0.02-0.2c-0.06-0.02-0.21,0.23-0.21,0.32s-0.13,0.11-0.13,0s0.07-0.34,0.15-0.48
			c0.08-0.14,0.23-0.32,0.15-0.36c-0.07-0.04-0.14-0.05-0.14,0.02s-0.28,0.72-0.41,0.89c-0.14,0.16-0.15,0.15-0.15,0.05
			c0-0.11,0.25-0.4,0.2-0.57c-0.06-0.17-0.11,0-0.12,0s-0.13,0.49-0.37,0.81c-0.24,0.32-0.24,0.11-0.18,0.02
			c0.07-0.08,0.32-0.4,0.28-0.6c-0.03-0.2-0.1-0.11-0.11-0.02c-0.02,0.1-0.24,0.72-0.54,0.96c-0.29,0.24-0.24,0.01-0.18-0.03
			c0.07-0.04,0.37-0.36,0.38-0.64c0.01-0.28-0.09-0.1-0.11-0.04c-0.02,0.06-0.14,0.54-0.48,0.82c-0.34,0.28-0.16-0.07-0.16-0.02
			s0.36-0.33,0.36-0.58c0-0.24-0.11-0.15-0.11-0.11c-0.01,0.05-0.15,0.48-0.42,0.66s-0.25,0.23-0.35,0.2
			c-0.1-0.03-0.15-0.01-0.19,0.05c-0.03,0.06-0.31,0.15-0.2-0.05s-0.16,0.04-0.17,0.05c-0.01,0.01-0.34,0.16-0.23,0
			c0.11-0.16,0.54-0.24,0.54-0.45c0-0.2,0.07-0.23-0.07-0.13c-0.15,0.1-0.23,0.41-0.57,0.51c-0.34,0.11,0-0.19-0.01-0.15
			s0.28-0.17,0.13-0.21c-0.15-0.04-0.18,0.11-0.23,0.18s-0.24,0.24-0.29,0.17s0.06-0.11-0.02-0.11c-0.07,0-0.28,0.07-0.27-0.07
			s-0.07-0.06-0.11-0.06c-0.05,0-0.13-0.02-0.12-0.07c0.01-0.05-0.15,0-0.15-0.06s0.08-0.08,0.13-0.09c0.05-0.01,0.09-0.04,0-0.12
			s-0.06-0.23,0.05-0.19s0.2,0.11,0.29,0.11c0.1,0,0.12,0.02,0.07-0.05s-0.11-0.16,0-0.16s0.4,0.25,0.46,0.15
			c0.07-0.1,0.07-0.12-0.02-0.19c-0.08-0.06-0.01-0.14,0.12-0.12c0.13,0.02,0.33,0.15,0.45,0.08c0.11-0.07,0.03-0.08-0.02-0.11
			c-0.06-0.03-0.13-0.12-0.03-0.12s0.18,0.03,0.35,0.02s0.1,0.1,0.19,0.02c0.09-0.08,0.15-0.08,0.03-0.13
			c-0.11-0.05-0.15-0.17-0.02-0.16c0.14,0.01,0.28,0.11,0.46,0.09c0.18-0.02,0.19-0.04,0.11-0.11c-0.07-0.07-0.19-0.07-0.19-0.15
			s0.12-0.08,0.17-0.06c0.05,0.02,0.19,0.08,0.25,0.08c0.07,0,0.13-0.01,0.07-0.07c-0.06-0.07-0.1-0.03-0.14-0.1
			c-0.04-0.07-0.04-0.09,0.08-0.1c0.12-0.01,0.32,0.02,0.35,0s0.2-0.02,0.11-0.05c-0.08-0.03-0.27-0.13-0.16-0.15
			c0.11-0.02,0.22-0.05,0.35-0.03c0.13,0.02,0.25-0.07,0.18-0.09s-0.16-0.1,0.01-0.1c0.17,0,0.28,0,0.28-0.07s-0.11-0.02-0.15-0.13
			c-0.05-0.11,0.33-0.43,0.52-0.72c0.19-0.29,0.17-0.07,0.11-0.19c-0.07-0.11-0.2-0.07-0.24,0.02c-0.04,0.1-0.13,0.27-0.37,0.5
			c-0.24,0.24-0.23,0.26-0.26,0.26s-0.1-0.07,0.01-0.19s0.37-0.3,0.42-0.51c0.05-0.21-0.15-0.11-0.16-0.06s-0.14,0.37-0.45,0.64
			c-0.31,0.28-0.59,0.28-0.47,0.15c0.11-0.13,0.52-0.34,0.57-0.61c0.05-0.27-0.15-0.11-0.16-0.07c-0.01,0.05-0.18,0.38-0.47,0.59
			c-0.29,0.2-0.48,0.18-0.4,0.04s-0.05-0.09-0.07-0.07s-0.24,0.17-0.29,0.14c-0.06-0.03-0.1-0.04-0.05-0.13
			c0.05-0.09-0.08-0.03-0.2,0.01c-0.11,0.04-0.25,0.09-0.25-0.02c0-0.11-0.19,0.03-0.24,0.04c-0.05,0.01-0.42,0.1-0.42,0.02
			s0.15-0.17,0-0.18s-0.33-0.03-0.24-0.12c0.08-0.09,0.3,0.03,0.54-0.28c0.24-0.32-0.09-0.12-0.1-0.12s-0.12,0.17-0.28,0.24
			c-0.15,0.07-0.32,0.15-0.48,0.16c-0.16,0.02-0.3-0.07-0.15-0.14s0.46-0.08,0.62-0.28s-0.2-0.06-0.24,0.01
			c-0.03,0.07-0.44,0.14-0.44,0.14s-0.62,0.01-0.19-0.15c0.43-0.15,0.65-0.31,0.25-0.2s-1.03,0.1-0.74-0.02
			c0.28-0.12-0.11-0.05-0.18-0.06s-0.25-0.07-0.12-0.24s-0.18-0.03-0.02-0.1c0.16-0.07-0.21-0.14,0.06-0.15
			c0.27-0.02-0.4-0.15-0.24-0.17c0.16-0.02-0.28-0.3,0.05-0.23s0.03-0.02,0.15-0.09s0.13,0.16,0.18,0.17s0.19,0.26,0.19,0.07
			s-0.08-0.3,0.16-0.04c0.24,0.26,0.19,0.08,0.17-0.01c-0.02-0.09,0-0.19,0.09-0.13s0.04-0.2,0.14-0.07s0.08,0.3,0.2,0.37
			c0.11,0.07,0.23,0.15,0.15-0.03c-0.07-0.19-0.04-0.37,0.14-0.11s0.25,0.32,0.21,0.16c-0.04-0.15-0.02-0.29,0.11-0.11
			c0.13,0.19,0.24,0.24,0.17,0.07c-0.07-0.16,0.05-0.08,0.12-0.05s0.11,0.04,0.09-0.07c-0.02-0.11,0.2,0.26,0.27,0.33
			s0.28,0.28,0.1-0.1c-0.19-0.38,0.14-0.08,0.14-0.08s0.53,0.51,0.33,0.15s-0.1-0.39,0.06-0.28c0.15,0.11,0.35,0.49,0.24,0.19
			s-0.07-0.37,0.11-0.17c0.19,0.2,0.59,0.68,0.44,0.24c-0.15-0.43,0.16-0.09,0.21-0.03c0.05,0.06,0.3,0.19,0.11-0.07
			c-0.2-0.25,0.16-0.1,0.24-0.04c0.07,0.06,0.33,0.29,0.15-0.02c-0.19-0.31-0.07-0.2,0.14-0.1c0.2,0.11,0.23,0,0.13-0.13
			c-0.1-0.13-0.19,0.03-0.1-0.2c0.09-0.23-0.12-0.11-0.21-0.12c-0.09-0.02,0.08-0.11-0.12-0.15c-0.2-0.04-0.81-0.06-0.46-0.22
			c0.34-0.16-0.09-0.03-0.14-0.08s-0.28-0.08-0.15-0.14s-0.15-0.1-0.2-0.09c-0.06,0.01-0.69-0.11-0.35-0.15
			c0.34-0.04,1.03,0.14,1.08-0.04s-0.33-0.07-0.44-0.07s-1.52-0.09-0.92-0.15s0.67,0.01,0.73-0.05c0.07-0.06-0.31-0.08-0.42-0.08
			s-0.93-0.11-0.59-0.15c0.33-0.03,0.3-0.07,0.08-0.11c-0.22-0.05-0.59-0.18-0.17-0.2s0.96-0.03,0.45-0.12
			c-0.51-0.09-0.53,0.04-0.82-0.06s-0.45-0.16,0.44-0.17s0.12-0.06,0.15-0.1c0.02-0.03-0.66-0.01-0.99-0.14
			c-0.33-0.13-0.17-0.19-0.27-0.27s-0.33-0.27,0.19-0.19c0.51,0.08-0.2-0.18-0.26-0.18c-0.07,0-0.76-0.55,0.12-0.17
			c0.88,0.38,0.33,0.07,0.27-0.04c-0.06-0.11-0.76-0.3-0.76-0.3s-0.07-0.16,0.14-0.11c0.2,0.05,0.36,0.28,0.46,0.18
			c0.11-0.11-0.2-0.16-0.45-0.28c-0.24-0.11-0.6-0.46,0.11-0.16c0.71,0.29,0.11-0.07,0.06-0.11c-0.06-0.03-0.42-0.11-0.55-0.35
			c-0.13-0.24-0.07-0.42,0.1-0.31s0.19,0.09,0.11-0.06s-0.12-0.41-0.07-0.46c0.06-0.06,0.14-0.14,0.17,0.15
			c0.03,0.28,0.13,0.24,0.13,0.11s0.09-0.05,0.11,0.14c0.02,0.19,0.15,0.15,0.15,0.06c0-0.1,0.07-0.18,0.11,0.15
			c0.05,0.33,0.11,0.35,0.12,0.2c0.02-0.15,0.11-0.42,0.15,0.02c0.04,0.45,0.11,0.42,0.13,0.25s0.11-0.28,0.16,0.12
			c0.06,0.4,0.04,0.72,0.12,0.33c0.08-0.38,0.16,0.07,0.16,0.24c0,0.16,0.11,0.36,0.11,0.13s0.12-0.46,0.25-0.03
			c0.13,0.42,0.14,0.57,0.14,0.28s0.14-0.1,0.15,0.01c0.02,0.11,0.17,0.93,0.24,0.37s0.16-0.09,0.15,0.04s0.15,0.72,0.15,0.13
			c0.01-0.59,0.2,0.08,0.19,0.11c-0.01,0.03,0.07,0.65,0.15,0.15s0.16,0.03,0.15,0.09s0.2,0.72,0.15,0.15
			c-0.04-0.58,0.13-0.14,0.13-0.06s0.13,0.58,0.14,0.19s0.14,0.17,0.14,0.15c0-0.02,0.05,0.01,0.08,0.2
			c0.03,0.2,0.11,0.05,0.11-0.04s-0.13-0.33,0.08-0.22c0.21,0.11,0.08-0.02,0.09-0.11c0.01-0.09,0.38,0.23,0.59,0.28
			c0.2,0.05,0.33-0.04,0.05-0.11s-0.74-0.37-0.81-0.48s-0.11-0.28,0.02-0.23c0.13,0.06,0.08-0.05,0.02-0.09
			c-0.06-0.04-0.25-0.4,0.04-0.2s0.07,0.17,0.49,0.32s0.1-0.08-0.03-0.14s-0.61-0.25-0.81-0.49s0.02-0.21,0.04-0.2
			c0.02,0.02,0.23,0.27,0.51,0.38s0.29,0.12,0.25-0.01s-0.26-0.09-0.41-0.2s-0.4-0.26-0.52-0.49c-0.12-0.23-0.13-0.2,0.02-0.2
			c0.15-0.01,0.42,0.5,0.67,0.54c0.24,0.03,0.06-0.15,0.03-0.15s-0.15-0.01-0.31-0.13c-0.15-0.12-0.34-0.22-0.41-0.39
			c-0.07-0.17-0.08-0.05,0.13-0.05s0.14,0.28,0.4,0.32s0.17-0.15,0.1-0.17c-0.07-0.02-0.5-0.15-0.71-0.48
			c-0.2-0.33,0.13-0.15,0.13-0.15s0.15,0.24,0.42,0.36c0.28,0.11,0.09-0.09,0.11-0.1c0.02-0.01-0.48-0.15-0.73-0.53
			c-0.25-0.37,0.1-0.22,0.12-0.15c0.02,0.07,0.21,0.35,0.44,0.41s0.1-0.14,0.04-0.2s-0.46-0.12-0.64-0.49s0.13-0.11,0.13-0.11
			s0.11,0.32,0.41,0.36c0.29,0.04,0.2,0,0.02-0.15c-0.17-0.15-0.46-0.31-0.47-0.49s-0.04-0.29,0.12-0.13s0.37,0.34,0.37,0.34
			s0.23-0.02,0-0.11c-0.23-0.09-0.51-0.37-0.51-0.46s-0.11-0.34,0.15-0.07c0.25,0.27,0.11,0.05,0.06-0.07
			c-0.06-0.11-0.15-0.51,0.09-0.19c0.24,0.33,0.03,0.31,0.16,0.2c0.13-0.11,0.09-0.1,0.05-0.15c-0.04-0.06-0.05-0.02-0.19-0.24
			c-0.14-0.21-0.31-0.34-0.14-0.37c0.17-0.02,0.09-0.23,0.1-0.32s0.09-0.15,0.17-0.07c0.08,0.07,0.07-0.2,0.07-0.28
			s0.11-0.05,0.11-0.01s-0.02,0.33,0.07,0.21c0.09-0.11,0.17-0.08,0.15,0.02c-0.02,0.1-0.21,0.53-0.03,0.37
			c0.18-0.16,0.03,0.2,0.02,0.25c-0.02,0.05-0.02,0.31,0.1,0.03c0.11-0.28,0.11,0.17,0.09,0.23c-0.02,0.06,0.02,0.24,0.08,0.04
			c0.06-0.2,0.03,0.05-0.02,0.32c-0.05,0.27-0.13,0.55,0.02,0.42c0.15-0.13,0.29-0.17,0.19,0.04c-0.11,0.21-0.3,0.75-0.12,0.56
			s0.16-0.19,0.15-0.02c-0.02,0.17-0.02,0.24,0.1,0.12c0.12-0.12,0.14,0.15,0.07,0.22c-0.07,0.07-0.2,0.39-0.08,0.31
			c0.11-0.08,0.07,0.06,0.06,0.13c-0.02,0.07,0.08,0.06,0.13,0.01c0.05-0.05,0.01,0.24-0.04,0.27s-0.16,0.43-0.02,0.3
			c0.14-0.13,0.12-0.07,0.16,0.04s0.08,0.06,0.04-0.07c-0.04-0.14-0.14-0.36,0.02-0.3c0.15,0.06,0.02-0.09,0.01-0.17
			c-0.02-0.08-0.05-0.28,0.1-0.18c0.15,0.11,0.04-0.14,0.02-0.2c-0.02-0.06-0.14-0.54,0.1-0.18s0.17,0.3,0.09,0.09
			c-0.08-0.21-0.19-0.47-0.15-0.55c0.03-0.07,0.17,0.1,0.34,0.52c0.17,0.42,0.4,0.54,0.33,0.39c-0.07-0.15-0.28-0.5-0.37-0.75
			c-0.09-0.24-0.27-0.84-0.07-0.67c0.2,0.17,0.06-0.09,0.04-0.15c-0.02-0.07-0.08-0.33,0.01-0.2c0.09,0.12,0.09-0.1,0.08-0.24
			c-0.01-0.14,0.05-0.17,0.02-0.37c-0.03-0.2,0.11-0.18,0.14-0.11s0.02-0.14,0.04-0.2c0.02-0.06,0.03-0.18,0.12-0.11
			c0.09,0.06,0.09-0.09,0.09-0.16c0-0.07,0.11,0.26,0.09-0.02c-0.02-0.28,0.15-0.46,0.16-0.33s0.14,0.02,0.18-0.16
			c0.04-0.19,0.18-0.24,0.18-0.11s-0.14,0.5,0.01,0.33c0.15-0.16,0.11,0.03,0.09,0.1c-0.02,0.07-0.28,0.31-0.14,0.25
			c0.15-0.06,0.2,0.02,0.15,0.1s-0.27,0.28-0.12,0.28c0.15,0.01,0.16,0.1,0.05,0.24c-0.11,0.15,0.07,0.12,0.15,0.06
			c0.09-0.07,0.06,0.14-0.04,0.24c-0.1,0.11-0.23,0.37-0.06,0.31c0.17-0.07,0.12,0.06,0.1,0.11c-0.02,0.06-0.4,0.43-0.12,0.29
			s0.2-0.08,0.15,0.08c-0.06,0.16-0.39,0.52-0.17,0.47c0.22-0.05,0.17,0.1,0.1,0.19s-0.2,0.28-0.01,0.24
			c0.2-0.04-0.07,0.15-0.07,0.18c0.01,0.03-0.15,0.21,0.01,0.2s0.12,0.04,0.06,0.17c-0.07,0.13-0.12,0.24,0.07,0.13
			s0.1,0.13,0.07,0.21s-0.28,0.29-0.07,0.27c0.2-0.02,0.06,0.11,0.05,0.16c-0.01,0.05,0.24,0,0.15,0.15s-0.4,0.43-0.21,0.4
			c0.19-0.03,0.02,0.2-0.01,0.28c-0.02,0.08-0.13,0.28,0.01,0.22c0.14-0.06,0.2-0.31,0.3-0.33c0.11-0.02,0.24,0.03,0.19-0.04
			c-0.05-0.07,0.05-0.07,0.16,0.06c0.11,0.12,0.2,0.34,0.22,0.23c0.02-0.11-0.06-0.24-0.11-0.31s-0.33-0.38-0.33-0.51
			s-0.01-0.18,0.18,0.06s0.4,0.33,0.28,0.09s-0.34-0.75-0.07-0.42s0.35,0.25,0.12-0.07c-0.23-0.33-0.21-0.5-0.01-0.26
			s0.48,0.6,0.24,0.08c-0.24-0.52-0.46-0.68-0.2-0.53c0.27,0.15,0.25,0.17,0.18,0.02c-0.07-0.15-0.28-0.29-0.28-0.33
			c0-0.04-0.05-0.3,0.2-0.04c0.24,0.26,0.24,0.09,0.15-0.04c-0.08-0.13-0.7-0.85-0.16-0.5c0.54,0.36,0.1-0.02,0.1-0.06
			c0-0.05-0.33-0.59,0.04-0.22c0.37,0.37,0.13-0.09,0.07-0.11c-0.07-0.02-0.55-0.7-0.22-0.51s0.42,0.38,0.35,0.18
			s-0.28-0.33-0.33-0.39c-0.04-0.06-0.28-0.5-0.02-0.32s0.41,0.42,0.33,0.21c-0.08-0.21-0.33-0.46-0.14-0.43s0.02-0.11-0.02-0.2
			c-0.04-0.09-0.07-0.24,0.05-0.2c0.11,0.05,0.08-0.12,0.08-0.2s0.13-0.12,0.16,0.02c0.03,0.14-0.04,0.13,0.12,0.11
			s-0.02,0.11-0.01,0.22c0.02,0.11,0.16,0.04,0.22-0.01s0.16-0.16,0.23-0.06c0.07,0.11-0.15,0.47-0.27,0.61
			c-0.12,0.14-0.11,0.42-0.02,0.31c0.1-0.11,0.25-0.41,0.27-0.48s0.12,0,0.07,0.18s-0.12,0.37-0.23,0.47s-0.2,0.35-0.07,0.26
			c0.13-0.09,0.33-0.59,0.33-0.59s0.2-0.33,0.16,0.05c-0.04,0.38-0.39,0.68-0.43,0.73c-0.04,0.06-0.16,0.25-0.04,0.24
			s0.37-0.54,0.37-0.54s0.15-0.05,0.02,0.28c-0.12,0.33-0.37,0.43-0.41,0.49c-0.03,0.06-0.1,0.39,0.06,0.2
			c0.15-0.19,0.33-0.42,0.37-0.6c0.03-0.18,0.14,0.03,0.08,0.15c-0.06,0.11-0.18,0.48-0.41,0.68s-0.13,0.28-0.02,0.16
			c0.11-0.12,0.53-0.87,0.5-0.5c-0.02,0.37-0.42,0.68-0.49,0.76s-0.09,0.28,0.04,0.13s0.45-0.59,0.36-0.26s-0.49,0.56-0.49,0.56
			s-0.14,0.22,0.02,0.15c0.16-0.07,0.81-0.99,0.61-0.43s-0.25,0.28-0.28,0.41c-0.03,0.12,0.17,0.08,0.17,0.08s-0.11,0.16-0.25,0.25
			s-0.11,0.15-0.01,0.11c0.1-0.04,0.22-0.01,0.07,0.15c-0.15,0.16-0.28,0.46-0.07,0.24c0.21-0.22,0.38-0.22,0.25,0.01
			s-0.32,0.29-0.24,0.42c0.08,0.12-0.11,0.33,0.06,0.24s0.1-0.33,0.21-0.26s0.11,0.51,0.18,0.03s0.2-0.58,0.2-0.31
			s0.17-0.02,0.17-0.31s0.12-0.48,0.15-0.23s0.12,0.35,0.11,0s0.23-0.34,0.22-0.04c-0.01,0.3,0.18-0.05,0.11-0.4
			c-0.07-0.35-0.06-0.88,0.15-0.28c0.2,0.59,0.16,0.24,0.2,0.04c0.03-0.2,0.04-0.48,0.18-0.21c0.14,0.27,0.07-0.26,0.07-0.41
			c-0.01-0.15,0.17-0.19,0.17-0.01s0.18-0.07,0.12-0.31s0-0.28,0.11-0.29c0.11-0.02,0.19-0.41,0.2-0.23
			c0.01,0.18,0.07,0.07,0.16-0.03c0.09-0.11,0.19,0.05,0.2-0.12c0.01-0.17,0.12-0.01,0.1,0.28c-0.02,0.28,0.14-0.02,0.21-0.07
			s0.22-0.04-0.03,0.46s0.07,0.07,0.14,0.11s-0.09,0.24-0.15,0.33c-0.06,0.09-0.07,0.22,0.07,0.24s0.06,0.09-0.16,0.24
			c-0.22,0.15-0.13,0.13,0.02,0.14c0.15,0.01-0.04,0.13-0.18,0.23s-0.33,0.27-0.11,0.31c0.21,0.04,0.14,0.15-0.15,0.23
			c-0.29,0.08-0.52,0.14-0.26,0.21c0.26,0.07,0.31,0.07,0.15,0.11c-0.15,0.05-0.3-0.01-0.28,0.15c0.02,0.16,0.11,0.19-0.07,0.25
			c-0.18,0.07-0.1,0-0.34,0.03s0.15,0.06,0.2,0.19c0.05,0.13-0.11,0.08-0.19,0.09c-0.07,0.01-0.28,0.08-0.12,0.15
			c0.15,0.07-0.16,0.2-0.28,0.2c-0.11,0-0.27,0.07-0.07,0.17c0.2,0.11-0.11,0.15-0.22,0.15s-0.29,0.06-0.11,0.12
			c0.18,0.07-0.14,0.13-0.2,0.12c-0.07-0.01-0.38,0.02-0.11,0.11c0.28,0.08-0.13,0.15-0.24,0.14c-0.11-0.02-0.2,0.18-0.2,0.18
			s-0.14,0.45-0.01,0.31s0.57-0.57,0.44-0.31s-0.21,0.46-0.05,0.31c0.16-0.15,0.36-0.72,0.36-0.38c0,0.33-0.23,0.53,0.02,0.3
			c0.25-0.23,0.25-0.68,0.34-0.38s-0.02,0.39,0.15,0.15s0.11-0.07,0.13,0.05s0.07,0.03,0.11-0.12c0.03-0.15,0.24-0.39,0.2-0.01
			s0.09,0.14,0.15,0c0.06-0.14,0.15-0.41,0.2-0.12c0.06,0.28,0.2-0.07,0.22-0.2c0.02-0.14,0.2-0.31,0.16,0.01
			c-0.04,0.32,0.17-0.03,0.17-0.17c0-0.14,0.21-0.24,0.15,0.09s0.13,0.23,0.2-0.07s0.21-0.46,0.21-0.14c0,0.33,0.14,0.07,0.2-0.13
			c0.07-0.2,0.28-0.68,0.25-0.14c-0.02,0.54,0.02,0.28,0.11,0.07c0.1-0.21,0.23-0.5,0.23-0.15s0.15,0.06,0.17-0.12
			s0.11-0.54,0.15-0.18s0.11,0.07,0.15-0.06c0.05-0.12,0.28-0.15,0.28-0.04c0,0.11-0.03,0.16,0.11,0.13
			c0.15-0.03,0.07,0.25,0.02,0.21s-0.06,0.17,0.11,0.14c0.16-0.03-0.01,0.23-0.07,0.23c-0.07,0,0,0.1-0.18,0.15
			c-0.18,0.05-0.1,0.14-0.08,0.19s0.02,0.09-0.11,0.12c-0.14,0.03-0.05,0.11-0.03,0.17c0.02,0.06-0.02,0.11-0.18,0.06
			c-0.15-0.05-0.46,0.02-0.22,0.11c0.24,0.09,0.2,0.2,0.03,0.2c-0.17,0.01-0.28-0.01-0.16,0.11c0.11,0.11-0.11,0.18-0.29,0.15
			c-0.18-0.03-0.61-0.15-0.39-0.03s0.24,0.27,0.07,0.24c-0.17-0.02-0.68-0.12-0.47-0.03c0.2,0.09,0.31,0.31,0.11,0.28
			c-0.2-0.02-0.59-0.16-0.39-0.01c0.2,0.15,0.22,0.28,0.02,0.27c-0.2-0.01-0.48-0.19-0.41-0.1s-0.05,0.19-0.19,0.15
			c-0.14-0.03-0.29,0.07-0.01,0.14s-0.1,0.08-0.38,0.02s-0.57-0.07-0.25,0.07c0.32,0.15-0.05,0.17-0.23,0.1s-0.49-0.2-0.29-0.03
			s-0.18,0.07-0.28,0.02c-0.11-0.05-0.37-0.02-0.21,0.06c0.16,0.09-0.1,0.15-0.16,0.05c-0.07-0.1-0.24,0.05-0.11,0.11
			c0.13,0.07-0.14,0.01-0.28-0.08s-0.37-0.12-0.31-0.03c0.06,0.09-0.22-0.02-0.34-0.11c-0.12-0.1-0.34,0.17-0.22,0.2
			c0.12,0.03,0.05,0.14-0.08,0.19s0.03,0.13,0.21-0.05s0.08,0.17,0.04,0.2s-0.25,0.21,0.04,0.16c0.29-0.05,0.36-0.09,0.26,0.07
			c-0.1,0.15-0.12,0.2,0.11,0.11c0.24-0.09,0.43-0.02,0.32,0.1c-0.11,0.11-0.04,0.16,0.11,0.09c0.15-0.07,0.2-0.08,0.13,0.06
			s-0.02,0.2,0.15-0.01c0.18-0.21,0.42-0.1,0.26,0.05c-0.16,0.15-0.1,0.2,0.07,0.08c0.16-0.12,0.28-0.06,0.15,0.08
			s-0.07,0.27,0.15,0.08c0.21-0.19,0.32-0.08,0.17,0.04s0.02,0.21,0.19-0.06c0.17-0.27,0.27-0.13,0.21-0.01s-0.01,0.22,0.12-0.01
			c0.13-0.23,0.28-0.04,0.2,0.05c-0.07,0.09,0.07,0.2,0.2-0.04s0.3-0.16,0.2,0.01c-0.11,0.17,0.06,0.21,0.16,0
			c0.11-0.21,0.33-0.23,0.27-0.07c-0.06,0.15,0.11,0.1,0.15,0.03s0.3-0.12,0.19,0.05s0.11,0.1,0.18-0.06
			c0.07-0.15,0.24-0.19,0.2-0.06s0.12-0.04,0.19-0.14c0.07-0.1,0.23-0.08,0.2,0c-0.02,0.08,0.22-0.09,0.15,0.21
			c-0.07,0.3-0.12,0.23-0.08,0.3s-0.07,0.07-0.11,0.09s-0.14,0.09-0.06,0.13s-0.08,0.17-0.22,0.12s-0.54-0.04-0.2,0.1
			c0.34,0.14,0.08,0.17,0.02,0.17c-0.07,0,0.23,0.21-0.24,0.13c-0.46-0.08-0.28,0.01-0.14,0.07s0.06,0.23-0.48-0.06
			c-0.54-0.28-0.77-0.25-0.33-0.02c0.44,0.23,0.73,0.45,0.09,0.23c-0.64-0.22-0.28,0.02-0.19,0.07c0.1,0.05,0.41,0.34-0.22,0.05
			c-0.63-0.29-0.61-0.28-0.34-0.09c0.27,0.19,0.24,0.47-0.27-0.02c-0.51-0.49-0.68-0.62-0.56-0.43c0.11,0.19,0.76,0.81,0.2,0.51
			c-0.57-0.29-0.58-1.03-0.68-0.6c-0.1,0.42,0.24,0.34,0.39,0.49c0.15,0.15-0.09,0.18-0.26,0.01c-0.17-0.17-0.29-0.19-0.29-0.56
			s-0.22-0.13-0.17-0.06s0.02,0.5,0.29,0.73c0.28,0.24-0.31-0.07-0.33-0.11c-0.02-0.05-0.25-0.33-0.24-0.15
			c0.02,0.17-0.06,0.03-0.2-0.02c-0.13-0.06-0.43-0.09-0.34-0.02c0.09,0.07,0.25,0.23,0.43,0.21c0.18-0.02,0.11,0.14-0.07,0.11
			c-0.17-0.02-0.39,0.1-0.14,0.12s0.52,0.15,0.38,0.21s-0.1,0.09,0.08,0.12c0.18,0.03,0.43,0.18,0.2,0.2s-0.29,0.16-0.03,0.16
			s0.54,0.11,0.41,0.18s-0.05,0.08,0.09,0.07s0.11,0.11-0.05,0.15c-0.16,0.05,0.05,0.13,0.27,0.13c0.22,0,0.38,0.11,0.28,0.14
			c-0.11,0.03-0.07,0.12,0.11,0.08c0.17-0.04,0.52,0.06,0.37,0.09c-0.15,0.03-0.1,0.16,0.07,0.16s0.31,0.01,0.24,0.09
			s0.03,0.07,0.2,0.08c0.17,0.02,0.61,0.04,0.45,0.09c-0.16,0.05-0.34,0.17-0.22,0.2c0.12,0.02-0.11,0.14-0.22,0.17
			c-0.11,0.03-0.23,0.1-0.22,0.15c0.01,0.05-0.11,0.05-0.19-0.02s-0.22-0.06-0.21,0.02c0.01,0.07,0,0.06-0.11,0
			c-0.11-0.07-0.23-0.1-0.2-0.02c0.02,0.08-0.14,0-0.2-0.07c-0.07-0.07-0.18-0.22-0.18-0.12s-0.2,0.21-0.2,0.08
			c-0.01-0.13-0.15-0.45-0.15-0.34s-0.05,0.35-0.16,0.2c-0.11-0.15-0.02-0.46-0.13-0.42c-0.11,0.03-0.02,0.18-0.01,0.29
			c0.01,0.11-0.16,0.28-0.24-0.04c-0.07-0.33,0.12-0.71,0.01-0.62s-0.14,0.18-0.13,0.39s-0.14,0.11-0.15-0.06
			c-0.02-0.17,0.04-0.68-0.02-0.42c-0.07,0.26-0.07,0.76-0.2,0.43s0.1-0.96,0-0.81s-0.14,0.23-0.14,0.41s-0.14,0.15-0.18,0
			s0-0.9-0.03-0.76c-0.03,0.13,0,0.29-0.07,0.44s-0.13-0.26-0.13-0.19s0.13-0.49,0.06-0.42s-0.17-0.14-0.24,0.23
			s-0.09-0.02-0.16-0.09c-0.07-0.07-0.15,0.1-0.23-0.27c-0.07-0.37-0.14-0.49-0.22-0.37s-0.18-0.03-0.18-0.17
			c0-0.14-0.15-0.24-0.16-0.15c-0.02,0.1-0.19,0.05-0.2,0.17c-0.01,0.12-0.11,0.06-0.15-0.15s-0.16-0.11-0.09,0.23s0.1,0.59,0,0.49
			c-0.1-0.11-0.11,0.08-0.1,0.2s0.01,0.32-0.03,0.27s-0.13-0.11-0.09,0.15c0.04,0.27-0.05,0.36-0.12,0.07s0.01-0.72-0.09-0.81
			s-0.2-0.11-0.13,0.07s0.2,0.53,0.18,0.93c-0.02,0.4-0.13,0.51-0.15,0.25c-0.02-0.26,0.09-0.69-0.08-0.82s-0.2-0.07-0.15,0.07
			c0.04,0.15,0.19,0.33,0.13,0.7c-0.06,0.37-0.22,0.55-0.23,0.29s0.11-0.62-0.02-0.67s-0.13,0.03-0.07,0.18
			c0.06,0.15,0.1,0.59,0.07,0.81c-0.02,0.21-0.18,0.28-0.2,0.11c-0.02-0.17-0.03,0.19-0.02,0.33c0.02,0.14-0.13,0.44-0.15,0.21
			c-0.02-0.23-0.13-0.18-0.13,0.01s0.01,0.65-0.07,0.41c-0.07-0.24-0.15-0.28-0.17-0.16c-0.02,0.12-0.02,0.43-0.08,0.36
			c-0.07-0.07-0.17-0.06-0.2,0.04c-0.02,0.11-0.04,0.1-0.07-0.02C98.67,628.05,98.55,628.18,98.53,628.19L98.53,628.19L98.53,628.19
			z"/>
		<path id="path40" class="st5" d="M89.42,614.21c0.55-1.94,1.6-3.47,2.47-4.55c-0.45-1.4-3.24-3.75-4.93-6.4
			c-0.72,1.81-1.94,2.94-2.72,4.72C86.27,611.36,87.78,611.73,89.42,614.21L89.42,614.21z"/>
		<path id="path42" class="st5" d="M112.19,614.21c-0.55-1.94-1.6-3.47-2.47-4.55c0.45-1.4,3.24-3.75,4.93-6.4
			c0.72,1.81,1.94,2.94,2.72,4.72C115.34,611.36,113.83,611.73,112.19,614.21L112.19,614.21z"/>
		<path id="path44" class="st4" d="M89.02,611.65c0.28-1.01,0.69-1.37,1.14-1.93c-0.23-0.73-2.17-2.28-3.05-3.65
			c-0.37,0.94-0.74,0.96-1.14,1.89C86.98,609.82,88.17,610.29,89.02,611.65L89.02,611.65z"/>
		<path id="path46" class="st4" d="M112.59,611.65c-0.28-1.01-0.69-1.37-1.14-1.93c0.23-0.73,2.17-2.28,3.05-3.65
			c0.37,0.94,0.74,0.96,1.14,1.89C114.63,609.82,113.44,610.29,112.59,611.65L112.59,611.65z"/>
		<path id="path48" class="st3" d="M87.6,609.27c0.21,0.23,0.55,0.43,0.86,0.08c0.21-0.38,0.04-0.76-0.15-1.03
			c0.02,0.2,0.06,0.55-0.07,0.77C88,609.34,87.92,609.27,87.6,609.27L87.6,609.27z"/>
		<path id="path50" class="st3" d="M114.01,609.27c-0.21,0.23-0.55,0.43-0.86,0.08c-0.21-0.38-0.04-0.76,0.15-1.03
			c-0.02,0.2-0.07,0.55,0.07,0.77C113.61,609.34,113.69,609.27,114.01,609.27L114.01,609.27z"/>
		<path id="path52" class="st6" d="M103.03,611.89c-2.38,1.3-5.88,0.11-7.14-2.09s-1.51-5.35,0.71-7.5s5-2.16,7.18-0.97
			c2.17,1.2,3.04,3.39,2.88,5.04c-0.22-1.82-1.15-3.39-2.95-4.14c-1.8-0.76-4.59-0.65-6.12,1.31s-1.79,4.11-0.48,6.14
			C98.42,611.7,100.67,612.75,103.03,611.89L103.03,611.89z"/>
		<path id="path54" class="st6" d="M103.03,611.89c-2.62,0.91-4.88-0.48-5.99-2.33c-1.11-1.85-0.97-4.54,0.75-6.29
			s4.39-1.67,5.98-1.04c1.59,0.63,2.71,2.3,2.88,4.14c-0.76-1.5-1.46-2.79-2.97-3.22s-3.75-0.22-4.97,1.33s-1.34,3.23-0.61,4.96
			C98.85,611.16,101.06,612.3,103.03,611.89L103.03,611.89z"/>
		
			<linearGradient id="path66_00000116939660250965098610000005789612453884136577_" gradientUnits="userSpaceOnUse" x1="168.0236" y1="1506.6499" x2="170.0306" y2="1510.589" gradientTransform="matrix(3.3949 0 0 -3.3949 -472.6641 5727.4692)">
			<stop  offset="0" style="stop-color:#CD8C5D"/>
			<stop  offset="0.76" style="stop-color:#FEC00F"/>
			<stop  offset="0.76" style="stop-color:#FEC00F"/>
			<stop  offset="1" style="stop-color:#FEC00F"/>
		</linearGradient>
		<path id="path66" style="fill:url(#path66_00000116939660250965098610000005789612453884136577_);" d="M98.71,604.44
			c-1.2,1.61-1.33,3.27-0.6,5c0.74,1.73,2.94,2.86,4.91,2.45c-2.41,0.98-4.85-0.42-5.96-2.22c-1.05-1.72-1.32-4.07,0.7-6.42
			C97.91,603.08,98.53,604.58,98.71,604.44L98.71,604.44z"/>
		
			<linearGradient id="path78_00000018931477966201412500000017730504010142598579_" gradientUnits="userSpaceOnUse" x1="170.2407" y1="1510.2526" x2="167.3742" y2="1507.0691" gradientTransform="matrix(3.3949 0 0 -3.3949 -472.6641 5727.4692)">
			<stop  offset="0" style="stop-color:#CD8C5D"/>
			<stop  offset="0.75" style="stop-color:#FEC00F"/>
			<stop  offset="0.75" style="stop-color:#FEC00F"/>
			<stop  offset="1" style="stop-color:#FEC00F"/>
		</linearGradient>
		<path id="path78" style="fill:url(#path78_00000018931477966201412500000017730504010142598579_);" d="M96.59,602.3
			c2.22-2.12,5.02-2.16,7.19-0.98c2.16,1.19,3.04,3.39,2.88,5.04c-0.22-1.82-1.17-3.42-2.92-4.12c-1.76-0.7-4.62-0.61-6.14,1.29
			C97.5,603.65,96.72,602.38,96.59,602.3L96.59,602.3z"/>
		<path id="path80" class="st6" d="M100.5,603.23l1.54,4.09l0.47-1.66L100.5,603.23z"/>
		<path id="path82" class="st6" d="M105.58,604.53l-3.54,2.8l1.73-0.04L105.58,604.53z"/>
		<path id="path84" class="st6" d="M105.77,609.83l-3.73-2.5l0.59,1.64L105.77,609.83z"/>
		<path id="path86" class="st6" d="M100.8,611.77l1.24-4.44l-1.38,1.08L100.8,611.77z"/>
		<path id="path88" class="st6" d="M97.66,607.53l4.39-0.2l-1.45-0.96L97.66,607.53z"/>
		
			<linearGradient id="path100_00000065049425467895656350000016120029386218611621_" gradientUnits="userSpaceOnUse" x1="169.4726" y1="1509.1365" x2="168.1949" y2="1508.0258" gradientTransform="matrix(3.3949 0 0 -3.3949 -472.6641 5727.4692)">
			<stop  offset="0" style="stop-color:#CD8C5D"/>
			<stop  offset="0.86" style="stop-color:#FEC00F"/>
			<stop  offset="0.86" style="stop-color:#FEC00F"/>
			<stop  offset="1" style="stop-color:#FEC00F"/>
		</linearGradient>
		<path id="path100" style="fill:url(#path100_00000065049425467895656350000016120029386218611621_);" d="M100.5,603.23l1.54,4.09
			l-1.45-0.96L100.5,603.23z"/>
		
			<linearGradient id="path112_00000156570454203429934760000004709047149789972644_" gradientUnits="userSpaceOnUse" x1="170.3685" y1="1508.2264" x2="168.6938" y2="1509.2729" gradientTransform="matrix(3.3949 0 0 -3.3949 -472.6641 5727.4692)">
			<stop  offset="0" style="stop-color:#CD8C5D"/>
			<stop  offset="0.83" style="stop-color:#FEC00F"/>
			<stop  offset="0.83" style="stop-color:#FEC00F"/>
			<stop  offset="1" style="stop-color:#FEC00F"/>
		</linearGradient>
		<path id="path112" style="fill:url(#path112_00000156570454203429934760000004709047149789972644_);" d="M105.58,604.53l-3.54,2.8
			l0.47-1.66L105.58,604.53z"/>
		
			<linearGradient id="path124_00000093158870210832019340000012971407480414067331_" gradientUnits="userSpaceOnUse" x1="169.7098" y1="1507.3146" x2="170.0642" y2="1508.7361" gradientTransform="matrix(3.3949 0 0 -3.3949 -472.6641 5727.4692)">
			<stop  offset="0" style="stop-color:#CD8C5D"/>
			<stop  offset="0.9" style="stop-color:#FEC00F"/>
			<stop  offset="0.9" style="stop-color:#FEC00F"/>
			<stop  offset="1" style="stop-color:#FEC00F"/>
		</linearGradient>
		<path id="path124" style="fill:url(#path124_00000093158870210832019340000012971407480414067331_);" d="M105.77,609.83l-3.73-2.5
			l1.73-0.04L105.77,609.83z"/>
		
			<linearGradient id="path136_00000173137419425095572640000004451604127651016101_" gradientUnits="userSpaceOnUse" x1="168.9422" y1="1507.5028" x2="169.6577" y2="1507.5529" gradientTransform="matrix(3.3949 0 0 -3.3949 -472.6641 5727.4692)">
			<stop  offset="0" style="stop-color:#CD8C5D"/>
			<stop  offset="0.94" style="stop-color:#FEC00F"/>
			<stop  offset="0.94" style="stop-color:#FEC00F"/>
			<stop  offset="1" style="stop-color:#FEC00F"/>
		</linearGradient>
		<path id="path136" style="fill:url(#path136_00000173137419425095572640000004451604127651016101_);" d="M100.8,611.77l1.24-4.44
			l0.59,1.64L100.8,611.77z"/>
		
			<linearGradient id="path148_00000131344019797376238500000002590884920234601918_" gradientUnits="userSpaceOnUse" x1="168.5801" y1="1508.274" x2="168.9067" y2="1507.5044" gradientTransform="matrix(3.3949 0 0 -3.3949 -472.6641 5727.4692)">
			<stop  offset="0" style="stop-color:#CD8C5D"/>
			<stop  offset="0.86" style="stop-color:#FEC00F"/>
			<stop  offset="0.86" style="stop-color:#FEC00F"/>
			<stop  offset="1" style="stop-color:#FEC00F"/>
		</linearGradient>
		<path id="path148" style="fill:url(#path148_00000131344019797376238500000002590884920234601918_);" d="M97.66,607.53l4.39-0.2
			l-1.38,1.08L97.66,607.53z"/>
		<path id="path150" class="st14" d="M107.66,597.22l-0.73-1.86l-1.2-0.32c1.24-0.32,2.52-0.81,3.66-1.32
			c-0.28,0.61-0.55,1.28-0.82,1.89c0.58,0.18,1.16,0.36,1.74,0.54C109.54,596.54,108.61,596.94,107.66,597.22L107.66,597.22z"/>
		<path id="path154" class="st14" d="M100.72,596.41c2.08-0.03,4.15-0.17,6.09-0.8l1.02,2.6c-1.86,0.57-3.99,1.07-7.1,1.05
			c-3.12,0.01-5.25-0.49-7.1-1.05l1.02-2.6C96.58,596.23,98.65,596.38,100.72,596.41L100.72,596.41z"/>
		<path id="path158" d="M106.79,597.68c0,0-0.24,0.49-0.24,0.02c0-0.46-0.01-0.72-0.12-0.94c-0.11-0.23-0.09-0.44,0.11-0.21
			s0.22,0.6,0.22,0.6s-0.03,0.13,0.07,0.08C106.92,597.18,106.79,597.61,106.79,597.68L106.79,597.68 M105.92,596.79
			c0,0-0.18-0.12-0.06-0.28c0.12-0.15,0.18-0.07,0.19,0.03s0,0.14-0.06,0.16C105.94,596.73,105.9,596.75,105.92,596.79
			L105.92,596.79 M106.1,598.03c0,0-0.17,0.25-0.2-0.11c-0.03-0.37,0.04-0.63-0.11-0.75s-0.98-0.05-1.02,0.05
			c-0.03,0.1-0.29-0.01-0.33,0.52c-0.03,0.53-0.16,0.54-0.18,0.59c-0.02,0.05-0.24,0.05-0.15-0.15s0.19-0.42,0.12-0.68
			c-0.07-0.27-0.72-0.46-0.71-0.27c0.02,0.2,0.33,0.2,0.31,0.52c-0.02,0.33-0.19,0.52-0.24,0.55c-0.05,0.03-0.31,0.11-0.31-0.11
			c0-0.21,0.04-0.49,0.2-0.47c0.15,0.02,0.27,0.04,0.16-0.03c-0.11-0.07-0.2-0.25-0.37-0.31c-0.18-0.06-0.44-0.17-0.61-0.18
			s0.02-0.12,0.02-0.12c0.01,0,0.47-0.04,0.55,0.02c0.07,0.06,0.11,0.16,0.14,0.07c0.02-0.09-0.06-0.15,0.01-0.17
			c0.07-0.02,0.34-0.09,0.47-0.04c0.13,0.05,0.28,0.27,0.4,0.27s0.32-0.23,0.42-0.25c0.11-0.02,0.65-0.21,0.95-0.13
			c0.3,0.08,0.41,0.42,0.42,0.5c0.02,0.08-0.02,0.24,0.05,0.23c0.07-0.02,0.14,0.05,0.11,0.15
			C106.19,597.82,106.1,598.03,106.1,598.03L106.1,598.03 M104.97,598.24c0,0-0.18-0.38,0-0.37s0.03,0.02,0.09-0.15
			c0.06-0.16,0.07-0.23,0.06-0.31c-0.02-0.08,0.08-0.09,0.11,0.01c0.03,0.1,0.14,0.34,0.15,0.41c0.01,0.07,0.11,0.16,0.11,0.11
			c0.01-0.06,0.18-0.02,0.13,0.11s-0.19,0.16-0.28,0.02c-0.1-0.14-0.11-0.33-0.13-0.2C105.18,598,105.13,598.37,104.97,598.24
			L104.97,598.24 M96.61,597.87c0,0-0.07-0.1,0-0.1s0.02,0.01,0.04-0.03c0.02-0.05,0.02-0.07,0.02-0.09c-0.01-0.02,0.03-0.02,0.04,0
			c0.02,0.02,0.06,0.1,0.06,0.11c0,0.02,0.04,0.05,0.05,0.03c0-0.02,0.07-0.01,0.05,0.02c-0.02,0.04-0.07,0.05-0.11,0.01
			s-0.05-0.09-0.06-0.06C96.7,597.82,96.68,597.91,96.61,597.87L96.61,597.87 M104.61,598.31c0,0,0.16-0.08,0.14-0.23
			c-0.02-0.15-0.14-0.11-0.13-0.07s-0.02,0.11,0.04,0.11C104.72,598.13,104.61,598.31,104.61,598.31L104.61,598.31 M104.21,597.1
			c0,0,0.16-0.08,0.14-0.23c-0.02-0.15-0.14-0.11-0.13-0.07s-0.02,0.11,0.04,0.11C104.32,596.93,104.21,597.1,104.21,597.1
			L104.21,597.1 M103.75,598.61c0,0,0.16-0.08,0.14-0.23c-0.02-0.15-0.14-0.11-0.13-0.07s-0.02,0.11,0.04,0.11
			C103.86,598.44,103.75,598.61,103.75,598.61L103.75,598.61 M102.63,598.16c0,0,0.16-0.08,0.14-0.23
			c-0.02-0.15-0.14-0.11-0.13-0.07s-0.02,0.11,0.04,0.11C102.73,597.99,102.63,598.16,102.63,598.16L102.63,598.16 M101.86,598.7
			c0,0,0.16-0.08,0.14-0.23c-0.02-0.15-0.14-0.11-0.13-0.07s-0.02,0.11,0.04,0.11C101.97,598.52,101.86,598.7,101.86,598.7
			L101.86,598.7 M95.77,597.07c0,0-0.13-0.18-0.03-0.39c0.11-0.2,0.2-0.09,0.18-0.03s-0.04,0.15-0.11,0.15
			C95.74,596.78,95.77,597.07,95.77,597.07L95.77,597.07 M99.93,597.15c0,0,0.09-0.04,0.07-0.12c-0.01-0.08-0.07-0.06-0.07-0.04
			s-0.01,0.06,0.02,0.07C99.99,597.06,99.93,597.15,99.93,597.15L99.93,597.15 M98.97,598.53c0,0,0.16-0.08,0.14-0.23
			c-0.02-0.15-0.14-0.11-0.13-0.07s-0.02,0.11,0.04,0.11C99.07,598.36,98.97,598.53,98.97,598.53L98.97,598.53 M102.95,598.7
			c0,0-0.15-0.09-0.07-0.33c0.07-0.24,0.14-0.46,0.07-0.59s-0.53-0.37-0.76-0.24c-0.24,0.14-0.18,0.46-0.42,0.2
			c-0.24-0.25-0.33-0.64-0.46-0.54c-0.12,0.11-0.14,0.02-0.14,0.2s0.1,0.03,0.15,0.08c0.06,0.05,0.13,0.17,0.02,0.17
			s-0.25,0.06-0.34,0.11s-0.41,0.07-0.14,0.15c0.27,0.07,0.26-0.06,0.33-0.07s0.08,0.02,0.05,0.11c-0.03,0.09-0.17,0.11-0.16,0.27
			c0.01,0.16-0.03,0.15-0.03,0.2s-0.02-0.02,0.07,0.06s-0.04,0.11-0.08,0.17s-0.15,0.22-0.16,0.15c-0.01-0.07-0.08-0.15-0.03-0.31
			c0.05-0.15,0.08-0.27,0.04-0.35c-0.04-0.08-0.41-0.2-0.49-0.28c-0.07-0.08-0.15-0.23-0.06-0.24c0.09-0.02,0.07,0,0.19-0.02
			s-0.11-0.09-0.24-0.09s-0.49-0.05-0.54,0.11s-0.14,0-0.19,0.37s-0.08,0.33-0.13,0.64c-0.05,0.31-0.22-0.03-0.23-0.02
			c-0.01,0.02,0.11-0.63,0.13-0.73c0.02-0.11,0.11-0.66,0-0.52s-0.28,0.53-0.31,0.6c-0.03,0.07-0.15,0.27-0.18,0.28
			c-0.02,0.01-0.21,0.05-0.12-0.13s0.33-0.5,0.16-0.63c-0.17-0.12-0.33-0.18-0.4-0.17s-0.17,0.07-0.13,0.19
			c0.04,0.11,0.11,0.35,0,0.25s-0.19-0.42-0.15-0.5s0.17-0.28,0.42-0.19c0.24,0.1,0.37,0.31,0.43,0.27
			c0.07-0.04,0.02-0.15,0.15-0.19c0.12-0.03,0.38-0.03,0.5,0.11c0.12,0.15,0.21,0.02,0.23,0c0.02-0.02,0.35-0.03,0.66,0.13
			c0.31,0.16,0.41,0.06,0.45,0.06s0.08-0.09,0.07-0.28s0.16-0.28,0.23-0.24c0.07,0.03,0.15,0.28,0.45,0.55
			c0.3,0.27,0.14,0.09,0.16,0.02c0.02-0.07,0.3-0.24,0.41-0.23c0.11,0.02,0.62,0.13,0.62,0.2s0.22,0.16,0.15,0.57
			c-0.07,0.41-0.13,0.34-0.11,0.38C103.03,598.46,103.22,598.41,102.95,598.7L102.95,598.7 M101.42,598.71c0,0-0.23-0.06-0.14-0.23
			c0.09-0.17,0.12-0.66,0.12-0.62s0.03-0.42,0.17-0.07s0,0.25-0.02,0.41c-0.02,0.15,0.08,0.09,0.03,0.25
			S101.42,598.71,101.42,598.71L101.42,598.71 M101.97,598.2l-0.08,0.07l-0.08-0.12l0.11-0.1l0.1,0.09l0.17-0.07l0.09,0.13
			l-0.15,0.12L101.97,598.2L101.97,598.2 M100.32,598.65l-0.63-0.33l-0.05-0.13l0.76,0.35L100.32,598.65L100.32,598.65
			 M100.51,598.31l-0.63-0.33l-0.05-0.13l0.76,0.35L100.51,598.31L100.51,598.31 M98.06,598.5l0.25-0.09c0,0-0.04-0.27-0.15-0.28
			c-0.11-0.02-0.28-0.09-0.2,0.07c0.09,0.15,0.02,0.15-0.01,0.1c-0.02-0.06-0.1,0.03-0.04,0.09
			C97.97,598.44,98.06,598.5,98.06,598.5L98.06,598.5 M94.83,598.02l0.25-0.09c0,0-0.04-0.27-0.15-0.28
			c-0.11-0.02-0.28-0.09-0.2,0.07c0.09,0.15,0.02,0.15-0.01,0.1c-0.02-0.06-0.1,0.03-0.04,0.09
			C94.74,597.96,94.83,598.02,94.83,598.02L94.83,598.02 M100.76,597.2c0,0-0.24-0.02-0.13-0.11c0.11-0.09,0.01-0.09,0.02-0.15
			c0.02-0.06,0.18-0.2,0.23-0.1c0.05,0.11,0.05,0.15-0.01,0.15c-0.06,0-0.08,0.04-0.06,0.09
			C100.85,597.13,100.76,597.2,100.76,597.2L100.76,597.2 M98.84,597.04c0,0-0.23-0.06-0.25-0.13s0-0.13,0.13-0.06
			S98.97,597.04,98.84,597.04L98.84,597.04 M97.9,597.14l-0.07,0.08l-0.11-0.15l0.16-0.13l0.11,0.11l0.1-0.08l0.07,0.11l-0.07,0.11
			l-0.13-0.09L97.9,597.14L97.9,597.14 M95.39,597.97l-0.09,0.06l-0.07-0.16l0.19-0.1l0.08,0.13l0.11-0.06l0.04,0.12l-0.09,0.1
			l-0.11-0.11L95.39,597.97L95.39,597.97 M97.92,597.86c0,0,0.06-0.13,0.02-0.21c-0.03-0.08-0.2-0.11-0.21-0.01
			c-0.02,0.1-0.23,0.35-0.24,0.48c-0.02,0.13-0.1,0.02-0.1-0.07s0.03-0.25,0.08-0.32c0.05-0.06,0.07-0.2,0.01-0.24
			c-0.07-0.04-0.12-0.07-0.17-0.02c-0.05,0.06-0.24,0.28-0.29,0.16c-0.05-0.12-0.25-0.33-0.41-0.34c-0.16-0.02-0.27-0.12-0.49,0.04
			s-0.63,0.41-0.71,0.11c-0.07-0.29-0.11-0.8-0.35-0.57s-0.41,0.33-0.3,0.1c0.11-0.23,0.33-0.48,0.42-0.42
			c0.1,0.06,0.27,0.18,0.32,0.41c0.05,0.24,0.07,0.51,0.33,0.27c0.25-0.24,0.26-0.29,0.67-0.24c0.41,0.05,0.46,0.15,0.52,0.23
			c0.06,0.07,0.04,0.08,0.22,0.01s0.37,0,0.4,0.11c0.02,0.11,0.14,0.1,0.14,0.05s0.24-0.1,0.3,0.03
			C98.13,597.55,98.11,597.76,97.92,597.86L97.92,597.86 M96.67,598.36l-0.72-0.45l0.02-0.13l0.81,0.45l0.01,0.16L96.67,598.36
			L96.67,598.36 M97.45,597.04l-0.07-0.11l0.15-0.09l0.05,0.16L97.45,597.04L97.45,597.04z"/>
		<path id="path156" d="M107.66,597.22l-0.73-1.86l-1.2-0.32c1.24-0.32,2.52-0.81,3.66-1.32c-0.28,0.61-0.55,1.28-0.82,1.89
			c0.58,0.18,1.16,0.36,1.74,0.54C109.54,596.54,108.61,596.94,107.66,597.22L107.66,597.22 M100.72,596.22
			c-1.57-0.03-3.25-0.09-4.87-0.48l0.29-0.8c-1.53-0.36-3.03-0.95-4.45-1.6c0.29,0.68,0.6,1.46,0.9,2.13
			c-0.54,0.19-1.23,0.4-1.95,0.59c0.64,0.38,1.67,0.9,3.06,1.31l-0.35,0.94c2.43,0.81,4.87,1.13,7.36,1.13
			c2.48,0,4.92-0.33,7.36-1.13l-0.35-0.94c1.39-0.42,2.42-0.93,3.06-1.31c-0.72-0.19-1.4-0.4-1.95-0.59c0.3-0.68,0.61-1.45,0.9-2.13
			c-1.42,0.65-2.92,1.24-4.45,1.6l0.29,0.8C103.98,596.13,102.29,596.19,100.72,596.22L100.72,596.22 M93.79,597.22l0.73-1.86
			l1.2-0.32c-1.24-0.32-2.52-0.81-3.66-1.32c0.28,0.61,0.55,1.28,0.82,1.89c-0.58,0.18-1.16,0.36-1.74,0.54
			C91.91,596.54,92.83,596.94,93.79,597.22L93.79,597.22 M100.72,596.41c2.08-0.03,4.15-0.17,6.09-0.8l1.02,2.6
			c-1.86,0.57-3.99,1.07-7.1,1.05c-3.12,0.01-5.25-0.49-7.1-1.05l1.02-2.6C96.58,596.23,98.65,596.38,100.72,596.41L100.72,596.41z"
			/>
		<path id="path152" class="st14" d="M93.79,597.22l0.73-1.86l1.2-0.32c-1.24-0.32-2.52-0.81-3.66-1.32
			c0.28,0.61,0.55,1.28,0.82,1.89c-0.58,0.18-1.16,0.36-1.74,0.54C91.91,596.54,92.83,596.94,93.79,597.22L93.79,597.22z"/>
	</g>
</g>
<g>
	<g>
		<g>
			<path d="M57.09,22.25v-14h1.6l5.82,9.58h-1.04l5.82-9.58h1.6v14h-2.3v-9.96l0.52,0.14l-4.32,7.1h-1.6l-4.32-7.1l0.52-0.14v9.96
				H57.09z"/>
			<path d="M77.65,22.45c-0.87,0-1.65-0.22-2.35-0.66s-1.25-1.04-1.66-1.79s-0.61-1.6-0.61-2.53c0-0.95,0.2-1.8,0.61-2.55
				s0.96-1.35,1.66-1.8c0.7-0.45,1.48-0.67,2.35-0.67c0.73,0,1.38,0.16,1.95,0.47s1.02,0.74,1.35,1.29s0.5,1.17,0.5,1.86v2.76
				c0,0.69-0.16,1.31-0.49,1.86c-0.33,0.55-0.78,0.98-1.35,1.29C79.04,22.29,78.38,22.45,77.65,22.45z M78.01,20.37
				c0.81,0,1.47-0.27,1.97-0.82s0.75-1.25,0.75-2.1c0-0.57-0.11-1.08-0.34-1.52c-0.23-0.44-0.54-0.78-0.95-1.03
				c-0.41-0.25-0.88-0.37-1.43-0.37c-0.53,0-1,0.12-1.41,0.37s-0.73,0.59-0.96,1.03c-0.23,0.44-0.35,0.95-0.35,1.52
				s0.12,1.08,0.35,1.52c0.23,0.44,0.55,0.78,0.96,1.03S77.48,20.37,78.01,20.37z M80.59,22.25v-2.58l0.38-2.34l-0.38-2.32v-2.36
				h2.2v9.6H80.59z"/>
			<path d="M85.23,22.25V7.85h2.2v14.4H85.23z"/>
			<path d="M93.89,22.45c-0.87,0-1.65-0.22-2.35-0.66s-1.25-1.04-1.66-1.79s-0.61-1.6-0.61-2.53c0-0.95,0.2-1.8,0.61-2.55
				s0.96-1.35,1.66-1.8c0.7-0.45,1.48-0.67,2.35-0.67c0.73,0,1.38,0.16,1.95,0.47s1.02,0.74,1.35,1.29s0.5,1.17,0.5,1.86v2.76
				c0,0.69-0.16,1.31-0.49,1.86c-0.33,0.55-0.78,0.98-1.35,1.29C95.28,22.29,94.62,22.45,93.89,22.45z M94.25,20.37
				c0.55,0,1.02-0.12,1.43-0.37s0.72-0.59,0.95-1.03c0.23-0.44,0.34-0.95,0.34-1.52s-0.11-1.08-0.34-1.52
				c-0.23-0.44-0.54-0.78-0.95-1.03c-0.41-0.25-0.88-0.37-1.43-0.37c-0.53,0-1,0.12-1.41,0.37s-0.73,0.59-0.96,1.03
				c-0.23,0.44-0.35,0.95-0.35,1.52s0.12,1.08,0.35,1.52c0.23,0.44,0.55,0.78,0.96,1.03C93.25,20.25,93.72,20.37,94.25,20.37z
				 M99.03,22.25h-2.2v-2.58l0.38-2.34l-0.38-2.32V7.85h2.2V22.25z"/>
			<path d="M102.59,10.89c-0.37,0-0.68-0.13-0.93-0.38s-0.37-0.57-0.37-0.94s0.12-0.69,0.37-0.94s0.56-0.38,0.93-0.38
				c0.39,0,0.7,0.13,0.94,0.38c0.24,0.25,0.36,0.57,0.36,0.94s-0.12,0.69-0.36,0.94C103.29,10.76,102.98,10.89,102.59,10.89z
				 M101.49,22.25v-9.6h2.2v9.6H101.49z"/>
			<path d="M109.39,22.25l-4.38-9.6h2.44l3.34,7.82h-1.44l3.36-7.82h2.34l-4.38,9.6H109.39z"/>
			<path d="M120.81,22.45c-0.96,0-1.82-0.22-2.59-0.65s-1.37-1.03-1.82-1.79c-0.45-0.76-0.67-1.61-0.67-2.56s0.22-1.8,0.66-2.55
				s1.04-1.35,1.79-1.79s1.59-0.66,2.51-0.66c0.89,0,1.68,0.21,2.37,0.62s1.23,0.98,1.62,1.7c0.39,0.72,0.59,1.54,0.59,2.46
				c0,0.16-0.01,0.32-0.03,0.49s-0.05,0.35-0.09,0.55h-7.88v-1.8h6.74l-0.82,0.72c-0.03-0.59-0.14-1.08-0.34-1.48
				S122.37,15,122,14.79c-0.37-0.21-0.82-0.32-1.35-0.32c-0.56,0-1.05,0.12-1.46,0.36c-0.41,0.24-0.73,0.58-0.96,1.01
				c-0.23,0.43-0.34,0.95-0.34,1.55s0.12,1.13,0.36,1.58s0.58,0.8,1.02,1.05c0.44,0.25,0.95,0.37,1.52,0.37
				c0.49,0,0.95-0.09,1.37-0.26c0.42-0.17,0.78-0.43,1.07-0.76l1.4,1.42c-0.47,0.55-1.03,0.96-1.7,1.24
				C122.26,22.31,121.56,22.45,120.81,22.45z"/>
			<path d="M130.17,22.45c-0.53,0-1.05-0.07-1.54-0.21c-0.49-0.14-0.95-0.34-1.36-0.6s-0.77-0.58-1.08-0.95l1.4-1.4
				c0.33,0.39,0.72,0.68,1.15,0.87c0.43,0.19,0.92,0.29,1.47,0.29c0.49,0,0.87-0.07,1.12-0.22s0.38-0.36,0.38-0.64
				c0-0.29-0.12-0.52-0.36-0.68s-0.55-0.3-0.93-0.41c-0.38-0.11-0.78-0.23-1.2-0.35s-0.82-0.28-1.2-0.49
				c-0.38-0.21-0.69-0.49-0.93-0.85s-0.36-0.83-0.36-1.4c0-0.61,0.14-1.14,0.43-1.58s0.69-0.78,1.22-1.02
				c0.53-0.24,1.16-0.36,1.89-0.36c0.77,0,1.46,0.14,2.05,0.41c0.59,0.27,1.09,0.68,1.49,1.23l-1.4,1.4
				c-0.28-0.35-0.6-0.61-0.96-0.78s-0.77-0.26-1.24-0.26c-0.44,0-0.78,0.07-1.02,0.2c-0.24,0.13-0.36,0.33-0.36,0.58
				c0,0.27,0.12,0.47,0.36,0.62c0.24,0.15,0.55,0.27,0.93,0.38s0.78,0.22,1.2,0.35c0.42,0.13,0.82,0.3,1.2,0.52
				c0.38,0.22,0.69,0.51,0.93,0.88c0.24,0.37,0.36,0.84,0.36,1.43c0,0.93-0.33,1.67-0.98,2.22
				C132.18,22.18,131.29,22.45,130.17,22.45z"/>
			<path d="M139.93,22.25v-14h2.3v14H139.93z M141.51,22.25v-2h4.02c0.71,0,1.25-0.22,1.64-0.66s0.58-0.95,0.58-1.52
				c0-0.39-0.09-0.75-0.26-1.08s-0.43-0.6-0.76-0.8c-0.33-0.2-0.73-0.3-1.2-0.3h-4.02v-2h3.68c0.6,0,1.08-0.15,1.44-0.46
				s0.54-0.76,0.54-1.36c0-0.6-0.18-1.05-0.54-1.36c-0.36-0.31-0.84-0.46-1.44-0.46h-3.68v-2h3.74c0.95,0,1.73,0.17,2.36,0.52
				c0.63,0.35,1.09,0.79,1.4,1.34s0.46,1.13,0.46,1.76c0,0.73-0.2,1.38-0.61,1.94s-1,1.01-1.79,1.36l0.18-0.72
				c0.88,0.36,1.57,0.87,2.06,1.52c0.49,0.65,0.74,1.42,0.74,2.3c0,0.72-0.18,1.38-0.53,1.98s-0.87,1.08-1.56,1.45
				s-1.53,0.55-2.53,0.55H141.51z"/>
			<path d="M156.01,22.45c-0.81,0-1.54-0.18-2.17-0.54s-1.13-0.86-1.48-1.49c-0.35-0.63-0.53-1.36-0.53-2.19v-5.58h2.2v5.48
				c0,0.47,0.08,0.86,0.23,1.19s0.38,0.58,0.68,0.75c0.3,0.17,0.66,0.26,1.07,0.26c0.64,0,1.13-0.19,1.47-0.57s0.51-0.92,0.51-1.63
				v-5.48h2.2v5.58c0,0.84-0.18,1.58-0.53,2.21c-0.35,0.63-0.84,1.13-1.47,1.48S156.84,22.45,156.01,22.45z"/>
			<path d="M162.41,22.25v-9.6h2.2v9.6H162.41z M164.61,16.91l-0.76-0.38c0-1.21,0.27-2.2,0.81-2.95s1.36-1.13,2.45-1.13
				c0.48,0,0.91,0.09,1.3,0.26s0.75,0.45,1.08,0.84l-1.44,1.48c-0.17-0.19-0.37-0.32-0.58-0.4s-0.46-0.12-0.74-0.12
				c-0.61,0-1.12,0.19-1.52,0.58C164.81,15.48,164.61,16.08,164.61,16.91z"/>
			<path d="M175.37,22.45c-0.96,0-1.82-0.22-2.59-0.65c-0.77-0.43-1.37-1.03-1.82-1.79c-0.45-0.76-0.67-1.61-0.67-2.56
				s0.22-1.8,0.66-2.55s1.04-1.35,1.79-1.79s1.59-0.66,2.51-0.66c0.89,0,1.68,0.21,2.37,0.62s1.23,0.98,1.62,1.7
				s0.59,1.54,0.59,2.46c0,0.16-0.01,0.32-0.03,0.49s-0.05,0.35-0.09,0.55h-7.88v-1.8h6.74l-0.82,0.72
				c-0.03-0.59-0.14-1.08-0.34-1.48s-0.48-0.71-0.85-0.92c-0.37-0.21-0.82-0.32-1.35-0.32c-0.56,0-1.05,0.12-1.46,0.36
				s-0.73,0.58-0.96,1.01c-0.23,0.43-0.34,0.95-0.34,1.55s0.12,1.13,0.36,1.58s0.58,0.8,1.02,1.05s0.95,0.37,1.52,0.37
				c0.49,0,0.95-0.09,1.37-0.26s0.78-0.43,1.07-0.76l1.4,1.42c-0.47,0.55-1.03,0.96-1.7,1.24
				C176.82,22.31,176.12,22.45,175.37,22.45z"/>
			<path d="M185.61,22.45c-0.87,0-1.65-0.22-2.35-0.66c-0.7-0.44-1.25-1.04-1.66-1.79s-0.61-1.6-0.61-2.53c0-0.95,0.2-1.8,0.61-2.55
				s0.96-1.35,1.66-1.8s1.48-0.67,2.35-0.67c0.73,0,1.38,0.16,1.95,0.47c0.57,0.31,1.02,0.74,1.35,1.29s0.5,1.17,0.5,1.86v2.76
				c0,0.69-0.16,1.31-0.49,1.86c-0.33,0.55-0.78,0.98-1.35,1.29S186.34,22.45,185.61,22.45z M185.97,20.37
				c0.81,0,1.47-0.27,1.97-0.82s0.75-1.25,0.75-2.1c0-0.57-0.11-1.08-0.34-1.52c-0.23-0.44-0.54-0.78-0.95-1.03
				s-0.88-0.37-1.43-0.37c-0.53,0-1,0.12-1.41,0.37s-0.73,0.59-0.96,1.03c-0.23,0.44-0.35,0.95-0.35,1.52s0.12,1.08,0.35,1.52
				c0.23,0.44,0.55,0.78,0.96,1.03C184.97,20.25,185.44,20.37,185.97,20.37z M188.55,22.25v-2.58l0.38-2.34l-0.38-2.32v-2.36h2.2
				v9.6H188.55z"/>
			<path d="M197.13,22.45c-0.81,0-1.54-0.18-2.17-0.54s-1.13-0.86-1.48-1.49c-0.35-0.63-0.53-1.36-0.53-2.19v-5.58h2.2v5.48
				c0,0.47,0.08,0.86,0.23,1.19s0.38,0.58,0.68,0.75c0.3,0.17,0.66,0.26,1.07,0.26c0.64,0,1.13-0.19,1.47-0.57s0.51-0.92,0.51-1.63
				v-5.48h2.2v5.58c0,0.84-0.18,1.58-0.53,2.21c-0.35,0.63-0.84,1.13-1.47,1.48S197.96,22.45,197.13,22.45z"/>
			<path d="M211.93,22.45c-0.93,0-1.78-0.22-2.54-0.67s-1.36-1.05-1.81-1.81s-0.67-1.61-0.67-2.54s0.22-1.77,0.67-2.52
				s1.05-1.34,1.81-1.79s1.61-0.67,2.54-0.67c0.95,0,1.8,0.22,2.56,0.66s1.36,1.04,1.81,1.79s0.67,1.6,0.67,2.53
				s-0.22,1.78-0.67,2.54s-1.05,1.36-1.81,1.81S212.88,22.45,211.93,22.45z M211.93,20.33c0.55,0,1.03-0.12,1.45-0.37
				s0.75-0.59,0.98-1.03s0.35-0.94,0.35-1.5s-0.12-1.05-0.36-1.48s-0.57-0.76-0.98-1.01c-0.41-0.25-0.89-0.37-1.44-0.37
				c-0.53,0-1.01,0.12-1.43,0.37s-0.75,0.58-0.98,1.01s-0.35,0.92-0.35,1.48s0.12,1.06,0.35,1.5s0.56,0.78,0.98,1.03
				S211.4,20.33,211.93,20.33z"/>
			<path d="M217.81,14.65v-2h7.4v2H217.81z M220.11,22.25V11.39c0-0.73,0.16-1.38,0.49-1.94s0.78-1,1.36-1.32
				c0.58-0.32,1.25-0.48,2.01-0.48c0.59,0,1.09,0.1,1.5,0.3c0.41,0.2,0.8,0.49,1.16,0.86l-1.42,1.42c-0.16-0.16-0.33-0.29-0.52-0.38
				s-0.43-0.14-0.72-0.14c-0.53,0-0.94,0.14-1.23,0.43s-0.43,0.7-0.43,1.23v10.88H220.11z"/>
			<path d="M235.05,22.45c-1.11,0-2.05-0.2-2.82-0.6s-1.47-0.99-2.08-1.76l1.56-1.56c0.39,0.56,0.85,1,1.38,1.31
				s1.21,0.47,2.04,0.47c0.77,0,1.39-0.16,1.85-0.48s0.69-0.76,0.69-1.32c0-0.47-0.12-0.85-0.36-1.14
				c-0.24-0.29-0.56-0.54-0.95-0.73c-0.39-0.19-0.83-0.37-1.3-0.52s-0.95-0.33-1.42-0.52s-0.91-0.44-1.3-0.73s-0.71-0.67-0.95-1.14
				c-0.24-0.47-0.36-1.06-0.36-1.78c0-0.83,0.2-1.53,0.61-2.11s0.96-1.02,1.65-1.33c0.69-0.31,1.47-0.46,2.32-0.46
				c0.92,0,1.74,0.18,2.47,0.54s1.32,0.82,1.77,1.38l-1.56,1.56c-0.4-0.45-0.82-0.79-1.25-1.01s-0.93-0.33-1.49-0.33
				c-0.69,0-1.24,0.14-1.63,0.42s-0.59,0.67-0.59,1.18c0,0.43,0.12,0.77,0.36,1.03c0.24,0.26,0.56,0.48,0.95,0.66
				s0.83,0.35,1.3,0.51s0.95,0.34,1.42,0.54s0.91,0.46,1.3,0.77s0.71,0.72,0.95,1.21c0.24,0.49,0.36,1.11,0.36,1.86
				c0,1.25-0.44,2.25-1.33,2.98S236.56,22.45,235.05,22.45z"/>
			<path d="M241.13,14.65v-2h6.8v2H241.13z M243.43,22.25V8.65h2.2v13.6H243.43z"/>
			<path d="M253.55,22.45c-0.87,0-1.65-0.22-2.35-0.66c-0.7-0.44-1.25-1.04-1.66-1.79s-0.61-1.6-0.61-2.53c0-0.95,0.2-1.8,0.61-2.55
				s0.96-1.35,1.66-1.8s1.48-0.67,2.35-0.67c0.73,0,1.38,0.16,1.95,0.47c0.57,0.31,1.02,0.74,1.35,1.29c0.33,0.55,0.5,1.17,0.5,1.86
				v2.76c0,0.69-0.16,1.31-0.49,1.86c-0.33,0.55-0.78,0.98-1.35,1.29S254.28,22.45,253.55,22.45z M253.91,20.37
				c0.81,0,1.47-0.27,1.97-0.82c0.5-0.55,0.75-1.25,0.75-2.1c0-0.57-0.11-1.08-0.34-1.52c-0.23-0.44-0.54-0.78-0.95-1.03
				s-0.88-0.37-1.43-0.37c-0.53,0-1,0.12-1.41,0.37s-0.73,0.59-0.96,1.03c-0.23,0.44-0.35,0.95-0.35,1.52s0.12,1.08,0.35,1.52
				c0.23,0.44,0.55,0.78,0.96,1.03C252.9,20.25,253.37,20.37,253.91,20.37z M256.49,22.25v-2.58l0.38-2.34l-0.38-2.32v-2.36h2.2v9.6
				H256.49z"/>
			<path d="M260.29,14.65v-2h6.8v2H260.29z M262.59,22.25V8.65h2.2v13.6H262.59z"/>
			<path d="M269.81,10.89c-0.37,0-0.68-0.13-0.93-0.38s-0.37-0.57-0.37-0.94s0.12-0.69,0.37-0.94s0.56-0.38,0.93-0.38
				c0.39,0,0.7,0.13,0.94,0.38s0.36,0.57,0.36,0.94s-0.12,0.69-0.36,0.94C270.51,10.76,270.19,10.89,269.81,10.89z M268.71,22.25
				v-9.6h2.2v9.6H268.71z"/>
			<path d="M276.51,22.45c-0.53,0-1.05-0.07-1.54-0.21c-0.49-0.14-0.95-0.34-1.36-0.6c-0.41-0.26-0.77-0.58-1.08-0.95l1.4-1.4
				c0.33,0.39,0.72,0.68,1.15,0.87s0.92,0.29,1.47,0.29c0.49,0,0.87-0.07,1.12-0.22s0.38-0.36,0.38-0.64c0-0.29-0.12-0.52-0.36-0.68
				s-0.55-0.3-0.93-0.41s-0.78-0.23-1.2-0.35s-0.82-0.28-1.2-0.49s-0.69-0.49-0.93-0.85s-0.36-0.83-0.36-1.4
				c0-0.61,0.14-1.14,0.43-1.58c0.29-0.44,0.69-0.78,1.22-1.02c0.53-0.24,1.16-0.36,1.89-0.36c0.77,0,1.46,0.14,2.05,0.41
				c0.59,0.27,1.09,0.68,1.49,1.23l-1.4,1.4c-0.28-0.35-0.6-0.61-0.96-0.78s-0.77-0.26-1.24-0.26c-0.44,0-0.78,0.07-1.02,0.2
				s-0.36,0.33-0.36,0.58c0,0.27,0.12,0.47,0.36,0.62c0.24,0.15,0.55,0.27,0.93,0.38s0.78,0.22,1.2,0.35
				c0.42,0.13,0.82,0.3,1.2,0.52c0.38,0.22,0.69,0.51,0.93,0.88c0.24,0.37,0.36,0.84,0.36,1.43c0,0.93-0.33,1.67-0.98,2.22
				C278.51,22.18,277.63,22.45,276.51,22.45z"/>
			<path d="M281.13,14.65v-2h6.8v2H281.13z M283.43,22.25V8.65h2.2v13.6H283.43z"/>
			<path d="M290.65,10.89c-0.37,0-0.68-0.13-0.93-0.38c-0.25-0.25-0.37-0.57-0.37-0.94s0.12-0.69,0.37-0.94s0.56-0.38,0.93-0.38
				c0.39,0,0.7,0.13,0.94,0.38s0.36,0.57,0.36,0.94s-0.12,0.69-0.36,0.94C291.35,10.76,291.03,10.89,290.65,10.89z M289.55,22.25
				v-9.6h2.2v9.6H289.55z"/>
			<path d="M298.63,22.45c-0.95,0-1.8-0.22-2.57-0.66c-0.77-0.44-1.37-1.04-1.81-1.8c-0.44-0.76-0.66-1.61-0.66-2.54
				c0-0.95,0.22-1.8,0.66-2.55s1.04-1.35,1.81-1.79s1.62-0.66,2.57-0.66c0.75,0,1.44,0.14,2.09,0.43s1.2,0.7,1.65,1.23l-1.44,1.46
				c-0.28-0.33-0.62-0.58-1.01-0.75s-0.82-0.25-1.29-0.25c-0.55,0-1.03,0.12-1.45,0.37s-0.75,0.58-0.98,1.01s-0.35,0.93-0.35,1.5
				c0,0.56,0.12,1.06,0.35,1.49s0.56,0.77,0.98,1.02s0.9,0.37,1.45,0.37c0.47,0,0.9-0.08,1.29-0.25s0.73-0.42,1.01-0.75l1.44,1.46
				c-0.45,0.53-1,0.94-1.65,1.23S299.37,22.45,298.63,22.45z"/>
			<path d="M307.09,22.45c-0.53,0-1.05-0.07-1.54-0.21c-0.49-0.14-0.95-0.34-1.36-0.6c-0.41-0.26-0.77-0.58-1.08-0.95l1.4-1.4
				c0.33,0.39,0.72,0.68,1.15,0.87s0.92,0.29,1.47,0.29c0.49,0,0.87-0.07,1.12-0.22s0.38-0.36,0.38-0.64c0-0.29-0.12-0.52-0.36-0.68
				s-0.55-0.3-0.93-0.41s-0.78-0.23-1.2-0.35s-0.82-0.28-1.2-0.49s-0.69-0.49-0.93-0.85s-0.36-0.83-0.36-1.4
				c0-0.61,0.14-1.14,0.43-1.58c0.29-0.44,0.69-0.78,1.22-1.02c0.53-0.24,1.16-0.36,1.89-0.36c0.77,0,1.46,0.14,2.05,0.41
				c0.59,0.27,1.09,0.68,1.49,1.23l-1.4,1.4c-0.28-0.35-0.6-0.61-0.96-0.78s-0.77-0.26-1.24-0.26c-0.44,0-0.78,0.07-1.02,0.2
				s-0.36,0.33-0.36,0.58c0,0.27,0.12,0.47,0.36,0.62c0.24,0.15,0.55,0.27,0.93,0.38s0.78,0.22,1.2,0.35
				c0.42,0.13,0.82,0.3,1.2,0.52c0.38,0.22,0.69,0.51,0.93,0.88c0.24,0.37,0.36,0.84,0.36,1.43c0,0.93-0.33,1.67-0.98,2.22
				C309.09,22.18,308.21,22.45,307.09,22.45z"/>
		</g>
	</g>
	<g>
		<g>
			<path class="st15" d="M56.88,41.7V31.38h0.79l4.46,7.3h-0.57l4.46-7.3h0.79V41.7H65.7v-8.4l0.25,0.07l-3.72,6.11h-0.78
				l-3.72-6.11l0.25-0.07v8.4H56.88z"/>
			<path class="st15" d="M69.7,33.13c-0.2,0-0.37-0.08-0.51-0.23c-0.14-0.15-0.21-0.32-0.21-0.52c0-0.21,0.07-0.38,0.21-0.53
				c0.14-0.14,0.31-0.21,0.51-0.21c0.22,0,0.4,0.07,0.53,0.21s0.2,0.32,0.2,0.53c0,0.2-0.07,0.38-0.2,0.52
				C70.1,33.06,69.92,33.13,69.7,33.13z M69.18,41.7v-7.05h1.06v7.05H69.18z"/>
			<path class="st15" d="M72.36,41.7v-7.05h1.07v7.05H72.36z M77.5,41.7v-4.14c0-0.61-0.19-1.11-0.55-1.49
				c-0.37-0.39-0.85-0.58-1.46-0.58c-0.4,0-0.76,0.09-1.06,0.26c-0.31,0.17-0.56,0.42-0.74,0.73s-0.27,0.67-0.27,1.07l-0.48-0.27
				c0-0.53,0.12-1,0.38-1.42s0.59-0.75,1.02-0.99s0.92-0.36,1.46-0.36s1.02,0.13,1.44,0.39c0.42,0.26,0.75,0.61,0.98,1.05
				s0.35,0.92,0.35,1.44v4.32L77.5,41.7L77.5,41.7z"/>
			<path class="st15" d="M81.06,33.13c-0.2,0-0.37-0.08-0.51-0.23c-0.14-0.15-0.21-0.32-0.21-0.52c0-0.21,0.07-0.38,0.21-0.53
				c0.14-0.14,0.31-0.21,0.51-0.21c0.22,0,0.4,0.07,0.53,0.21s0.2,0.32,0.2,0.53c0,0.2-0.07,0.38-0.2,0.52
				C81.45,33.06,81.28,33.13,81.06,33.13z M80.53,41.7v-7.05h1.06v7.05H80.53z"/>
			<path class="st15" d="M85.89,41.85c-0.38,0-0.75-0.05-1.1-0.16s-0.67-0.25-0.95-0.44c-0.29-0.19-0.54-0.41-0.76-0.67l0.69-0.69
				c0.28,0.34,0.6,0.59,0.95,0.76s0.75,0.25,1.19,0.25c0.46,0,0.82-0.09,1.09-0.27s0.4-0.43,0.4-0.75c0-0.3-0.09-0.53-0.28-0.7
				s-0.43-0.3-0.73-0.41c-0.3-0.1-0.61-0.2-0.94-0.3c-0.33-0.09-0.64-0.21-0.94-0.36c-0.29-0.15-0.54-0.35-0.73-0.6
				s-0.29-0.6-0.29-1.03c0-0.4,0.1-0.75,0.3-1.04c0.2-0.29,0.48-0.52,0.84-0.69s0.79-0.25,1.31-0.25c0.53,0,1.01,0.1,1.44,0.29
				c0.43,0.19,0.77,0.47,1.03,0.84l-0.69,0.69c-0.2-0.27-0.46-0.48-0.77-0.63s-0.67-0.23-1.06-0.23c-0.45,0-0.79,0.09-1.03,0.26
				c-0.23,0.18-0.35,0.4-0.35,0.68c0,0.27,0.1,0.48,0.29,0.64s0.43,0.28,0.73,0.38s0.61,0.19,0.94,0.29s0.65,0.22,0.94,0.38
				c0.3,0.16,0.54,0.37,0.73,0.63s0.28,0.62,0.28,1.07c0,0.63-0.23,1.13-0.68,1.51C87.28,41.66,86.67,41.85,85.89,41.85z"/>
			<path class="st15" d="M89.4,35.61v-0.96H94v0.96H89.4z M91.17,41.7V31.68h1.06V41.7H91.17z"/>
			<path class="st15" d="M95.43,41.7v-7.05h1.07v7.05H95.43z M96.49,37.59l-0.44-0.18c0-0.9,0.22-1.61,0.65-2.13
				c0.44-0.52,1.03-0.78,1.79-0.78c0.35,0,0.67,0.06,0.96,0.19c0.29,0.13,0.56,0.32,0.81,0.59l-0.71,0.74
				c-0.16-0.18-0.34-0.31-0.55-0.39c-0.21-0.08-0.44-0.12-0.7-0.12c-0.54,0-0.98,0.17-1.32,0.52C96.66,36.38,96.49,36.9,96.49,37.59
				z"/>
			<path class="st15" d="M104.01,41.74l-3.1-7.09h1.17l2.49,5.91h-0.44l2.61-5.91h1.19l-3.31,7.09H104.01z M102.07,44.67l1.95-4
				l0.58,1.08l-1.37,2.92C103.23,44.67,102.07,44.67,102.07,44.67z"/>
			<path class="st15" d="M115.72,41.85c-0.69,0-1.31-0.17-1.86-0.5s-0.99-0.77-1.31-1.33c-0.33-0.56-0.49-1.19-0.49-1.88
				c0-0.68,0.16-1.29,0.49-1.84c0.32-0.55,0.76-0.99,1.31-1.31s1.17-0.49,1.86-0.49c0.68,0,1.3,0.16,1.85,0.48
				c0.56,0.32,1,0.76,1.32,1.31c0.32,0.55,0.49,1.17,0.49,1.85c0,0.7-0.16,1.33-0.49,1.88c-0.33,0.55-0.77,1-1.32,1.33
				C117.02,41.68,116.4,41.85,115.72,41.85z M115.72,40.83c0.49,0,0.93-0.11,1.32-0.34s0.69-0.55,0.92-0.96
				c0.22-0.41,0.33-0.87,0.33-1.38c0-0.5-0.11-0.95-0.34-1.34c-0.22-0.39-0.53-0.71-0.92-0.94c-0.38-0.23-0.82-0.34-1.31-0.34
				s-0.93,0.12-1.32,0.34c-0.39,0.23-0.7,0.54-0.92,0.94c-0.22,0.4-0.33,0.84-0.33,1.34c0,0.52,0.11,0.98,0.33,1.39
				c0.22,0.4,0.52,0.72,0.92,0.95C114.79,40.71,115.23,40.83,115.72,40.83z"/>
			<path class="st15" d="M120.3,35.61v-0.96h5.21v0.96H120.3z M122.08,41.7v-8.24c0-0.5,0.11-0.94,0.32-1.32
				c0.21-0.38,0.52-0.68,0.9-0.89c0.39-0.21,0.82-0.32,1.31-0.32c0.38,0,0.71,0.07,1.01,0.2c0.29,0.13,0.55,0.32,0.79,0.56
				l-0.71,0.71c-0.15-0.16-0.31-0.28-0.49-0.36c-0.18-0.08-0.38-0.12-0.61-0.12c-0.47,0-0.83,0.14-1.09,0.42
				c-0.25,0.28-0.38,0.66-0.38,1.14v8.22H122.08z"/>
			<path class="st15" d="M130.44,41.7V31.38h1.11V41.7H130.44z M131.17,36.88v-1.02h6.34v1.02H131.17z M137.2,41.7V31.38h1.11V41.7
				H137.2z"/>
			<path class="st15" d="M143.89,41.85c-0.69,0-1.31-0.17-1.86-0.5s-0.99-0.77-1.31-1.33c-0.33-0.56-0.49-1.19-0.49-1.88
				c0-0.68,0.16-1.29,0.49-1.84c0.32-0.55,0.76-0.99,1.31-1.31s1.17-0.49,1.86-0.49c0.68,0,1.3,0.16,1.85,0.48
				c0.56,0.32,1,0.76,1.32,1.31c0.32,0.55,0.49,1.17,0.49,1.85c0,0.7-0.16,1.33-0.49,1.88s-0.77,1-1.32,1.33
				C145.19,41.68,144.57,41.85,143.89,41.85z M143.89,40.83c0.49,0,0.93-0.11,1.32-0.34c0.39-0.23,0.69-0.55,0.92-0.96
				c0.22-0.41,0.33-0.87,0.33-1.38c0-0.5-0.11-0.95-0.34-1.34c-0.22-0.39-0.53-0.71-0.92-0.94c-0.38-0.23-0.82-0.34-1.31-0.34
				c-0.49,0-0.93,0.12-1.32,0.34c-0.39,0.23-0.7,0.54-0.92,0.94c-0.22,0.4-0.33,0.84-0.33,1.34c0,0.52,0.11,0.98,0.33,1.39
				c0.22,0.4,0.52,0.72,0.92,0.95C142.96,40.71,143.4,40.83,143.89,40.83z"/>
			<path class="st15" d="M152.01,41.85c-0.57,0-1.08-0.13-1.54-0.4s-0.81-0.63-1.06-1.09c-0.25-0.47-0.38-1-0.38-1.61v-4.09h1.07
				v4.05c0,0.43,0.08,0.81,0.23,1.12c0.16,0.32,0.38,0.57,0.67,0.75s0.62,0.27,1.01,0.27c0.59,0,1.05-0.2,1.39-0.58
				c0.34-0.39,0.51-0.91,0.51-1.56v-4.05h1.07v4.09c0,0.61-0.12,1.15-0.38,1.62c-0.25,0.47-0.6,0.83-1.04,1.09
				C153.11,41.72,152.6,41.85,152.01,41.85z"/>
			<path class="st15" d="M159.1,41.85c-0.38,0-0.75-0.05-1.09-0.16c-0.35-0.11-0.67-0.25-0.95-0.44c-0.29-0.19-0.54-0.41-0.76-0.67
				l0.69-0.69c0.28,0.34,0.6,0.59,0.95,0.76c0.35,0.17,0.75,0.25,1.19,0.25c0.46,0,0.82-0.09,1.09-0.27c0.26-0.18,0.4-0.43,0.4-0.75
				c0-0.3-0.09-0.53-0.28-0.7c-0.19-0.17-0.43-0.3-0.73-0.41c-0.3-0.1-0.62-0.2-0.95-0.3c-0.33-0.09-0.64-0.21-0.94-0.36
				c-0.29-0.15-0.54-0.35-0.73-0.6s-0.29-0.6-0.29-1.03c0-0.4,0.1-0.75,0.3-1.04s0.48-0.52,0.84-0.69s0.79-0.25,1.3-0.25
				c0.53,0,1.01,0.1,1.44,0.29c0.43,0.19,0.78,0.47,1.04,0.84l-0.69,0.69c-0.2-0.27-0.46-0.48-0.77-0.63
				c-0.32-0.15-0.67-0.23-1.06-0.23c-0.45,0-0.79,0.09-1.03,0.26c-0.24,0.18-0.35,0.4-0.35,0.68c0,0.27,0.09,0.48,0.28,0.64
				s0.43,0.28,0.73,0.38s0.61,0.19,0.94,0.29c0.33,0.09,0.65,0.22,0.95,0.38s0.54,0.37,0.73,0.63c0.18,0.26,0.28,0.62,0.28,1.07
				c0,0.63-0.23,1.13-0.68,1.51S159.88,41.85,159.1,41.85z"/>
			<path class="st15" d="M163.83,33.13c-0.2,0-0.37-0.08-0.51-0.23c-0.14-0.15-0.21-0.32-0.21-0.52c0-0.21,0.07-0.38,0.21-0.53
				c0.14-0.14,0.31-0.21,0.51-0.21c0.22,0,0.4,0.07,0.53,0.21c0.14,0.14,0.2,0.32,0.2,0.53c0,0.2-0.07,0.38-0.2,0.52
				C164.22,33.06,164.04,33.13,163.83,33.13z M163.3,41.7v-7.05h1.06v7.05H163.3z"/>
			<path class="st15" d="M166.48,41.7v-7.05h1.07v7.05H166.48z M171.62,41.7v-4.14c0-0.61-0.19-1.11-0.56-1.49
				c-0.37-0.39-0.85-0.58-1.46-0.58c-0.4,0-0.75,0.09-1.06,0.26s-0.55,0.42-0.74,0.73c-0.18,0.31-0.27,0.67-0.27,1.07l-0.48-0.27
				c0-0.53,0.12-1,0.38-1.42s0.59-0.75,1.02-0.99c0.43-0.24,0.92-0.36,1.46-0.36s1.02,0.13,1.44,0.39s0.75,0.61,0.98,1.05
				c0.24,0.44,0.35,0.92,0.35,1.44v4.32L171.62,41.7L171.62,41.7z"/>
			<path class="st15" d="M177.64,41.62c-0.66,0-1.25-0.15-1.77-0.46c-0.52-0.31-0.93-0.73-1.23-1.27s-0.45-1.15-0.45-1.83
				s0.15-1.29,0.45-1.82c0.3-0.54,0.71-0.96,1.23-1.27c0.52-0.31,1.1-0.47,1.75-0.47c0.55,0,1.04,0.11,1.47,0.32
				s0.78,0.51,1.05,0.89s0.43,0.84,0.48,1.36v2c-0.06,0.51-0.23,0.96-0.5,1.34s-0.62,0.68-1.04,0.9
				C178.66,41.51,178.18,41.62,177.64,41.62z M177.56,44.82c-0.71,0-1.34-0.13-1.9-0.4c-0.55-0.27-1-0.64-1.34-1.12l0.69-0.69
				c0.28,0.38,0.63,0.67,1.07,0.88c0.43,0.21,0.93,0.32,1.5,0.32c0.81,0,1.45-0.21,1.92-0.64s0.71-1.02,0.71-1.76v-1.75l0.21-1.6
				l-0.21-1.59v-1.82h1.06v6.76c0,0.68-0.16,1.28-0.46,1.79s-0.75,0.91-1.3,1.19C178.94,44.67,178.29,44.82,177.56,44.82z
				 M177.83,40.62c0.48,0,0.91-0.1,1.27-0.31c0.37-0.21,0.66-0.51,0.86-0.89s0.3-0.84,0.3-1.36c0-0.5-0.1-0.94-0.31-1.33
				c-0.21-0.38-0.49-0.68-0.85-0.9c-0.37-0.21-0.79-0.32-1.28-0.32s-0.93,0.11-1.31,0.32c-0.39,0.21-0.69,0.51-0.9,0.9
				c-0.21,0.39-0.32,0.83-0.32,1.33s0.11,0.94,0.33,1.33c0.22,0.39,0.52,0.69,0.9,0.91S177.33,40.62,177.83,40.62z"/>
			<path class="st15" d="M183.52,43.24l0.85-1.67l0.39-0.09c-0.04,0.09-0.1,0.17-0.17,0.23c-0.07,0.07-0.16,0.1-0.27,0.1
				c-0.19,0-0.36-0.08-0.52-0.23s-0.23-0.35-0.23-0.58c0-0.24,0.08-0.45,0.25-0.62s0.38-0.26,0.63-0.26c0.23,0,0.43,0.09,0.61,0.26
				c0.17,0.18,0.26,0.38,0.26,0.62c0,0.1-0.02,0.22-0.05,0.35c-0.04,0.13-0.11,0.31-0.22,0.53l-0.9,1.7L183.52,43.24z"/>
			<path class="st15" d="M190.96,41.7V31.38h1.11V41.7H190.96z M191.69,41.7v-1h5.68v1H191.69z"/>
			<path class="st15" d="M202.07,41.85c-0.66,0-1.26-0.16-1.79-0.49s-0.95-0.76-1.26-1.31c-0.31-0.55-0.47-1.17-0.47-1.86
				c0-0.7,0.16-1.33,0.47-1.88s0.73-0.99,1.25-1.32c0.53-0.33,1.12-0.49,1.78-0.49c0.54,0,1.02,0.11,1.45,0.32
				c0.42,0.21,0.77,0.51,1.04,0.9c0.27,0.39,0.43,0.83,0.48,1.34v2.21c-0.06,0.51-0.22,0.96-0.49,1.35
				c-0.26,0.39-0.61,0.69-1.03,0.91S202.61,41.85,202.07,41.85z M202.24,40.84c0.74,0,1.33-0.25,1.77-0.74s0.66-1.13,0.66-1.93
				c0-0.53-0.1-1-0.3-1.4s-0.49-0.71-0.86-0.94c-0.37-0.22-0.8-0.34-1.29-0.34c-0.49,0-0.93,0.11-1.31,0.34s-0.69,0.54-0.92,0.95
				c-0.22,0.4-0.34,0.86-0.34,1.38s0.11,0.98,0.34,1.38s0.53,0.71,0.92,0.94C201.31,40.73,201.75,40.84,202.24,40.84z M204.61,41.7
				v-1.89l0.21-1.74l-0.21-1.7v-1.72h1.07v7.05C205.68,41.7,204.61,41.7,204.61,41.7z"/>
			<path class="st15" d="M207.77,41.7v-7.05h1.07v7.05H207.77z M212.92,41.7v-4.14c0-0.61-0.19-1.11-0.56-1.49
				c-0.37-0.39-0.85-0.58-1.46-0.58c-0.4,0-0.75,0.09-1.06,0.26s-0.55,0.42-0.74,0.73c-0.18,0.31-0.27,0.67-0.27,1.07l-0.48-0.27
				c0-0.53,0.12-1,0.38-1.42s0.59-0.75,1.02-0.99c0.43-0.24,0.92-0.36,1.46-0.36s1.02,0.13,1.44,0.39s0.75,0.61,0.98,1.05
				c0.24,0.44,0.35,0.92,0.35,1.44v4.32L212.92,41.7L212.92,41.7z"/>
			<path class="st15" d="M218.95,41.85c-0.66,0-1.25-0.16-1.77-0.48s-0.93-0.76-1.23-1.31c-0.3-0.55-0.45-1.18-0.45-1.87
				c0-0.7,0.15-1.33,0.45-1.88s0.71-0.99,1.24-1.32c0.52-0.33,1.11-0.49,1.76-0.49c0.52,0,1,0.11,1.43,0.32
				c0.44,0.21,0.79,0.51,1.07,0.89c0.28,0.38,0.45,0.84,0.51,1.36v2.21c-0.06,0.51-0.23,0.96-0.5,1.34s-0.63,0.69-1.06,0.91
				C219.96,41.74,219.48,41.85,218.95,41.85z M219.13,40.84c0.49,0,0.92-0.12,1.29-0.35s0.66-0.54,0.86-0.94
				c0.21-0.4,0.31-0.86,0.31-1.38c0-0.53-0.11-1-0.32-1.4s-0.5-0.71-0.87-0.94c-0.37-0.22-0.8-0.34-1.29-0.34
				c-0.49,0-0.92,0.11-1.3,0.34s-0.67,0.54-0.89,0.95c-0.22,0.4-0.33,0.86-0.33,1.38s0.11,0.98,0.32,1.39s0.52,0.72,0.9,0.95
				C218.2,40.73,218.64,40.84,219.13,40.84z M222.59,41.7h-1.07v-1.89l0.23-1.74l-0.23-1.7v-5.29h1.07V41.7z"/>
			<path class="st15" d="M231.19,41.85c-0.66,0-1.24-0.13-1.75-0.4s-0.9-0.63-1.18-1.09c-0.28-0.47-0.42-0.99-0.42-1.58
				c0-0.64,0.17-1.22,0.51-1.74s0.82-0.92,1.44-1.21l0.53,0.67c-0.43,0.21-0.77,0.51-1.03,0.9s-0.38,0.84-0.38,1.35
				c0,0.42,0.1,0.79,0.3,1.1c0.2,0.32,0.47,0.56,0.83,0.74c0.35,0.17,0.75,0.26,1.2,0.26c0.53,0,1-0.12,1.4-0.36
				s0.71-0.54,0.92-0.92l0.7,0.79c-0.2,0.29-0.46,0.55-0.77,0.77c-0.31,0.23-0.67,0.4-1.06,0.53
				C232.04,41.78,231.63,41.85,231.19,41.85z M235.06,41.7l-4.98-5.23c-0.41-0.43-0.71-0.84-0.91-1.24
				c-0.2-0.39-0.29-0.82-0.29-1.27c0-0.53,0.12-1,0.37-1.41c0.24-0.41,0.58-0.74,1.01-0.98s0.92-0.36,1.47-0.36
				c0.4,0,0.76,0.06,1.09,0.19s0.62,0.29,0.88,0.5s0.48,0.46,0.66,0.74l-0.78,0.71c-0.23-0.34-0.5-0.61-0.79-0.8
				s-0.65-0.29-1.05-0.29c-0.52,0-0.95,0.16-1.28,0.47c-0.33,0.32-0.5,0.73-0.5,1.24c0,0.37,0.08,0.7,0.24,0.98s0.42,0.61,0.76,0.98
				l5.43,5.77H235.06z"/>
			<path class="st15" d="M244.9,41.85c-0.75,0-1.42-0.17-2-0.5s-1.05-0.79-1.39-1.38C241.17,39.39,241,38.73,241,38v-6.61h1.11v6.55
				c0,0.58,0.12,1.08,0.37,1.51c0.25,0.43,0.58,0.76,1,0.99c0.42,0.23,0.89,0.34,1.42,0.34s1-0.11,1.42-0.34
				c0.41-0.23,0.74-0.56,0.98-0.99c0.24-0.43,0.36-0.93,0.36-1.5v-6.57h1.11v6.63c0,0.73-0.17,1.38-0.5,1.96s-0.79,1.04-1.38,1.37
				S245.64,41.85,244.9,41.85z"/>
			<path class="st15" d="M251,41.7v-7.05h1.07v7.05H251z M252.07,37.59l-0.44-0.18c0-0.9,0.22-1.61,0.65-2.13
				c0.44-0.52,1.03-0.78,1.79-0.78c0.35,0,0.67,0.06,0.96,0.19c0.29,0.13,0.56,0.32,0.81,0.59l-0.7,0.74
				c-0.16-0.18-0.34-0.31-0.55-0.39c-0.21-0.08-0.44-0.12-0.7-0.12c-0.54,0-0.98,0.17-1.32,0.52
				C252.24,36.38,252.07,36.9,252.07,37.59z"/>
			<path class="st15" d="M257.21,41.7V31.08h1.07v5.29l-0.21,1.7l0.21,1.74v1.89H257.21z M260.87,41.85c-0.54,0-1.03-0.11-1.46-0.33
				s-0.78-0.52-1.06-0.91s-0.44-0.83-0.5-1.34v-2.21c0.06-0.52,0.23-0.97,0.51-1.36c0.28-0.38,0.64-0.68,1.07-0.89
				c0.44-0.21,0.91-0.32,1.43-0.32c0.65,0,1.24,0.16,1.75,0.49s0.93,0.76,1.24,1.32s0.46,1.18,0.46,1.88c0,0.69-0.15,1.31-0.45,1.86
				s-0.71,0.99-1.24,1.31C262.11,41.68,261.52,41.85,260.87,41.85z M260.68,40.84c0.5,0,0.94-0.11,1.32-0.34
				c0.38-0.22,0.68-0.54,0.9-0.95c0.22-0.4,0.33-0.87,0.33-1.39s-0.11-0.98-0.33-1.39s-0.52-0.72-0.89-0.95
				c-0.38-0.22-0.81-0.34-1.3-0.34s-0.92,0.11-1.3,0.34c-0.38,0.23-0.67,0.54-0.88,0.95s-0.32,0.87-0.32,1.39s0.11,0.98,0.32,1.39
				c0.21,0.41,0.5,0.72,0.87,0.95C259.77,40.73,260.2,40.84,260.68,40.84z"/>
			<path class="st15" d="M269.03,41.85c-0.66,0-1.26-0.16-1.79-0.49s-0.95-0.76-1.26-1.31c-0.31-0.55-0.47-1.17-0.47-1.86
				c0-0.7,0.16-1.33,0.47-1.88s0.73-0.99,1.25-1.32c0.53-0.33,1.12-0.49,1.78-0.49c0.54,0,1.02,0.11,1.45,0.32
				c0.42,0.21,0.77,0.51,1.04,0.9c0.27,0.39,0.43,0.83,0.48,1.34v2.21c-0.06,0.51-0.22,0.96-0.49,1.35
				c-0.26,0.39-0.61,0.69-1.03,0.91S269.57,41.85,269.03,41.85z M269.2,40.84c0.74,0,1.33-0.25,1.77-0.74s0.66-1.13,0.66-1.93
				c0-0.53-0.1-1-0.3-1.4c-0.2-0.4-0.49-0.71-0.86-0.94c-0.37-0.22-0.8-0.34-1.29-0.34s-0.93,0.11-1.31,0.34s-0.69,0.54-0.92,0.95
				c-0.22,0.4-0.34,0.86-0.34,1.38s0.11,0.98,0.34,1.38s0.53,0.71,0.92,0.94C268.27,40.73,268.71,40.84,269.2,40.84z M271.57,41.7
				v-1.89l0.21-1.74l-0.21-1.7v-1.72h1.07v7.05C272.64,41.7,271.57,41.7,271.57,41.7z"/>
			<path class="st15" d="M274.73,41.7v-7.05h1.07v7.05H274.73z M279.88,41.7v-4.14c0-0.61-0.19-1.11-0.56-1.49
				c-0.37-0.39-0.85-0.58-1.46-0.58c-0.4,0-0.75,0.09-1.06,0.26s-0.55,0.42-0.74,0.73c-0.18,0.31-0.27,0.67-0.27,1.07l-0.48-0.27
				c0-0.53,0.12-1,0.38-1.42s0.59-0.75,1.02-0.99s0.92-0.36,1.46-0.36s1.02,0.13,1.44,0.39s0.75,0.61,0.98,1.05
				c0.24,0.44,0.35,0.92,0.35,1.44v4.32L279.88,41.7L279.88,41.7z"/>
			<path class="st15" d="M286.37,41.7V31.38h1.11V41.7H286.37z M287.06,41.7v-1.02h3.03c0.81,0,1.52-0.18,2.14-0.53
				c0.62-0.35,1.1-0.84,1.45-1.47c0.35-0.62,0.52-1.34,0.52-2.15c0-0.8-0.17-1.51-0.52-2.14c-0.35-0.62-0.83-1.11-1.46-1.46
				c-0.62-0.35-1.33-0.53-2.13-0.53h-3v-1.02h3.03c0.75,0,1.44,0.13,2.08,0.38c0.63,0.25,1.19,0.62,1.67,1.08
				c0.47,0.46,0.84,1.01,1.1,1.63c0.26,0.62,0.39,1.31,0.39,2.06c0,0.73-0.13,1.41-0.39,2.04s-0.62,1.18-1.1,1.64
				c-0.47,0.46-1.02,0.83-1.66,1.09s-1.32,0.39-2.06,0.39L287.06,41.7L287.06,41.7z"/>
			<path class="st15" d="M300.46,41.85c-0.7,0-1.33-0.16-1.89-0.48c-0.56-0.32-1-0.76-1.33-1.32s-0.49-1.19-0.49-1.89
				c0-0.69,0.16-1.31,0.47-1.87c0.32-0.55,0.75-0.99,1.3-1.31s1.17-0.48,1.84-0.48c0.65,0,1.22,0.15,1.72,0.44s0.88,0.69,1.17,1.21
				s0.43,1.11,0.43,1.78c0,0.08-0.01,0.17-0.02,0.28c-0.01,0.1-0.03,0.23-0.06,0.37h-6.11v-0.9h5.52l-0.38,0.33
				c0.01-0.51-0.08-0.95-0.26-1.33c-0.19-0.38-0.45-0.67-0.79-0.88s-0.76-0.31-1.24-0.31c-0.51,0-0.96,0.11-1.33,0.34
				c-0.38,0.23-0.68,0.54-0.89,0.93c-0.21,0.39-0.32,0.86-0.32,1.39c0,0.54,0.11,1.01,0.34,1.42s0.54,0.73,0.95,0.96
				s0.87,0.34,1.4,0.34c0.42,0,0.81-0.08,1.17-0.23s0.67-0.39,0.92-0.7l0.69,0.69c-0.33,0.4-0.74,0.71-1.23,0.92
				S301.02,41.85,300.46,41.85z"/>
			<path class="st15" d="M307.75,41.7l-3.27-7.05h1.19l2.74,6.17h-0.67l2.78-6.17h1.14l-3.29,7.05
				C308.37,41.7,307.75,41.7,307.75,41.7z"/>
			<path class="st15" d="M316.21,41.85c-0.7,0-1.33-0.16-1.89-0.48c-0.56-0.32-1-0.76-1.33-1.32s-0.49-1.19-0.49-1.89
				c0-0.69,0.16-1.31,0.47-1.87c0.32-0.55,0.75-0.99,1.3-1.31s1.17-0.48,1.84-0.48c0.65,0,1.22,0.15,1.72,0.44s0.88,0.69,1.17,1.21
				s0.43,1.11,0.43,1.78c0,0.08-0.01,0.17-0.02,0.28c-0.01,0.1-0.03,0.23-0.06,0.37h-6.11v-0.9h5.52l-0.38,0.33
				c0.01-0.51-0.08-0.95-0.26-1.33c-0.19-0.38-0.45-0.67-0.79-0.88s-0.76-0.31-1.24-0.31c-0.51,0-0.96,0.11-1.33,0.34
				c-0.38,0.23-0.68,0.54-0.89,0.93c-0.21,0.39-0.32,0.86-0.32,1.39c0,0.54,0.11,1.01,0.34,1.42s0.54,0.73,0.95,0.96
				s0.87,0.34,1.4,0.34c0.42,0,0.81-0.08,1.17-0.23s0.67-0.39,0.92-0.7l0.69,0.69c-0.33,0.4-0.74,0.71-1.23,0.92
				S316.77,41.85,316.21,41.85z"/>
			<path class="st15" d="M321.02,41.7V31.08h1.07V41.7H321.02z"/>
			<path class="st15" d="M327.41,41.85c-0.69,0-1.31-0.17-1.86-0.5s-0.99-0.77-1.31-1.33c-0.33-0.56-0.49-1.19-0.49-1.88
				c0-0.68,0.16-1.29,0.49-1.84c0.32-0.55,0.76-0.99,1.31-1.31c0.55-0.33,1.17-0.49,1.86-0.49c0.68,0,1.3,0.16,1.85,0.48
				c0.56,0.32,1,0.76,1.32,1.31s0.49,1.17,0.49,1.85c0,0.7-0.16,1.33-0.49,1.88s-0.76,1-1.32,1.33
				C328.71,41.68,328.09,41.85,327.41,41.85z M327.41,40.83c0.49,0,0.93-0.11,1.32-0.34s0.7-0.55,0.92-0.96s0.33-0.87,0.33-1.38
				c0-0.5-0.11-0.95-0.34-1.34c-0.22-0.39-0.53-0.71-0.92-0.94c-0.38-0.23-0.82-0.34-1.31-0.34s-0.93,0.12-1.32,0.34
				c-0.39,0.23-0.7,0.54-0.92,0.94c-0.22,0.4-0.33,0.84-0.33,1.34c0,0.52,0.11,0.98,0.33,1.39c0.22,0.4,0.52,0.72,0.92,0.95
				C326.48,40.71,326.92,40.83,327.41,40.83z"/>
			<path class="st15" d="M332.72,44.67V34.65h1.07v1.8l-0.21,1.73l0.21,1.72v4.77C333.79,44.67,332.72,44.67,332.72,44.67z
				 M336.38,41.85c-0.54,0-1.03-0.11-1.46-0.33s-0.78-0.52-1.06-0.91s-0.44-0.83-0.5-1.34v-2.21c0.06-0.52,0.23-0.97,0.51-1.36
				c0.28-0.38,0.64-0.68,1.07-0.89c0.44-0.21,0.91-0.32,1.43-0.32c0.65,0,1.24,0.16,1.75,0.49s0.93,0.76,1.24,1.32
				s0.46,1.18,0.46,1.88c0,0.69-0.15,1.31-0.45,1.86s-0.71,0.99-1.24,1.31C337.62,41.68,337.03,41.85,336.38,41.85z M336.19,40.84
				c0.5,0,0.94-0.11,1.32-0.34c0.38-0.22,0.68-0.54,0.9-0.95c0.22-0.4,0.33-0.87,0.33-1.39s-0.11-0.98-0.33-1.39
				s-0.52-0.72-0.89-0.95c-0.38-0.22-0.81-0.34-1.3-0.34s-0.92,0.11-1.3,0.34c-0.38,0.23-0.67,0.54-0.88,0.95s-0.32,0.87-0.32,1.39
				s0.11,0.98,0.32,1.39c0.21,0.41,0.5,0.72,0.87,0.95S335.71,40.84,336.19,40.84z"/>
			<path class="st15" d="M341.48,41.7v-7.05h1.07v7.05H341.48z M346.34,41.7v-4.32c0-0.58-0.17-1.04-0.53-1.38
				c-0.35-0.34-0.79-0.51-1.32-0.51c-0.36,0-0.69,0.08-0.98,0.23c-0.29,0.16-0.53,0.37-0.7,0.65c-0.18,0.28-0.26,0.61-0.26,0.99
				l-0.48-0.19c0-0.54,0.12-1.01,0.36-1.41s0.56-0.71,0.97-0.93c0.4-0.22,0.86-0.33,1.37-0.33c0.5,0,0.95,0.11,1.34,0.33
				c0.39,0.22,0.71,0.53,0.94,0.93c0.24,0.4,0.35,0.88,0.35,1.42v4.51L346.34,41.7L346.34,41.7z M351.19,41.7v-4.32
				c0-0.58-0.17-1.04-0.52-1.38c-0.35-0.34-0.79-0.51-1.32-0.51c-0.35,0-0.67,0.08-0.97,0.23c-0.29,0.16-0.53,0.37-0.71,0.65
				c-0.17,0.28-0.26,0.61-0.26,0.99l-0.63-0.19c0.03-0.54,0.17-1.01,0.43-1.41c0.25-0.4,0.59-0.71,1-0.93
				c0.42-0.22,0.87-0.33,1.37-0.33s0.95,0.11,1.36,0.33c0.4,0.22,0.72,0.53,0.96,0.93c0.23,0.4,0.35,0.88,0.35,1.42v4.51
				L351.19,41.7L351.19,41.7z"/>
			<path class="st15" d="M357.47,41.85c-0.7,0-1.33-0.16-1.89-0.48c-0.56-0.32-1-0.76-1.33-1.32s-0.49-1.19-0.49-1.89
				c0-0.69,0.16-1.31,0.47-1.87c0.32-0.55,0.75-0.99,1.3-1.31s1.17-0.48,1.84-0.48c0.65,0,1.22,0.15,1.72,0.44s0.88,0.69,1.17,1.21
				s0.43,1.11,0.43,1.78c0,0.08-0.01,0.17-0.02,0.28c-0.01,0.1-0.03,0.23-0.06,0.37h-6.11v-0.9h5.52l-0.38,0.33
				c0.01-0.51-0.08-0.95-0.26-1.33c-0.19-0.38-0.45-0.67-0.79-0.88s-0.76-0.31-1.24-0.31c-0.51,0-0.96,0.11-1.33,0.34
				c-0.38,0.23-0.68,0.54-0.89,0.93c-0.21,0.39-0.32,0.86-0.32,1.39c0,0.54,0.11,1.01,0.34,1.42s0.54,0.73,0.95,0.96
				s0.87,0.34,1.4,0.34c0.42,0,0.81-0.08,1.17-0.23s0.67-0.39,0.92-0.7l0.69,0.69c-0.33,0.4-0.74,0.71-1.23,0.92
				S358.03,41.85,357.47,41.85z"/>
			<path class="st15" d="M362.29,41.7v-7.05h1.06v7.05H362.29z M367.43,41.7v-4.14c0-0.61-0.19-1.11-0.56-1.49
				c-0.37-0.39-0.85-0.58-1.46-0.58c-0.4,0-0.75,0.09-1.06,0.26s-0.55,0.42-0.74,0.73c-0.18,0.31-0.27,0.67-0.27,1.07l-0.48-0.27
				c0-0.53,0.12-1,0.38-1.42s0.59-0.75,1.02-0.99s0.92-0.36,1.46-0.36s1.02,0.13,1.44,0.39s0.75,0.61,0.98,1.05
				c0.24,0.44,0.35,0.92,0.35,1.44v4.32L367.43,41.7L367.43,41.7z"/>
			<path class="st15" d="M369.77,35.61v-0.96h4.61v0.96H369.77z M371.54,41.7V31.68h1.07V41.7H371.54z"/>
		</g>
	</g>
</g>
</svg>
