<?xml version="1.0" encoding="utf-8"?>
<!-- Generator: Adobe Illustrator 26.0.0, SVG Export Plug-In . SVG Version: 6.00 Build 0)  -->
<svg version="1.1" id="Layer_1" xmlns="http://www.w3.org/2000/svg" xmlns:xlink="http://www.w3.org/1999/xlink" x="0px" y="0px"
	 viewBox="0 0 321.4 50" style="enable-background:new 0 0 321.4 50;" xml:space="preserve">
<style type="text/css">
	.st0{fill:#573F2F;}
	.st1{fill:#00A650;}
	.st2{fill:#496E6E;}
	.st3{fill:#FFFFFF;}
	.st4{fill:#007E3A;}
	.st5{fill:#D21034;}
	.st6{fill:#FEC00F;}
	.st7{fill:url(#path66_00000110457864192971718070000000254231945344166023_);}
	.st8{fill:url(#path78_00000033349302069006353700000006095411046462306970_);}
	.st9{fill:url(#path100_00000129193405750027905000000010779403584884591278_);}
	.st10{fill:url(#path112_00000134960681074968725510000000221494324684134335_);}
	.st11{fill:url(#path124_00000183927162045754910710000008932784212076491656_);}
	.st12{fill:url(#path136_00000119812028325554512960000001292198868534164611_);}
	.st13{fill:url(#path148_00000002385375263520877940000006348016457637787024_);}
	.st14{fill:#C7C4E2;}
</style>
<g id="g12" transform="matrix(1.25,0,0,-1.25,-99.132688,774.00054)">
	<g id="g2964" transform="matrix(0.97794693,0,0,0.97794693,1.7489442,3.0744652)">
		<path id="path14" class="st0" d="M89.2,615c-0.3-0.2-0.4-0.4-0.3-0.6c0.1-0.2,0.4-0.2,0.7,0c0.3,0.2,0.4,0.4,0.3,0.6
			C89.7,615.1,89.5,615.1,89.2,615L89.2,615L89.2,615z"/>
		<path id="path16" class="st0" d="M112.4,615c0.3-0.2,0.4-0.4,0.3-0.6c-0.1-0.2-0.4-0.2-0.7,0c-0.3,0.2-0.4,0.4-0.3,0.6
			C111.9,615.1,112.1,615.1,112.4,615L112.4,615L112.4,615z"/>
		<path id="path18" class="st1" d="M98.5,628.2c0,0-0.1,0-0.1-0.2c0-0.1-0.2,0-0.2,0c0,0-0.1,0,0-0.1s0.1-0.1,0.1-0.1
			c0-0.1,0-0.2,0-0.1c0,0-0.1,0-0.1,0c0,0,0.1,0,0.2-0.2c0.1-0.1,0-0.1,0-0.1s-0.1,0-0.1,0c0,0,0-0.1,0.1-0.1c0.1,0,0.2-0.1,0.2-0.1
			c0.1,0,0-0.1,0-0.1s-0.1,0.1-0.2,0c0-0.1,0.1-0.2,0.1-0.2s0.2-0.2,0.3-0.2c0.1,0,0.1-0.1,0.1-0.1c-0.1,0-0.2,0-0.2,0
			c-0.1,0-0.1-0.1-0.1-0.1s0.2-0.1,0.3-0.1s0.1-0.1,0.1-0.1s-0.2,0-0.3,0s-0.2,0-0.1-0.1c0.1-0.1,0.3,0,0.3-0.2
			c0-0.1-0.1-0.1-0.2-0.1c-0.1,0-0.1-0.1,0-0.1c0.1,0,0.3-0.2,0.3-0.2s0.1-0.1,0.1-0.1c-0.1,0-0.2,0-0.2,0c0,0-0.2,0,0-0.1
			c0.2-0.1,0.1-0.1,0.2-0.1s0-0.2,0-0.1s-0.1-0.1,0-0.1c0.1,0,0.2-0.1,0.2-0.1c0,0-0.1-0.1,0-0.2c0.1,0,0.3,0,0.2-0.1
			c-0.1-0.1,0,0,0.1-0.1c0.1,0,0-0.1,0-0.1s-0.3,0.1-0.3,0.1c0-0.1,0-0.1,0-0.1s0.2,0,0.3-0.1c0.1-0.1,0.1-0.1,0-0.1s-0.1,0.1-0.2,0
			s0.1-0.2,0-0.3c0-0.1-0.1,0-0.1,0.1c0,0.2-0.1,0.3-0.1,0.3s-0.1-0.1-0.1,0.1c0,0.2-0.1,0.1-0.1,0c0-0.1,0.1-0.2,0-0.2
			c-0.1,0-0.2,0.2-0.2,0.3s-0.1,0.1-0.1,0s0.1-0.3,0.2-0.5c0.1-0.1,0.2-0.3,0.2-0.4c-0.1,0-0.1,0-0.1,0s-0.3,0.7-0.4,0.9
			c-0.1,0.2-0.2,0.2-0.2,0c0-0.1,0.2-0.4,0.2-0.6c-0.1-0.2-0.1,0-0.1,0s-0.1,0.5-0.4,0.8c-0.2,0.3-0.2,0.1-0.2,0
			c0.1-0.1,0.3-0.4,0.3-0.6c0-0.2-0.1-0.1-0.1,0c0,0.1-0.2,0.7-0.5,1c-0.3,0.2-0.2,0-0.2,0c0.1,0,0.4-0.4,0.4-0.6
			c0-0.3-0.1-0.1-0.1,0c0,0.1-0.1,0.5-0.5,0.8c-0.3,0.3-0.2-0.1-0.2,0s0.4-0.3,0.4-0.6c0-0.2-0.1-0.2-0.1-0.1c0,0-0.2,0.5-0.4,0.7
			s-0.2,0.2-0.3,0.2c-0.1,0-0.2,0-0.2,0c0,0.1-0.3,0.2-0.2,0s-0.2,0-0.2,0c0,0-0.3,0.2-0.2,0c0.1-0.2,0.5-0.2,0.5-0.5
			c0-0.2,0.1-0.2-0.1-0.1c-0.2,0.1-0.2,0.4-0.6,0.5c-0.3,0.1,0-0.2,0-0.2s0.3-0.2,0.1-0.2c-0.2,0-0.2,0.1-0.2,0.2s-0.2,0.2-0.3,0.2
			s0.1-0.1,0-0.1c-0.1,0-0.3,0.1-0.3-0.1s-0.1-0.1-0.1-0.1c-0.1,0-0.1,0-0.1-0.1c0,0-0.2,0-0.2-0.1s0.1-0.1,0.1-0.1
			c0.1,0,0.1,0,0-0.1s-0.1-0.2,0.1-0.2s0.2,0.1,0.3,0.1c0.1,0,0.1,0,0.1,0s-0.1-0.2,0-0.2s0.4,0.2,0.5,0.2c0.1-0.1,0.1-0.1,0-0.2
			c-0.1-0.1,0-0.1,0.1-0.1c0.1,0,0.3,0.2,0.4,0.1c0.1-0.1,0-0.1,0-0.1c-0.1,0-0.1-0.1,0-0.1s0.2,0,0.3,0s0.1,0.1,0.2,0
			c0.1-0.1,0.2-0.1,0-0.1c-0.1,0-0.2-0.2,0-0.2c0.1,0,0.3,0.1,0.5,0.1c0.2,0,0.2,0,0.1-0.1c-0.1-0.1-0.2-0.1-0.2-0.2
			s0.1-0.1,0.2-0.1c0.1,0,0.2,0.1,0.2,0.1c0.1,0,0.1,0,0.1-0.1c-0.1-0.1-0.1,0-0.1-0.1c0-0.1,0-0.1,0.1-0.1c0.1,0,0.3,0,0.3,0
			s0.2,0,0.1,0c-0.1,0-0.3-0.1-0.2-0.2c0.1,0,0.2,0,0.3,0c0.1,0,0.2-0.1,0.2-0.1s-0.2-0.1,0-0.1c0.2,0,0.3,0,0.3-0.1s-0.1,0-0.2-0.1
			c-0.1-0.1,0.3-0.4,0.5-0.7c0.2-0.3,0.2-0.1,0.1-0.2c-0.1-0.1-0.2-0.1-0.2,0c0,0.1-0.1,0.3-0.4,0.5c-0.2,0.2-0.2,0.3-0.3,0.3
			s-0.1-0.1,0-0.2s0.4-0.3,0.4-0.5c0.1-0.2-0.2-0.1-0.2-0.1s-0.1,0.4-0.4,0.6c-0.3,0.3-0.6,0.3-0.5,0.2c0.1-0.1,0.5-0.3,0.6-0.6
			c0.1-0.3-0.2-0.1-0.2-0.1c0,0-0.2,0.4-0.5,0.6c-0.3,0.2-0.5,0.2-0.4,0s-0.1-0.1-0.1-0.1s-0.2,0.2-0.3,0.1c-0.1,0-0.1,0-0.1-0.1
			c0.1-0.1-0.1,0-0.2,0c-0.1,0-0.2,0.1-0.2,0c0-0.1-0.2,0-0.2,0c-0.1,0-0.4,0.1-0.4,0s0.2-0.2,0-0.2s-0.3,0-0.2-0.1
			c0.1-0.1,0.3,0,0.5-0.3c0.2-0.3-0.1-0.1-0.1-0.1s-0.1,0.2-0.3,0.2c-0.2,0.1-0.3,0.2-0.5,0.2c-0.2,0-0.3-0.1-0.2-0.1
			s0.5-0.1,0.6-0.3s-0.2-0.1-0.2,0c0,0.1-0.4,0.1-0.4,0.1s-0.6,0-0.2-0.2c0.4-0.2,0.7-0.3,0.2-0.2s-1,0.1-0.7,0
			c0.3-0.1-0.1,0-0.2-0.1s-0.2-0.1-0.1-0.2s-0.2,0,0-0.1c0.2-0.1-0.2-0.1,0.1-0.2c0.3,0-0.4-0.2-0.2-0.2c0.2,0-0.3-0.3,0.1-0.2
			s0,0,0.2-0.1s0.1,0.2,0.2,0.2s0.2,0.3,0.2,0.1s-0.1-0.3,0.2,0c0.2,0.3,0.2,0.1,0.2,0c0-0.1,0-0.2,0.1-0.1s0-0.2,0.1-0.1
			s0.1,0.3,0.2,0.4c0.1,0.1,0.2,0.2,0.2,0c-0.1-0.2,0-0.4,0.1-0.1s0.2,0.3,0.2,0.2c0-0.2,0-0.3,0.1-0.1c0.1,0.2,0.2,0.2,0.2,0.1
			c-0.1-0.2,0.1-0.1,0.1,0s0.1,0,0.1-0.1c0-0.1,0.2,0.3,0.3,0.3s0.3,0.3,0.1-0.1c-0.2-0.4,0.1-0.1,0.1-0.1s0.5,0.5,0.3,0.2
			s-0.1-0.4,0.1-0.3c0.2,0.1,0.3,0.5,0.2,0.2s-0.1-0.4,0.1-0.2c0.2,0.2,0.6,0.7,0.4,0.2c-0.2-0.4,0.2-0.1,0.2,0
			c0.1,0.1,0.3,0.2,0.1-0.1c-0.2-0.2,0.2-0.1,0.2,0c0.1,0.1,0.3,0.3,0.2,0c-0.2-0.3-0.1-0.2,0.1-0.1c0.2,0.1,0.2,0,0.1-0.1
			c-0.1-0.1-0.2,0-0.1-0.2c0.1-0.2-0.1-0.1-0.2-0.1c-0.1,0,0.1-0.1-0.1-0.2c-0.2,0-0.8-0.1-0.5-0.2c0.3-0.2-0.1,0-0.1-0.1
			s-0.3-0.1-0.2-0.1S97,620,97,620c-0.1,0-0.7-0.1-0.3-0.2c0.3,0,1,0.1,1.1,0s-0.3-0.1-0.4-0.1s-1.5-0.1-0.9-0.2s0.7,0,0.7,0
			c0.1-0.1-0.3-0.1-0.4-0.1s-0.9-0.1-0.6-0.2c0.3,0,0.3-0.1,0.1-0.1c-0.2,0-0.6-0.2-0.2-0.2s1,0,0.4-0.1c-0.5-0.1-0.5,0-0.8-0.1
			s-0.4-0.2,0.4-0.2s0.1-0.1,0.2-0.1c0,0-0.7,0-1-0.1c-0.3-0.1-0.2-0.2-0.3-0.3s-0.3-0.3,0.2-0.2c0.5,0.1-0.2-0.2-0.3-0.2
			c-0.1,0-0.8-0.5,0.1-0.2c0.9,0.4,0.3,0.1,0.3,0c-0.1-0.1-0.8-0.3-0.8-0.3s-0.1-0.2,0.1-0.1c0.2,0,0.4,0.3,0.5,0.2
			c0.1-0.1-0.2-0.2-0.4-0.3c-0.2-0.1-0.6-0.5,0.1-0.2c0.7,0.3,0.1-0.1,0.1-0.1c-0.1,0-0.4-0.1-0.6-0.3c-0.1-0.2-0.1-0.4,0.1-0.3
			s0.2,0.1,0.1-0.1s-0.1-0.4-0.1-0.5c0.1-0.1,0.1-0.1,0.2,0.2c0,0.3,0.1,0.2,0.1,0.1s0.1,0,0.1,0.1c0,0.2,0.2,0.2,0.2,0.1
			c0-0.1,0.1-0.2,0.1,0.2c0.1,0.3,0.1,0.3,0.1,0.2c0-0.2,0.1-0.4,0.2,0c0,0.5,0.1,0.4,0.1,0.2s0.1-0.3,0.2,0.1
			c0.1,0.4,0,0.7,0.1,0.3c0.1-0.4,0.2,0.1,0.2,0.2c0,0.2,0.1,0.4,0.1,0.1s0.1-0.5,0.2,0c0.1,0.4,0.1,0.6,0.1,0.3s0.1-0.1,0.2,0
			c0,0.1,0.2,0.9,0.2,0.4s0.2-0.1,0.2,0s0.2,0.7,0.2,0.1c0-0.6,0.2,0.1,0.2,0.1c0,0,0.1,0.7,0.2,0.2s0.2,0,0.2,0.1s0.2,0.7,0.2,0.2
			c0-0.6,0.1-0.1,0.1-0.1s0.1,0.6,0.1,0.2s0.1,0.2,0.1,0.2c0,0,0.1,0,0.1,0.2c0,0.2,0.1,0,0.1,0s-0.1-0.3,0.1-0.2
			c0.2,0.1,0.1,0,0.1-0.1c0-0.1,0.4,0.2,0.6,0.3c0.2,0,0.3,0,0.1-0.1s-0.7-0.4-0.8-0.5s-0.1-0.3,0-0.2c0.1,0.1,0.1,0,0-0.1
			c-0.1,0-0.2-0.4,0-0.2s0.1,0.2,0.5,0.3s0.1-0.1,0-0.1s-0.6-0.2-0.8-0.5s0-0.2,0-0.2c0,0,0.2,0.3,0.5,0.4s0.3,0.1,0.2,0
			s-0.3-0.1-0.4-0.2s-0.4-0.3-0.5-0.5c-0.1-0.2-0.1-0.2,0-0.2c0.2,0,0.4,0.5,0.7,0.5c0.2,0,0.1-0.2,0-0.2s-0.2,0-0.3-0.1
			c-0.2-0.1-0.3-0.2-0.4-0.4c-0.1-0.2-0.1,0,0.1,0s0.1,0.3,0.4,0.3s0.2-0.2,0.1-0.2c-0.1,0-0.5-0.2-0.7-0.5
			c-0.2-0.3,0.1-0.2,0.1-0.2s0.2,0.2,0.4,0.4c0.3,0.1,0.1-0.1,0.1-0.1c0,0-0.5-0.2-0.7-0.5c-0.2-0.4,0.1-0.2,0.1-0.2
			c0,0.1,0.2,0.3,0.4,0.4s0.1-0.1,0-0.2s-0.5-0.1-0.6-0.5s0.1-0.1,0.1-0.1s0.1,0.3,0.4,0.4c0.3,0,0.2,0,0-0.2
			c-0.2-0.2-0.5-0.3-0.5-0.5s0-0.3,0.1-0.1s0.4,0.3,0.4,0.3s0.2,0,0-0.1c-0.2-0.1-0.5-0.4-0.5-0.5s-0.1-0.3,0.2-0.1
			c0.2,0.3,0.1,0,0.1-0.1c-0.1-0.1-0.2-0.5,0.1-0.2c0.2,0.3,0,0.3,0.2,0.2c0.1-0.1,0.1-0.1,0.1-0.2c0-0.1-0.1,0-0.2-0.2
			c-0.1-0.2-0.3-0.3-0.1-0.4c0.2,0,0.1-0.2,0.1-0.3s0.1-0.2,0.2-0.1c0.1,0.1,0.1-0.2,0.1-0.3s0.1,0,0.1,0s0,0.3,0.1,0.2
			c0.1-0.1,0.2-0.1,0.2,0c0,0.1-0.2,0.5,0,0.4c0.2-0.2,0,0.2,0,0.2c0,0,0,0.3,0.1,0c0.1-0.3,0.1,0.2,0.1,0.2c0,0.1,0,0.2,0.1,0
			c0.1-0.2,0,0,0,0.3c-0.1,0.3-0.1,0.5,0,0.4c0.2-0.1,0.3-0.2,0.2,0c-0.1,0.2-0.3,0.8-0.1,0.6s0.2-0.2,0.2,0c0,0.2,0,0.2,0.1,0.1
			c0.1-0.1,0.1,0.2,0.1,0.2c-0.1,0.1-0.2,0.4-0.1,0.3c0.1-0.1,0.1,0.1,0.1,0.1c0,0.1,0.1,0.1,0.1,0c0.1,0,0,0.2,0,0.3
			s-0.2,0.4,0,0.3c0.1-0.1,0.1-0.1,0.2,0s0.1,0.1,0-0.1c0-0.1-0.1-0.4,0-0.3c0.2,0.1,0-0.1,0-0.2c0-0.1-0.1-0.3,0.1-0.2
			c0.2,0.1,0-0.1,0-0.2c0-0.1-0.1-0.5,0.1-0.2s0.2,0.3,0.1,0.1c-0.1-0.2-0.2-0.5-0.2-0.5c0-0.1,0.2,0.1,0.3,0.5
			c0.2,0.4,0.4,0.5,0.3,0.4c-0.1-0.2-0.3-0.5-0.4-0.8c-0.1-0.2-0.3-0.8-0.1-0.7c0.2,0.2,0.1-0.1,0-0.2c0-0.1-0.1-0.3,0-0.2
			c0.1,0.1,0.1-0.1,0.1-0.2c0-0.1,0.1-0.2,0-0.4c0-0.2,0.1-0.2,0.1-0.1s0-0.1,0-0.2c0-0.1,0-0.2,0.1-0.1c0.1,0.1,0.1-0.1,0.1-0.2
			c0-0.1,0.1,0.3,0.1,0c0-0.3,0.2-0.5,0.2-0.3s0.1,0,0.2-0.2c0-0.2,0.2-0.2,0.2-0.1s-0.1,0.5,0,0.3c0.2-0.2,0.1,0,0.1,0.1
			c0,0.1-0.3,0.3-0.1,0.2c0.2-0.1,0.2,0,0.2,0.1s-0.3,0.3-0.1,0.3c0.2,0,0.2,0.1,0.1,0.2c-0.1,0.2,0.1,0.1,0.2,0.1
			c0.1-0.1,0.1,0.1,0,0.2c-0.1,0.1-0.2,0.4-0.1,0.3c0.2-0.1,0.1,0.1,0.1,0.1c0,0.1-0.4,0.4-0.1,0.3s0.2-0.1,0.2,0.1
			c-0.1,0.2-0.4,0.5-0.2,0.5c0.2,0,0.2,0.1,0.1,0.2s-0.2,0.3,0,0.2c0.2,0-0.1,0.2-0.1,0.2c0,0-0.2,0.2,0,0.2s0.1,0,0.1,0.2
			c-0.1,0.1-0.1,0.2,0.1,0.1s0.1,0.1,0.1,0.2s-0.3,0.3-0.1,0.3c0.2,0,0.1,0.1,0.1,0.2c0,0,0.2,0,0.2,0.2s-0.4,0.4-0.2,0.4
			c0.2,0,0,0.2,0,0.3c0,0.1-0.1,0.3,0,0.2c0.1-0.1,0.2-0.3,0.3-0.3c0.1,0,0.2,0,0.2,0c-0.1-0.1,0.1-0.1,0.2,0.1
			c0.1,0.1,0.2,0.3,0.2,0.2c0-0.1-0.1-0.2-0.1-0.3s-0.3-0.4-0.3-0.5s0-0.2,0.2,0.1s0.4,0.3,0.3,0.1s-0.3-0.8-0.1-0.4
			s0.3,0.2,0.1-0.1c-0.2-0.3-0.2-0.5,0-0.3s0.5,0.6,0.2,0.1c-0.2-0.5-0.5-0.7-0.2-0.5c0.3,0.2,0.2,0.2,0.2,0
			c-0.1-0.2-0.3-0.3-0.3-0.3c0,0-0.1-0.3,0.2,0c0.2,0.3,0.2,0.1,0.2,0c-0.1-0.1-0.7-0.8-0.2-0.5c0.5,0.4,0.1,0,0.1-0.1
			c0,0-0.3-0.6,0-0.2c0.4,0.4,0.1-0.1,0.1-0.1c-0.1,0-0.6-0.7-0.2-0.5s0.4,0.4,0.3,0.2s-0.3-0.3-0.3-0.4c0-0.1-0.3-0.5,0-0.3
			s0.4,0.4,0.3,0.2c-0.1-0.2-0.3-0.5-0.1-0.4s0-0.1,0-0.2c0-0.1-0.1-0.2,0.1-0.2c0.1,0,0.1-0.1,0.1-0.2s0.1-0.1,0.2,0
			c0,0.1,0,0.1,0.1,0.1s0,0.1,0,0.2c0,0.1,0.2,0,0.2,0s0.2-0.2,0.2-0.1c0.1,0.1-0.2,0.5-0.3,0.6c-0.1,0.1-0.1,0.4,0,0.3
			c0.1-0.1,0.2-0.4,0.3-0.5s0.1,0,0.1,0.2s-0.1,0.4-0.2,0.5s-0.2,0.3-0.1,0.3c0.1-0.1,0.3-0.6,0.3-0.6s0.2-0.3,0.2,0
			c0,0.4-0.4,0.7-0.4,0.7c0,0.1-0.2,0.2,0,0.2s0.4-0.5,0.4-0.5s0.2,0,0,0.3c-0.1,0.3-0.4,0.4-0.4,0.5c0,0.1-0.1,0.4,0.1,0.2
			c0.2-0.2,0.3-0.4,0.4-0.6c0-0.2,0.1,0,0.1,0.2c-0.1,0.1-0.2,0.5-0.4,0.7s-0.1,0.3,0,0.2c0.1-0.1,0.5-0.9,0.5-0.5
			c0,0.4-0.4,0.7-0.5,0.8s-0.1,0.3,0,0.1s0.4-0.6,0.4-0.3s-0.5,0.6-0.5,0.6s-0.1,0.2,0,0.2c0.2-0.1,0.8-1,0.6-0.4s-0.2,0.3-0.3,0.4
			c0,0.1,0.2,0.1,0.2,0.1s-0.1,0.2-0.2,0.2s-0.1,0.2,0,0.1c0.1,0,0.2,0,0.1,0.2c-0.2,0.2-0.3,0.5-0.1,0.2c0.2-0.2,0.4-0.2,0.2,0
			s-0.3,0.3-0.2,0.4c0.1,0.1-0.1,0.3,0.1,0.2s0.1-0.3,0.2-0.3s0.1,0.5,0.2,0s0.2-0.6,0.2-0.3s0.2,0,0.2-0.3s0.1-0.5,0.2-0.2
			s0.1,0.3,0.1,0s0.2-0.3,0.2,0c0,0.3,0.2,0,0.1-0.4c-0.1-0.3-0.1-0.9,0.2-0.3c0.2,0.6,0.2,0.2,0.2,0c0-0.2,0-0.5,0.2-0.2
			c0.1,0.3,0.1-0.3,0.1-0.4c0-0.2,0.2-0.2,0.2,0s0.2-0.1,0.1-0.3s0-0.3,0.1-0.3c0.1,0,0.2-0.4,0.2-0.2c0,0.2,0.1,0.1,0.2,0
			c0.1-0.1,0.2,0,0.2-0.1c0-0.2,0.1,0,0.1,0.3c0,0.3,0.1,0,0.2-0.1s0.2,0,0,0.5s0.1,0.1,0.1,0.1s-0.1,0.2-0.2,0.3
			c-0.1,0.1-0.1,0.2,0.1,0.2s0.1,0.1-0.2,0.2c-0.2,0.2-0.1,0.1,0,0.1c0.2,0,0,0.1-0.2,0.2s-0.3,0.3-0.1,0.3c0.2,0,0.1,0.2-0.2,0.2
			c-0.3,0.1-0.5,0.1-0.3,0.2c0.3,0.1,0.3,0.1,0.2,0.1c-0.2,0-0.3,0-0.3,0.2c0,0.2,0.1,0.2-0.1,0.2c-0.2,0.1-0.1,0-0.3,0
			s0.2,0.1,0.2,0.2c0.1,0.1-0.1,0.1-0.2,0.1c-0.1,0-0.3,0.1-0.1,0.2c0.2,0.1-0.2,0.2-0.3,0.2c-0.1,0-0.3,0.1-0.1,0.2
			c0.2,0.1-0.1,0.2-0.2,0.2s-0.3,0.1-0.1,0.1c0.2,0.1-0.1,0.1-0.2,0.1c-0.1,0-0.4,0-0.1,0.1c0.3,0.1-0.1,0.2-0.2,0.1
			c-0.1,0-0.2,0.2-0.2,0.2s-0.1,0.5,0,0.3s0.6-0.6,0.4-0.3s-0.2,0.5-0.1,0.3c0.2-0.2,0.4-0.7,0.4-0.4c0,0.3-0.2,0.5,0,0.3
			c0.2-0.2,0.2-0.7,0.3-0.4s0,0.4,0.2,0.2s0.1-0.1,0.1,0s0.1,0,0.1-0.1c0-0.2,0.2-0.4,0.2,0s0.1,0.1,0.2,0c0.1-0.1,0.2-0.4,0.2-0.1
			c0.1,0.3,0.2-0.1,0.2-0.2c0-0.1,0.2-0.3,0.2,0c0,0.3,0.2,0,0.2-0.2c0-0.1,0.2-0.2,0.2,0.1s0.1,0.2,0.2-0.1s0.2-0.5,0.2-0.1
			c0,0.3,0.1,0.1,0.2-0.1c0.1-0.2,0.3-0.7,0.2-0.1c0,0.5,0,0.3,0.1,0.1c0.1-0.2,0.2-0.5,0.2-0.2s0.2,0.1,0.2-0.1s0.1-0.5,0.2-0.2
			s0.1,0.1,0.2-0.1c0.1-0.1,0.3-0.2,0.3,0c0,0.1,0,0.2,0.1,0.1c0.2,0,0.1,0.2,0,0.2s-0.1,0.2,0.1,0.1c0.2,0,0,0.2-0.1,0.2
			c-0.1,0,0,0.1-0.2,0.2c-0.2,0-0.1,0.1-0.1,0.2s0,0.1-0.1,0.1c-0.1,0-0.1,0.1,0,0.2c0,0.1,0,0.1-0.2,0.1c-0.2,0-0.5,0-0.2,0.1
			c0.2,0.1,0.2,0.2,0,0.2c-0.2,0-0.3,0-0.2,0.1c0.1,0.1-0.1,0.2-0.3,0.2c-0.2,0-0.6-0.2-0.4,0s0.2,0.3,0.1,0.2c-0.2,0-0.7-0.1-0.5,0
			c0.2,0.1,0.3,0.3,0.1,0.3c-0.2,0-0.6-0.2-0.4,0c0.2,0.2,0.2,0.3,0,0.3c-0.2,0-0.5-0.2-0.4-0.1s-0.1,0.2-0.2,0.2
			c-0.1,0-0.3,0.1,0,0.1s-0.1,0.1-0.4,0s-0.6-0.1-0.2,0.1c0.3,0.2-0.1,0.2-0.2,0.1s-0.5-0.2-0.3,0s-0.2,0.1-0.3,0
			c-0.1,0-0.4,0-0.2,0.1c0.2,0.1-0.1,0.2-0.2,0c-0.1-0.1-0.2,0-0.1,0.1c0.1,0.1-0.1,0-0.3-0.1s-0.4-0.1-0.3,0c0.1,0.1-0.2,0-0.3-0.1
			c-0.1-0.1-0.3,0.2-0.2,0.2c0.1,0,0.1,0.1-0.1,0.2s0,0.1,0.2,0s0.1,0.2,0,0.2s-0.2,0.2,0,0.2c0.3,0,0.4-0.1,0.3,0.1
			c-0.1,0.2-0.1,0.2,0.1,0.1c0.2-0.1,0.4,0,0.3,0.1c-0.1,0.1,0,0.2,0.1,0.1c0.2-0.1,0.2-0.1,0.1,0.1s0,0.2,0.2,0
			c0.2-0.2,0.4-0.1,0.3,0c-0.2,0.2-0.1,0.2,0.1,0.1c0.2-0.1,0.3-0.1,0.2,0.1s-0.1,0.3,0.2,0.1c0.2-0.2,0.3-0.1,0.2,0s0,0.2,0.2-0.1
			c0.2-0.3,0.3-0.1,0.2,0s0,0.2,0.1,0c0.1-0.2,0.3,0,0.2,0c-0.1,0.1,0.1,0.2,0.2,0s0.3-0.2,0.2,0c-0.1,0.2,0.1,0.2,0.2,0
			c0.1-0.2,0.3-0.2,0.3-0.1c-0.1,0.2,0.1,0.1,0.2,0s0.3-0.1,0.2,0s0.1,0.1,0.2-0.1c0.1-0.2,0.2-0.2,0.2-0.1s0.1,0,0.2-0.1
			c0.1-0.1,0.2-0.1,0.2,0c0,0.1,0.2-0.1,0.2,0.2c-0.1,0.3-0.1,0.2-0.1,0.3s-0.1,0.1-0.1,0.1s-0.1,0.1-0.1,0.1s-0.1,0.2-0.2,0.1
			s-0.5,0-0.2,0.1c0.3,0.1,0.1,0.2,0,0.2c-0.1,0,0.2,0.2-0.2,0.1c-0.5-0.1-0.3,0-0.1,0.1s0.1,0.2-0.5-0.1c-0.5-0.3-0.8-0.2-0.3,0
			c0.4,0.2,0.7,0.5,0.1,0.2c-0.6-0.2-0.3,0-0.2,0.1c0.1,0,0.4,0.3-0.2,0c-0.6-0.3-0.6-0.3-0.3-0.1c0.3,0.2,0.2,0.5-0.3,0
			c-0.5-0.5-0.7-0.6-0.6-0.4c0.1,0.2,0.8,0.8,0.2,0.5c-0.6-0.3-0.6-1-0.7-0.6c-0.1,0.4,0.2,0.3,0.4,0.5c0.2,0.2-0.1,0.2-0.3,0
			c-0.2-0.2-0.3-0.2-0.3-0.6s-0.2-0.1-0.2-0.1s0,0.5,0.3,0.7c0.3,0.2-0.3-0.1-0.3-0.1c0,0-0.2-0.3-0.2-0.2c0,0.2-0.1,0-0.2,0
			c-0.1-0.1-0.4-0.1-0.3,0c0.1,0.1,0.2,0.2,0.4,0.2c0.2,0,0.1,0.1-0.1,0.1c-0.2,0-0.4,0.1-0.1,0.1s0.5,0.2,0.4,0.2s-0.1,0.1,0.1,0.1
			c0.2,0,0.4,0.2,0.2,0.2s-0.3,0.2,0,0.2s0.5,0.1,0.4,0.2s-0.1,0.1,0.1,0.1s0.1,0.1-0.1,0.2c-0.2,0,0.1,0.1,0.3,0.1
			c0.2,0,0.4,0.1,0.3,0.1c-0.1,0-0.1,0.1,0.1,0.1c0.2,0,0.5,0.1,0.4,0.1c-0.2,0-0.1,0.2,0.1,0.2s0.3,0,0.2,0.1s0,0.1,0.2,0.1
			c0.2,0,0.6,0,0.4,0.1c-0.2,0-0.3,0.2-0.2,0.2c0.1,0-0.1,0.1-0.2,0.2c-0.1,0-0.2,0.1-0.2,0.2c0,0-0.1,0-0.2,0s-0.2-0.1-0.2,0
			c0,0.1,0,0.1-0.1,0c-0.1-0.1-0.2-0.1-0.2,0c0,0.1-0.1,0-0.2-0.1c-0.1-0.1-0.2-0.2-0.2-0.1s-0.2,0.2-0.2,0.1c0-0.1-0.2-0.5-0.2-0.3
			s-0.1,0.3-0.2,0.2c-0.1-0.2,0-0.5-0.1-0.4c-0.1,0,0,0.2,0,0.3c0,0.1-0.2,0.3-0.2,0c-0.1-0.3,0.1-0.7,0-0.6s-0.1,0.2-0.1,0.4
			s-0.1,0.1-0.2-0.1c0-0.2,0-0.7,0-0.4c-0.1,0.3-0.1,0.8-0.2,0.4s0.1-1,0-0.8s-0.1,0.2-0.1,0.4s-0.1,0.2-0.2,0s0-0.9,0-0.8
			c0,0.1,0,0.3-0.1,0.4s-0.1-0.3-0.1-0.2s0.1-0.5,0.1-0.4s-0.2-0.1-0.2,0.2s-0.1,0-0.2-0.1c-0.1-0.1-0.2,0.1-0.2-0.3
			c-0.1-0.4-0.1-0.5-0.2-0.4s-0.2,0-0.2-0.2c0-0.1-0.2-0.2-0.2-0.2c0,0.1-0.2,0-0.2,0.2c0,0.1-0.1,0.1-0.2-0.2s-0.2-0.1-0.1,0.2
			s0.1,0.6,0,0.5c-0.1-0.1-0.1,0.1-0.1,0.2s0,0.3,0,0.3s-0.1-0.1-0.1,0.2c0,0.3-0.1,0.4-0.1,0.1s0-0.7-0.1-0.8s-0.2-0.1-0.1,0.1
			s0.2,0.5,0.2,0.9c0,0.4-0.1,0.5-0.2,0.2c0-0.3,0.1-0.7-0.1-0.8s-0.2-0.1-0.2,0.1c0,0.2,0.2,0.3,0.1,0.7c-0.1,0.4-0.2,0.5-0.2,0.3
			s0.1-0.6,0-0.7s-0.1,0-0.1,0.2c0.1,0.2,0.1,0.6,0.1,0.8c0,0.2-0.2,0.3-0.2,0.1c0-0.2,0,0.2,0,0.3c0,0.1-0.1,0.4-0.2,0.2
			c0-0.2-0.1-0.2-0.1,0s0,0.7-0.1,0.4c-0.1-0.2-0.2-0.3-0.2-0.2c0,0.1,0,0.4-0.1,0.4c-0.1-0.1-0.2-0.1-0.2,0c0,0.1,0,0.1-0.1,0
			C98.7,628,98.5,628.2,98.5,628.2L98.5,628.2L98.5,628.2z"/>
		<path id="path20" class="st2" d="M89,611.6c0.3-1,0.7-1.4,1.1-1.9c-0.2-0.7-2.2-2.3-3.1-3.7c-0.4,0.9-0.7,1-1.1,1.9
			C87,609.8,88.2,610.3,89,611.6L89,611.6z"/>
		<path id="path22" class="st2" d="M112.6,611.6c-0.3-1-0.7-1.4-1.1-1.9c0.2-0.7,2.2-2.3,3.1-3.7c0.4,0.9,0.7,1,1.1,1.9
			C114.6,609.8,113.4,610.3,112.6,611.6L112.6,611.6z"/>
		<path id="path24" class="st3" d="M87.6,609.3c0.2,0.2,0.6,0.4,0.9,0.1c0.2-0.4,0-0.8-0.2-1c0,0.2,0.1,0.5-0.1,0.8
			C88,609.3,87.9,609.3,87.6,609.3L87.6,609.3z"/>
		<path id="path26" class="st3" d="M114,609.3c-0.2,0.2-0.6,0.4-0.9,0.1c-0.2-0.4,0-0.8,0.2-1c0,0.2-0.1,0.5,0.1,0.8
			C113.6,609.3,113.7,609.3,114,609.3L114,609.3z"/>
		<path id="path28" class="st0" d="M89.7,614.5l11.1-19.7v-1.5l-11.4,20.9C89.5,614.4,89.6,614.4,89.7,614.5L89.7,614.5z"/>
		<path id="path30" class="st0" d="M111.9,614.5l-11.1-19.7v-1.5l11.4,20.9C112.1,614.4,112,614.4,111.9,614.5L111.9,614.5z"/>
		<path id="path32" class="st0" d="M89.2,615c-0.3-0.2-0.4-0.4-0.3-0.6c0.1-0.2,0.4-0.2,0.7,0c0.3,0.2,0.4,0.4,0.3,0.6
			C89.7,615.1,89.5,615.1,89.2,615L89.2,615L89.2,615z"/>
		<path id="path34" class="st0" d="M112.4,615c0.3-0.2,0.4-0.4,0.3-0.6c-0.1-0.2-0.4-0.2-0.7,0c-0.3,0.2-0.4,0.4-0.3,0.6
			C111.9,615.1,112.1,615.1,112.4,615L112.4,615L112.4,615z"/>
		<path id="path36" class="st0" d="M100.6,613.5c-0.1-6.8-0.2-12.8-0.3-19.7c-0.3-1.1-0.8-1.8-1.8-1.8c-0.2,0-0.2-0.1-0.2-0.2
			c0-0.1,0-0.3,0-0.4c0-0.2,0.1-0.3,0.2-0.2c0.8,0.1,1.5-0.2,2.3-0.3c0.8,0,1.5,0.4,2.3,0.3c0.2,0,0.2,0.1,0.2,0.2
			c0,0.1,0,0.3,0,0.4c0,0.2-0.1,0.2-0.2,0.2c-1,0.1-1.5,0.8-1.8,1.8c-0.1,6.8-0.2,12.8-0.3,19.7H100.6L100.6,613.5z"/>
		<path id="path38" class="st4" d="M98.5,628.2c0,0-0.1,0-0.1-0.2c0-0.1-0.2,0-0.2,0c0,0-0.1,0,0-0.1s0.1-0.1,0.1-0.1
			c0-0.1,0-0.2,0-0.1c0,0-0.1,0-0.1,0c0,0,0.1,0,0.2-0.2c0.1-0.1,0-0.1,0-0.1s-0.1,0-0.1,0c0,0,0-0.1,0.1-0.1c0.1,0,0.2-0.1,0.2-0.1
			c0.1,0,0-0.1,0-0.1s-0.1,0.1-0.2,0c0-0.1,0.1-0.2,0.1-0.2s0.2-0.2,0.3-0.2c0.1,0,0.1-0.1,0.1-0.1c-0.1,0-0.2,0-0.2,0
			c-0.1,0-0.1-0.1-0.1-0.1s0.2-0.1,0.3-0.1s0.1-0.1,0.1-0.1s-0.2,0-0.3,0s-0.2,0-0.1-0.1c0.1-0.1,0.3,0,0.3-0.2
			c0-0.1-0.1-0.1-0.2-0.1c-0.1,0-0.1-0.1,0-0.1c0.1,0,0.3-0.2,0.3-0.2s0.1-0.1,0.1-0.1c-0.1,0-0.2,0-0.2,0c0,0-0.2,0,0-0.1
			c0.2-0.1,0.1-0.1,0.2-0.1s0-0.2,0-0.1s-0.1-0.1,0-0.1c0.1,0,0.2-0.1,0.2-0.1c0,0-0.1-0.1,0-0.2c0.1,0,0.3,0,0.2-0.1
			c-0.1-0.1,0,0,0.1-0.1c0.1,0,0-0.1,0-0.1s-0.3,0.1-0.3,0.1c0-0.1,0-0.1,0-0.1s0.2,0,0.3-0.1c0.1-0.1,0.1-0.1,0-0.1s-0.1,0.1-0.2,0
			s0.1-0.2,0-0.3c0-0.1-0.1,0-0.1,0.1c0,0.2-0.1,0.3-0.1,0.3s-0.1-0.1-0.1,0.1c0,0.2-0.1,0.1-0.1,0c0-0.1,0.1-0.2,0-0.2
			c-0.1,0-0.2,0.2-0.2,0.3s-0.1,0.1-0.1,0s0.1-0.3,0.2-0.5c0.1-0.1,0.2-0.3,0.2-0.4c-0.1,0-0.1,0-0.1,0s-0.3,0.7-0.4,0.9
			c-0.1,0.2-0.2,0.2-0.2,0c0-0.1,0.2-0.4,0.2-0.6c-0.1-0.2-0.1,0-0.1,0s-0.1,0.5-0.4,0.8c-0.2,0.3-0.2,0.1-0.2,0
			c0.1-0.1,0.3-0.4,0.3-0.6c0-0.2-0.1-0.1-0.1,0c0,0.1-0.2,0.7-0.5,1c-0.3,0.2-0.2,0-0.2,0c0.1,0,0.4-0.4,0.4-0.6
			c0-0.3-0.1-0.1-0.1,0c0,0.1-0.1,0.5-0.5,0.8c-0.3,0.3-0.2-0.1-0.2,0s0.4-0.3,0.4-0.6c0-0.2-0.1-0.2-0.1-0.1c0,0-0.2,0.5-0.4,0.7
			s-0.2,0.2-0.3,0.2c-0.1,0-0.2,0-0.2,0c0,0.1-0.3,0.2-0.2,0s-0.2,0-0.2,0c0,0-0.3,0.2-0.2,0c0.1-0.2,0.5-0.2,0.5-0.5
			c0-0.2,0.1-0.2-0.1-0.1c-0.2,0.1-0.2,0.4-0.6,0.5c-0.3,0.1,0-0.2,0-0.2s0.3-0.2,0.1-0.2c-0.2,0-0.2,0.1-0.2,0.2s-0.2,0.2-0.3,0.2
			s0.1-0.1,0-0.1c-0.1,0-0.3,0.1-0.3-0.1s-0.1-0.1-0.1-0.1c-0.1,0-0.1,0-0.1-0.1c0,0-0.2,0-0.2-0.1s0.1-0.1,0.1-0.1
			c0.1,0,0.1,0,0-0.1s-0.1-0.2,0.1-0.2s0.2,0.1,0.3,0.1c0.1,0,0.1,0,0.1,0s-0.1-0.2,0-0.2s0.4,0.2,0.5,0.2c0.1-0.1,0.1-0.1,0-0.2
			c-0.1-0.1,0-0.1,0.1-0.1c0.1,0,0.3,0.2,0.4,0.1c0.1-0.1,0-0.1,0-0.1c-0.1,0-0.1-0.1,0-0.1s0.2,0,0.3,0s0.1,0.1,0.2,0
			c0.1-0.1,0.2-0.1,0-0.1c-0.1,0-0.2-0.2,0-0.2c0.1,0,0.3,0.1,0.5,0.1c0.2,0,0.2,0,0.1-0.1c-0.1-0.1-0.2-0.1-0.2-0.2
			s0.1-0.1,0.2-0.1c0.1,0,0.2,0.1,0.2,0.1c0.1,0,0.1,0,0.1-0.1c-0.1-0.1-0.1,0-0.1-0.1c0-0.1,0-0.1,0.1-0.1c0.1,0,0.3,0,0.3,0
			s0.2,0,0.1,0c-0.1,0-0.3-0.1-0.2-0.2c0.1,0,0.2,0,0.3,0c0.1,0,0.2-0.1,0.2-0.1s-0.2-0.1,0-0.1c0.2,0,0.3,0,0.3-0.1s-0.1,0-0.2-0.1
			c-0.1-0.1,0.3-0.4,0.5-0.7c0.2-0.3,0.2-0.1,0.1-0.2c-0.1-0.1-0.2-0.1-0.2,0c0,0.1-0.1,0.3-0.4,0.5c-0.2,0.2-0.2,0.3-0.3,0.3
			s-0.1-0.1,0-0.2s0.4-0.3,0.4-0.5c0.1-0.2-0.2-0.1-0.2-0.1s-0.1,0.4-0.4,0.6c-0.3,0.3-0.6,0.3-0.5,0.2c0.1-0.1,0.5-0.3,0.6-0.6
			c0.1-0.3-0.2-0.1-0.2-0.1c0,0-0.2,0.4-0.5,0.6c-0.3,0.2-0.5,0.2-0.4,0s-0.1-0.1-0.1-0.1s-0.2,0.2-0.3,0.1c-0.1,0-0.1,0-0.1-0.1
			c0.1-0.1-0.1,0-0.2,0c-0.1,0-0.2,0.1-0.2,0c0-0.1-0.2,0-0.2,0c-0.1,0-0.4,0.1-0.4,0s0.2-0.2,0-0.2s-0.3,0-0.2-0.1
			c0.1-0.1,0.3,0,0.5-0.3c0.2-0.3-0.1-0.1-0.1-0.1s-0.1,0.2-0.3,0.2c-0.2,0.1-0.3,0.2-0.5,0.2c-0.2,0-0.3-0.1-0.2-0.1
			s0.5-0.1,0.6-0.3s-0.2-0.1-0.2,0c0,0.1-0.4,0.1-0.4,0.1s-0.6,0-0.2-0.2c0.4-0.2,0.7-0.3,0.2-0.2s-1,0.1-0.7,0
			c0.3-0.1-0.1,0-0.2-0.1s-0.2-0.1-0.1-0.2s-0.2,0,0-0.1c0.2-0.1-0.2-0.1,0.1-0.2c0.3,0-0.4-0.2-0.2-0.2c0.2,0-0.3-0.3,0.1-0.2
			s0,0,0.2-0.1s0.1,0.2,0.2,0.2s0.2,0.3,0.2,0.1s-0.1-0.3,0.2,0c0.2,0.3,0.2,0.1,0.2,0c0-0.1,0-0.2,0.1-0.1s0-0.2,0.1-0.1
			s0.1,0.3,0.2,0.4c0.1,0.1,0.2,0.2,0.2,0c-0.1-0.2,0-0.4,0.1-0.1s0.2,0.3,0.2,0.2c0-0.2,0-0.3,0.1-0.1c0.1,0.2,0.2,0.2,0.2,0.1
			c-0.1-0.2,0.1-0.1,0.1,0s0.1,0,0.1-0.1c0-0.1,0.2,0.3,0.3,0.3s0.3,0.3,0.1-0.1c-0.2-0.4,0.1-0.1,0.1-0.1s0.5,0.5,0.3,0.2
			s-0.1-0.4,0.1-0.3c0.2,0.1,0.3,0.5,0.2,0.2s-0.1-0.4,0.1-0.2c0.2,0.2,0.6,0.7,0.4,0.2c-0.2-0.4,0.2-0.1,0.2,0
			c0.1,0.1,0.3,0.2,0.1-0.1c-0.2-0.2,0.2-0.1,0.2,0c0.1,0.1,0.3,0.3,0.2,0c-0.2-0.3-0.1-0.2,0.1-0.1c0.2,0.1,0.2,0,0.1-0.1
			c-0.1-0.1-0.2,0-0.1-0.2c0.1-0.2-0.1-0.1-0.2-0.1c-0.1,0,0.1-0.1-0.1-0.2c-0.2,0-0.8-0.1-0.5-0.2c0.3-0.2-0.1,0-0.1-0.1
			s-0.3-0.1-0.2-0.1S97,620,97,620c-0.1,0-0.7-0.1-0.3-0.2c0.3,0,1,0.1,1.1,0s-0.3-0.1-0.4-0.1s-1.5-0.1-0.9-0.2s0.7,0,0.7,0
			c0.1-0.1-0.3-0.1-0.4-0.1s-0.9-0.1-0.6-0.2c0.3,0,0.3-0.1,0.1-0.1c-0.2,0-0.6-0.2-0.2-0.2s1,0,0.4-0.1c-0.5-0.1-0.5,0-0.8-0.1
			s-0.4-0.2,0.4-0.2s0.1-0.1,0.2-0.1c0,0-0.7,0-1-0.1c-0.3-0.1-0.2-0.2-0.3-0.3s-0.3-0.3,0.2-0.2c0.5,0.1-0.2-0.2-0.3-0.2
			c-0.1,0-0.8-0.5,0.1-0.2c0.9,0.4,0.3,0.1,0.3,0c-0.1-0.1-0.8-0.3-0.8-0.3s-0.1-0.2,0.1-0.1c0.2,0,0.4,0.3,0.5,0.2
			c0.1-0.1-0.2-0.2-0.4-0.3c-0.2-0.1-0.6-0.5,0.1-0.2c0.7,0.3,0.1-0.1,0.1-0.1c-0.1,0-0.4-0.1-0.6-0.3c-0.1-0.2-0.1-0.4,0.1-0.3
			s0.2,0.1,0.1-0.1s-0.1-0.4-0.1-0.5c0.1-0.1,0.1-0.1,0.2,0.2c0,0.3,0.1,0.2,0.1,0.1s0.1,0,0.1,0.1c0,0.2,0.2,0.2,0.2,0.1
			c0-0.1,0.1-0.2,0.1,0.2c0.1,0.3,0.1,0.3,0.1,0.2c0-0.2,0.1-0.4,0.2,0c0,0.5,0.1,0.4,0.1,0.2s0.1-0.3,0.2,0.1
			c0.1,0.4,0,0.7,0.1,0.3c0.1-0.4,0.2,0.1,0.2,0.2c0,0.2,0.1,0.4,0.1,0.1s0.1-0.5,0.2,0c0.1,0.4,0.1,0.6,0.1,0.3s0.1-0.1,0.2,0
			c0,0.1,0.2,0.9,0.2,0.4s0.2-0.1,0.2,0s0.2,0.7,0.2,0.1c0-0.6,0.2,0.1,0.2,0.1c0,0,0.1,0.7,0.2,0.2s0.2,0,0.2,0.1s0.2,0.7,0.2,0.2
			c0-0.6,0.1-0.1,0.1-0.1s0.1,0.6,0.1,0.2s0.1,0.2,0.1,0.2c0,0,0.1,0,0.1,0.2c0,0.2,0.1,0,0.1,0s-0.1-0.3,0.1-0.2
			c0.2,0.1,0.1,0,0.1-0.1c0-0.1,0.4,0.2,0.6,0.3c0.2,0,0.3,0,0.1-0.1s-0.7-0.4-0.8-0.5s-0.1-0.3,0-0.2c0.1,0.1,0.1,0,0-0.1
			c-0.1,0-0.2-0.4,0-0.2s0.1,0.2,0.5,0.3s0.1-0.1,0-0.1s-0.6-0.2-0.8-0.5s0-0.2,0-0.2c0,0,0.2,0.3,0.5,0.4s0.3,0.1,0.2,0
			s-0.3-0.1-0.4-0.2s-0.4-0.3-0.5-0.5c-0.1-0.2-0.1-0.2,0-0.2c0.2,0,0.4,0.5,0.7,0.5c0.2,0,0.1-0.2,0-0.2s-0.2,0-0.3-0.1
			c-0.2-0.1-0.3-0.2-0.4-0.4c-0.1-0.2-0.1,0,0.1,0s0.1,0.3,0.4,0.3s0.2-0.2,0.1-0.2c-0.1,0-0.5-0.2-0.7-0.5
			c-0.2-0.3,0.1-0.2,0.1-0.2s0.2,0.2,0.4,0.4c0.3,0.1,0.1-0.1,0.1-0.1c0,0-0.5-0.2-0.7-0.5c-0.2-0.4,0.1-0.2,0.1-0.2
			c0,0.1,0.2,0.3,0.4,0.4s0.1-0.1,0-0.2s-0.5-0.1-0.6-0.5s0.1-0.1,0.1-0.1s0.1,0.3,0.4,0.4c0.3,0,0.2,0,0-0.2
			c-0.2-0.2-0.5-0.3-0.5-0.5s0-0.3,0.1-0.1s0.4,0.3,0.4,0.3s0.2,0,0-0.1c-0.2-0.1-0.5-0.4-0.5-0.5s-0.1-0.3,0.2-0.1
			c0.2,0.3,0.1,0,0.1-0.1c-0.1-0.1-0.2-0.5,0.1-0.2c0.2,0.3,0,0.3,0.2,0.2c0.1-0.1,0.1-0.1,0.1-0.2c0-0.1-0.1,0-0.2-0.2
			c-0.1-0.2-0.3-0.3-0.1-0.4c0.2,0,0.1-0.2,0.1-0.3s0.1-0.2,0.2-0.1c0.1,0.1,0.1-0.2,0.1-0.3s0.1,0,0.1,0s0,0.3,0.1,0.2
			c0.1-0.1,0.2-0.1,0.2,0c0,0.1-0.2,0.5,0,0.4c0.2-0.2,0,0.2,0,0.2c0,0,0,0.3,0.1,0c0.1-0.3,0.1,0.2,0.1,0.2c0,0.1,0,0.2,0.1,0
			c0.1-0.2,0,0,0,0.3c-0.1,0.3-0.1,0.5,0,0.4c0.2-0.1,0.3-0.2,0.2,0c-0.1,0.2-0.3,0.8-0.1,0.6s0.2-0.2,0.2,0c0,0.2,0,0.2,0.1,0.1
			c0.1-0.1,0.1,0.2,0.1,0.2c-0.1,0.1-0.2,0.4-0.1,0.3c0.1-0.1,0.1,0.1,0.1,0.1c0,0.1,0.1,0.1,0.1,0c0.1,0,0,0.2,0,0.3
			s-0.2,0.4,0,0.3c0.1-0.1,0.1-0.1,0.2,0s0.1,0.1,0-0.1c0-0.1-0.1-0.4,0-0.3c0.2,0.1,0-0.1,0-0.2c0-0.1-0.1-0.3,0.1-0.2
			c0.2,0.1,0-0.1,0-0.2c0-0.1-0.1-0.5,0.1-0.2s0.2,0.3,0.1,0.1c-0.1-0.2-0.2-0.5-0.2-0.5c0-0.1,0.2,0.1,0.3,0.5
			c0.2,0.4,0.4,0.5,0.3,0.4c-0.1-0.2-0.3-0.5-0.4-0.8c-0.1-0.2-0.3-0.8-0.1-0.7c0.2,0.2,0.1-0.1,0-0.2c0-0.1-0.1-0.3,0-0.2
			c0.1,0.1,0.1-0.1,0.1-0.2c0-0.1,0.1-0.2,0-0.4c0-0.2,0.1-0.2,0.1-0.1s0-0.1,0-0.2c0-0.1,0-0.2,0.1-0.1c0.1,0.1,0.1-0.1,0.1-0.2
			c0-0.1,0.1,0.3,0.1,0c0-0.3,0.2-0.5,0.2-0.3s0.1,0,0.2-0.2c0-0.2,0.2-0.2,0.2-0.1s-0.1,0.5,0,0.3c0.2-0.2,0.1,0,0.1,0.1
			c0,0.1-0.3,0.3-0.1,0.2c0.2-0.1,0.2,0,0.2,0.1s-0.3,0.3-0.1,0.3c0.2,0,0.2,0.1,0.1,0.2c-0.1,0.2,0.1,0.1,0.2,0.1
			c0.1-0.1,0.1,0.1,0,0.2c-0.1,0.1-0.2,0.4-0.1,0.3c0.2-0.1,0.1,0.1,0.1,0.1c0,0.1-0.4,0.4-0.1,0.3s0.2-0.1,0.2,0.1
			c-0.1,0.2-0.4,0.5-0.2,0.5c0.2,0,0.2,0.1,0.1,0.2s-0.2,0.3,0,0.2c0.2,0-0.1,0.2-0.1,0.2c0,0-0.2,0.2,0,0.2s0.1,0,0.1,0.2
			c-0.1,0.1-0.1,0.2,0.1,0.1s0.1,0.1,0.1,0.2s-0.3,0.3-0.1,0.3c0.2,0,0.1,0.1,0.1,0.2c0,0,0.2,0,0.2,0.2s-0.4,0.4-0.2,0.4
			c0.2,0,0,0.2,0,0.3c0,0.1-0.1,0.3,0,0.2c0.1-0.1,0.2-0.3,0.3-0.3c0.1,0,0.2,0,0.2,0c-0.1-0.1,0.1-0.1,0.2,0.1
			c0.1,0.1,0.2,0.3,0.2,0.2c0-0.1-0.1-0.2-0.1-0.3s-0.3-0.4-0.3-0.5s0-0.2,0.2,0.1s0.4,0.3,0.3,0.1s-0.3-0.8-0.1-0.4
			s0.3,0.2,0.1-0.1c-0.2-0.3-0.2-0.5,0-0.3s0.5,0.6,0.2,0.1c-0.2-0.5-0.5-0.7-0.2-0.5c0.3,0.2,0.2,0.2,0.2,0
			c-0.1-0.2-0.3-0.3-0.3-0.3c0,0-0.1-0.3,0.2,0c0.2,0.3,0.2,0.1,0.2,0c-0.1-0.1-0.7-0.8-0.2-0.5c0.5,0.4,0.1,0,0.1-0.1
			c0,0-0.3-0.6,0-0.2c0.4,0.4,0.1-0.1,0.1-0.1c-0.1,0-0.6-0.7-0.2-0.5s0.4,0.4,0.3,0.2s-0.3-0.3-0.3-0.4c0-0.1-0.3-0.5,0-0.3
			s0.4,0.4,0.3,0.2c-0.1-0.2-0.3-0.5-0.1-0.4s0-0.1,0-0.2c0-0.1-0.1-0.2,0.1-0.2c0.1,0,0.1-0.1,0.1-0.2s0.1-0.1,0.2,0
			c0,0.1,0,0.1,0.1,0.1s0,0.1,0,0.2c0,0.1,0.2,0,0.2,0s0.2-0.2,0.2-0.1c0.1,0.1-0.2,0.5-0.3,0.6c-0.1,0.1-0.1,0.4,0,0.3
			c0.1-0.1,0.2-0.4,0.3-0.5s0.1,0,0.1,0.2s-0.1,0.4-0.2,0.5s-0.2,0.3-0.1,0.3c0.1-0.1,0.3-0.6,0.3-0.6s0.2-0.3,0.2,0
			c0,0.4-0.4,0.7-0.4,0.7c0,0.1-0.2,0.2,0,0.2s0.4-0.5,0.4-0.5s0.2,0,0,0.3c-0.1,0.3-0.4,0.4-0.4,0.5c0,0.1-0.1,0.4,0.1,0.2
			c0.2-0.2,0.3-0.4,0.4-0.6c0-0.2,0.1,0,0.1,0.2c-0.1,0.1-0.2,0.5-0.4,0.7s-0.1,0.3,0,0.2c0.1-0.1,0.5-0.9,0.5-0.5
			c0,0.4-0.4,0.7-0.5,0.8s-0.1,0.3,0,0.1s0.4-0.6,0.4-0.3s-0.5,0.6-0.5,0.6s-0.1,0.2,0,0.2c0.2-0.1,0.8-1,0.6-0.4s-0.2,0.3-0.3,0.4
			c0,0.1,0.2,0.1,0.2,0.1s-0.1,0.2-0.2,0.2s-0.1,0.2,0,0.1c0.1,0,0.2,0,0.1,0.2c-0.2,0.2-0.3,0.5-0.1,0.2c0.2-0.2,0.4-0.2,0.2,0
			s-0.3,0.3-0.2,0.4c0.1,0.1-0.1,0.3,0.1,0.2s0.1-0.3,0.2-0.3s0.1,0.5,0.2,0s0.2-0.6,0.2-0.3s0.2,0,0.2-0.3s0.1-0.5,0.2-0.2
			s0.1,0.3,0.1,0s0.2-0.3,0.2,0c0,0.3,0.2,0,0.1-0.4c-0.1-0.3-0.1-0.9,0.2-0.3c0.2,0.6,0.2,0.2,0.2,0c0-0.2,0-0.5,0.2-0.2
			c0.1,0.3,0.1-0.3,0.1-0.4c0-0.2,0.2-0.2,0.2,0s0.2-0.1,0.1-0.3s0-0.3,0.1-0.3c0.1,0,0.2-0.4,0.2-0.2c0,0.2,0.1,0.1,0.2,0
			c0.1-0.1,0.2,0,0.2-0.1c0-0.2,0.1,0,0.1,0.3c0,0.3,0.1,0,0.2-0.1s0.2,0,0,0.5s0.1,0.1,0.1,0.1s-0.1,0.2-0.2,0.3
			c-0.1,0.1-0.1,0.2,0.1,0.2s0.1,0.1-0.2,0.2c-0.2,0.2-0.1,0.1,0,0.1c0.2,0,0,0.1-0.2,0.2s-0.3,0.3-0.1,0.3c0.2,0,0.1,0.2-0.2,0.2
			c-0.3,0.1-0.5,0.1-0.3,0.2c0.3,0.1,0.3,0.1,0.2,0.1c-0.2,0-0.3,0-0.3,0.2c0,0.2,0.1,0.2-0.1,0.2c-0.2,0.1-0.1,0-0.3,0
			s0.2,0.1,0.2,0.2c0.1,0.1-0.1,0.1-0.2,0.1c-0.1,0-0.3,0.1-0.1,0.2c0.2,0.1-0.2,0.2-0.3,0.2c-0.1,0-0.3,0.1-0.1,0.2
			c0.2,0.1-0.1,0.2-0.2,0.2s-0.3,0.1-0.1,0.1c0.2,0.1-0.1,0.1-0.2,0.1c-0.1,0-0.4,0-0.1,0.1c0.3,0.1-0.1,0.2-0.2,0.1
			c-0.1,0-0.2,0.2-0.2,0.2s-0.1,0.5,0,0.3s0.6-0.6,0.4-0.3s-0.2,0.5-0.1,0.3c0.2-0.2,0.4-0.7,0.4-0.4c0,0.3-0.2,0.5,0,0.3
			c0.2-0.2,0.2-0.7,0.3-0.4s0,0.4,0.2,0.2s0.1-0.1,0.1,0s0.1,0,0.1-0.1c0-0.2,0.2-0.4,0.2,0s0.1,0.1,0.2,0c0.1-0.1,0.2-0.4,0.2-0.1
			c0.1,0.3,0.2-0.1,0.2-0.2c0-0.1,0.2-0.3,0.2,0c0,0.3,0.2,0,0.2-0.2c0-0.1,0.2-0.2,0.2,0.1s0.1,0.2,0.2-0.1s0.2-0.5,0.2-0.1
			c0,0.3,0.1,0.1,0.2-0.1c0.1-0.2,0.3-0.7,0.2-0.1c0,0.5,0,0.3,0.1,0.1c0.1-0.2,0.2-0.5,0.2-0.2s0.2,0.1,0.2-0.1s0.1-0.5,0.2-0.2
			s0.1,0.1,0.2-0.1c0.1-0.1,0.3-0.2,0.3,0c0,0.1,0,0.2,0.1,0.1c0.2,0,0.1,0.2,0,0.2s-0.1,0.2,0.1,0.1c0.2,0,0,0.2-0.1,0.2
			c-0.1,0,0,0.1-0.2,0.2c-0.2,0-0.1,0.1-0.1,0.2s0,0.1-0.1,0.1c-0.1,0-0.1,0.1,0,0.2c0,0.1,0,0.1-0.2,0.1c-0.2,0-0.5,0-0.2,0.1
			c0.2,0.1,0.2,0.2,0,0.2c-0.2,0-0.3,0-0.2,0.1c0.1,0.1-0.1,0.2-0.3,0.2c-0.2,0-0.6-0.2-0.4,0s0.2,0.3,0.1,0.2c-0.2,0-0.7-0.1-0.5,0
			c0.2,0.1,0.3,0.3,0.1,0.3c-0.2,0-0.6-0.2-0.4,0c0.2,0.2,0.2,0.3,0,0.3c-0.2,0-0.5-0.2-0.4-0.1s-0.1,0.2-0.2,0.2
			c-0.1,0-0.3,0.1,0,0.1s-0.1,0.1-0.4,0s-0.6-0.1-0.2,0.1c0.3,0.2-0.1,0.2-0.2,0.1s-0.5-0.2-0.3,0s-0.2,0.1-0.3,0
			c-0.1,0-0.4,0-0.2,0.1c0.2,0.1-0.1,0.2-0.2,0c-0.1-0.1-0.2,0-0.1,0.1c0.1,0.1-0.1,0-0.3-0.1s-0.4-0.1-0.3,0c0.1,0.1-0.2,0-0.3-0.1
			c-0.1-0.1-0.3,0.2-0.2,0.2c0.1,0,0.1,0.1-0.1,0.2s0,0.1,0.2,0s0.1,0.2,0,0.2s-0.2,0.2,0,0.2c0.3,0,0.4-0.1,0.3,0.1
			c-0.1,0.2-0.1,0.2,0.1,0.1c0.2-0.1,0.4,0,0.3,0.1c-0.1,0.1,0,0.2,0.1,0.1c0.2-0.1,0.2-0.1,0.1,0.1s0,0.2,0.2,0
			c0.2-0.2,0.4-0.1,0.3,0c-0.2,0.2-0.1,0.2,0.1,0.1c0.2-0.1,0.3-0.1,0.2,0.1s-0.1,0.3,0.2,0.1c0.2-0.2,0.3-0.1,0.2,0s0,0.2,0.2-0.1
			c0.2-0.3,0.3-0.1,0.2,0s0,0.2,0.1,0c0.1-0.2,0.3,0,0.2,0c-0.1,0.1,0.1,0.2,0.2,0s0.3-0.2,0.2,0c-0.1,0.2,0.1,0.2,0.2,0
			c0.1-0.2,0.3-0.2,0.3-0.1c-0.1,0.2,0.1,0.1,0.2,0s0.3-0.1,0.2,0s0.1,0.1,0.2-0.1c0.1-0.2,0.2-0.2,0.2-0.1s0.1,0,0.2-0.1
			c0.1-0.1,0.2-0.1,0.2,0c0,0.1,0.2-0.1,0.2,0.2c-0.1,0.3-0.1,0.2-0.1,0.3s-0.1,0.1-0.1,0.1s-0.1,0.1-0.1,0.1s-0.1,0.2-0.2,0.1
			s-0.5,0-0.2,0.1c0.3,0.1,0.1,0.2,0,0.2c-0.1,0,0.2,0.2-0.2,0.1c-0.5-0.1-0.3,0-0.1,0.1s0.1,0.2-0.5-0.1c-0.5-0.3-0.8-0.2-0.3,0
			c0.4,0.2,0.7,0.5,0.1,0.2c-0.6-0.2-0.3,0-0.2,0.1c0.1,0,0.4,0.3-0.2,0c-0.6-0.3-0.6-0.3-0.3-0.1c0.3,0.2,0.2,0.5-0.3,0
			c-0.5-0.5-0.7-0.6-0.6-0.4c0.1,0.2,0.8,0.8,0.2,0.5c-0.6-0.3-0.6-1-0.7-0.6c-0.1,0.4,0.2,0.3,0.4,0.5c0.2,0.2-0.1,0.2-0.3,0
			c-0.2-0.2-0.3-0.2-0.3-0.6s-0.2-0.1-0.2-0.1s0,0.5,0.3,0.7c0.3,0.2-0.3-0.1-0.3-0.1c0,0-0.2-0.3-0.2-0.2c0,0.2-0.1,0-0.2,0
			c-0.1-0.1-0.4-0.1-0.3,0c0.1,0.1,0.2,0.2,0.4,0.2c0.2,0,0.1,0.1-0.1,0.1c-0.2,0-0.4,0.1-0.1,0.1s0.5,0.2,0.4,0.2s-0.1,0.1,0.1,0.1
			c0.2,0,0.4,0.2,0.2,0.2s-0.3,0.2,0,0.2s0.5,0.1,0.4,0.2s-0.1,0.1,0.1,0.1s0.1,0.1-0.1,0.2c-0.2,0,0.1,0.1,0.3,0.1
			c0.2,0,0.4,0.1,0.3,0.1c-0.1,0-0.1,0.1,0.1,0.1c0.2,0,0.5,0.1,0.4,0.1c-0.2,0-0.1,0.2,0.1,0.2s0.3,0,0.2,0.1s0,0.1,0.2,0.1
			c0.2,0,0.6,0,0.4,0.1c-0.2,0-0.3,0.2-0.2,0.2c0.1,0-0.1,0.1-0.2,0.2c-0.1,0-0.2,0.1-0.2,0.2c0,0-0.1,0-0.2,0s-0.2-0.1-0.2,0
			c0,0.1,0,0.1-0.1,0c-0.1-0.1-0.2-0.1-0.2,0c0,0.1-0.1,0-0.2-0.1c-0.1-0.1-0.2-0.2-0.2-0.1s-0.2,0.2-0.2,0.1c0-0.1-0.2-0.5-0.2-0.3
			s-0.1,0.3-0.2,0.2c-0.1-0.2,0-0.5-0.1-0.4c-0.1,0,0,0.2,0,0.3c0,0.1-0.2,0.3-0.2,0c-0.1-0.3,0.1-0.7,0-0.6s-0.1,0.2-0.1,0.4
			s-0.1,0.1-0.2-0.1c0-0.2,0-0.7,0-0.4c-0.1,0.3-0.1,0.8-0.2,0.4s0.1-1,0-0.8s-0.1,0.2-0.1,0.4s-0.1,0.2-0.2,0s0-0.9,0-0.8
			c0,0.1,0,0.3-0.1,0.4s-0.1-0.3-0.1-0.2s0.1-0.5,0.1-0.4s-0.2-0.1-0.2,0.2s-0.1,0-0.2-0.1c-0.1-0.1-0.2,0.1-0.2-0.3
			c-0.1-0.4-0.1-0.5-0.2-0.4s-0.2,0-0.2-0.2c0-0.1-0.2-0.2-0.2-0.2c0,0.1-0.2,0-0.2,0.2c0,0.1-0.1,0.1-0.2-0.2s-0.2-0.1-0.1,0.2
			s0.1,0.6,0,0.5c-0.1-0.1-0.1,0.1-0.1,0.2s0,0.3,0,0.3s-0.1-0.1-0.1,0.2c0,0.3-0.1,0.4-0.1,0.1s0-0.7-0.1-0.8s-0.2-0.1-0.1,0.1
			s0.2,0.5,0.2,0.9c0,0.4-0.1,0.5-0.2,0.2c0-0.3,0.1-0.7-0.1-0.8s-0.2-0.1-0.2,0.1c0,0.2,0.2,0.3,0.1,0.7c-0.1,0.4-0.2,0.5-0.2,0.3
			s0.1-0.6,0-0.7s-0.1,0-0.1,0.2c0.1,0.2,0.1,0.6,0.1,0.8c0,0.2-0.2,0.3-0.2,0.1c0-0.2,0,0.2,0,0.3c0,0.1-0.1,0.4-0.2,0.2
			c0-0.2-0.1-0.2-0.1,0s0,0.7-0.1,0.4c-0.1-0.2-0.2-0.3-0.2-0.2c0,0.1,0,0.4-0.1,0.4c-0.1-0.1-0.2-0.1-0.2,0c0,0.1,0,0.1-0.1,0
			C98.7,628,98.5,628.2,98.5,628.2L98.5,628.2L98.5,628.2z"/>
		<path id="path40" class="st5" d="M89.4,614.2c0.6-1.9,1.6-3.5,2.5-4.5c-0.4-1.4-3.2-3.8-4.9-6.4c-0.7,1.8-1.9,2.9-2.7,4.7
			C86.3,611.4,87.8,611.7,89.4,614.2L89.4,614.2z"/>
		<path id="path42" class="st5" d="M112.2,614.2c-0.6-1.9-1.6-3.5-2.5-4.5c0.4-1.4,3.2-3.8,4.9-6.4c0.7,1.8,1.9,2.9,2.7,4.7
			C115.3,611.4,113.8,611.7,112.2,614.2L112.2,614.2z"/>
		<path id="path44" class="st4" d="M89,611.6c0.3-1,0.7-1.4,1.1-1.9c-0.2-0.7-2.2-2.3-3.1-3.7c-0.4,0.9-0.7,1-1.1,1.9
			C87,609.8,88.2,610.3,89,611.6L89,611.6z"/>
		<path id="path46" class="st4" d="M112.6,611.6c-0.3-1-0.7-1.4-1.1-1.9c0.2-0.7,2.2-2.3,3.1-3.7c0.4,0.9,0.7,1,1.1,1.9
			C114.6,609.8,113.4,610.3,112.6,611.6L112.6,611.6z"/>
		<path id="path48" class="st3" d="M87.6,609.3c0.2,0.2,0.6,0.4,0.9,0.1c0.2-0.4,0-0.8-0.2-1c0,0.2,0.1,0.5-0.1,0.8
			C88,609.3,87.9,609.3,87.6,609.3L87.6,609.3z"/>
		<path id="path50" class="st3" d="M114,609.3c-0.2,0.2-0.6,0.4-0.9,0.1c-0.2-0.4,0-0.8,0.2-1c0,0.2-0.1,0.5,0.1,0.8
			C113.6,609.3,113.7,609.3,114,609.3L114,609.3z"/>
		<path id="path52" class="st6" d="M103,611.9c-2.4,1.3-5.9,0.1-7.1-2.1s-1.5-5.3,0.7-7.5s5-2.2,7.2-1c2.2,1.2,3,3.4,2.9,5
			c-0.2-1.8-1.2-3.4-2.9-4.1c-1.8-0.8-4.6-0.7-6.1,1.3s-1.8,4.1-0.5,6.1C98.4,611.7,100.7,612.7,103,611.9L103,611.9z"/>
		<path id="path54" class="st6" d="M103,611.9c-2.6,0.9-4.9-0.5-6-2.3c-1.1-1.8-1-4.5,0.8-6.3s4.4-1.7,6-1c1.6,0.6,2.7,2.3,2.9,4.1
			c-0.8-1.5-1.5-2.8-3-3.2s-3.8-0.2-5,1.3s-1.3,3.2-0.6,5C98.8,611.2,101.1,612.3,103,611.9L103,611.9z"/>
		
			<linearGradient id="path66_00000008842120331825036490000017240860623645540004_" gradientUnits="userSpaceOnUse" x1="80.1491" y1="1651.6852" x2="82.1561" y2="1655.6243" gradientTransform="matrix(4.15 0 0 -4.15 -234.8786 7467.0952)">
			<stop  offset="0" style="stop-color:#CD8C5D"/>
			<stop  offset="0.76" style="stop-color:#FEC00F"/>
			<stop  offset="0.76" style="stop-color:#FEC00F"/>
			<stop  offset="1" style="stop-color:#FEC00F"/>
		</linearGradient>
		<path id="path66" style="fill:url(#path66_00000008842120331825036490000017240860623645540004_);" d="M98.7,604.4
			c-1.2,1.6-1.3,3.3-0.6,5c0.7,1.7,2.9,2.9,4.9,2.5c-2.4,1-4.8-0.4-6-2.2c-1.1-1.7-1.3-4.1,0.7-6.4
			C97.9,603.1,98.5,604.6,98.7,604.4L98.7,604.4z"/>
		
			<linearGradient id="path78_00000177482332190247190340000015523151999657989287_" gradientUnits="userSpaceOnUse" x1="81.9608" y1="1654.6356" x2="79.0943" y2="1651.4521" gradientTransform="matrix(4.15 0 0 -4.15 -234.8786 7467.0952)">
			<stop  offset="0" style="stop-color:#CD8C5D"/>
			<stop  offset="0.75" style="stop-color:#FEC00F"/>
			<stop  offset="0.75" style="stop-color:#FEC00F"/>
			<stop  offset="1" style="stop-color:#FEC00F"/>
		</linearGradient>
		<path id="path78" style="fill:url(#path78_00000177482332190247190340000015523151999657989287_);" d="M96.6,602.3
			c2.2-2.1,5-2.2,7.2-1c2.2,1.2,3,3.4,2.9,5c-0.2-1.8-1.2-3.4-2.9-4.1c-1.8-0.7-4.6-0.6-6.1,1.3C97.5,603.6,96.7,602.4,96.6,602.3
			L96.6,602.3z"/>
		<path id="path80" class="st6" d="M100.5,603.2l1.5,4.1l0.5-1.7L100.5,603.2z"/>
		<path id="path82" class="st6" d="M105.6,604.5l-3.5,2.8l1.7,0L105.6,604.5z"/>
		<path id="path84" class="st6" d="M105.8,609.8l-3.7-2.5l0.6,1.6L105.8,609.8z"/>
		<path id="path86" class="st6" d="M100.8,611.8l1.2-4.4l-1.4,1.1L100.8,611.8z"/>
		<path id="path88" class="st6" d="M97.7,607.5l4.4-0.2l-1.4-1L97.7,607.5z"/>
		
			<linearGradient id="path100_00000017484297513916921890000010497710413586626954_" gradientUnits="userSpaceOnUse" x1="81.3322" y1="1653.7244" x2="80.0545" y2="1652.6136" gradientTransform="matrix(4.15 0 0 -4.15 -234.8786 7467.0952)">
			<stop  offset="0" style="stop-color:#CD8C5D"/>
			<stop  offset="0.86" style="stop-color:#FEC00F"/>
			<stop  offset="0.86" style="stop-color:#FEC00F"/>
			<stop  offset="1" style="stop-color:#FEC00F"/>
		</linearGradient>
		<path id="path100" style="fill:url(#path100_00000017484297513916921890000010497710413586626954_);" d="M100.5,603.2l1.5,4.1
			l-1.4-1L100.5,603.2z"/>
		
			<linearGradient id="path112_00000062178726683233921970000008022316991621349515_" gradientUnits="userSpaceOnUse" x1="82.0785" y1="1652.9846" x2="80.4038" y2="1654.0311" gradientTransform="matrix(4.15 0 0 -4.15 -234.8786 7467.0952)">
			<stop  offset="0" style="stop-color:#CD8C5D"/>
			<stop  offset="0.83" style="stop-color:#FEC00F"/>
			<stop  offset="0.83" style="stop-color:#FEC00F"/>
			<stop  offset="1" style="stop-color:#FEC00F"/>
		</linearGradient>
		<path id="path112" style="fill:url(#path112_00000062178726683233921970000008022316991621349515_);" d="M105.6,604.5l-3.5,2.8
			l0.5-1.7L105.6,604.5z"/>
		
			<linearGradient id="path124_00000158006544718793262670000008920382855908561299_" gradientUnits="userSpaceOnUse" x1="81.5313" y1="1652.2272" x2="81.8857" y2="1653.6487" gradientTransform="matrix(4.15 0 0 -4.15 -234.8786 7467.0952)">
			<stop  offset="0" style="stop-color:#CD8C5D"/>
			<stop  offset="0.9" style="stop-color:#FEC00F"/>
			<stop  offset="0.9" style="stop-color:#FEC00F"/>
			<stop  offset="1" style="stop-color:#FEC00F"/>
		</linearGradient>
		<path id="path124" style="fill:url(#path124_00000158006544718793262670000008920382855908561299_);" d="M105.8,609.8l-3.7-2.5
			l1.7,0L105.8,609.8z"/>
		
			<linearGradient id="path136_00000093899109659517004250000011514972386827834528_" gradientUnits="userSpaceOnUse" x1="80.9034" y1="1652.3953" x2="81.6189" y2="1652.4453" gradientTransform="matrix(4.15 0 0 -4.15 -234.8786 7467.0952)">
			<stop  offset="0" style="stop-color:#CD8C5D"/>
			<stop  offset="0.94" style="stop-color:#FEC00F"/>
			<stop  offset="0.94" style="stop-color:#FEC00F"/>
			<stop  offset="1" style="stop-color:#FEC00F"/>
		</linearGradient>
		<path id="path136" style="fill:url(#path136_00000093899109659517004250000011514972386827834528_);" d="M100.8,611.8l1.2-4.4
			l0.6,1.6L100.8,611.8z"/>
		
			<linearGradient id="path148_00000134951254382460817820000010081595696173173404_" gradientUnits="userSpaceOnUse" x1="80.6156" y1="1653.015" x2="80.9422" y2="1652.2454" gradientTransform="matrix(4.15 0 0 -4.15 -234.8786 7467.0952)">
			<stop  offset="0" style="stop-color:#CD8C5D"/>
			<stop  offset="0.86" style="stop-color:#FEC00F"/>
			<stop  offset="0.86" style="stop-color:#FEC00F"/>
			<stop  offset="1" style="stop-color:#FEC00F"/>
		</linearGradient>
		<path id="path148" style="fill:url(#path148_00000134951254382460817820000010081595696173173404_);" d="M97.7,607.5l4.4-0.2
			l-1.4,1.1L97.7,607.5z"/>
		<path id="path150" class="st14" d="M107.7,597.2l-0.7-1.9l-1.2-0.3c1.2-0.3,2.5-0.8,3.7-1.3c-0.3,0.6-0.6,1.3-0.8,1.9
			c0.6,0.2,1.2,0.4,1.7,0.5C109.5,596.5,108.6,596.9,107.7,597.2L107.7,597.2z"/>
		<path id="path154" class="st14" d="M100.7,596.4c2.1,0,4.2-0.2,6.1-0.8l1,2.6c-1.9,0.6-4,1.1-7.1,1c-3.1,0-5.2-0.5-7.1-1l1-2.6
			C96.6,596.2,98.6,596.4,100.7,596.4L100.7,596.4z"/>
		<path id="path158" d="M106.8,597.7c0,0-0.2,0.5-0.2,0c0-0.5,0-0.7-0.1-0.9c-0.1-0.2-0.1-0.4,0.1-0.2s0.2,0.6,0.2,0.6
			s0,0.1,0.1,0.1C106.9,597.2,106.8,597.6,106.8,597.7L106.8,597.7 M105.9,596.8c0,0-0.2-0.1-0.1-0.3c0.1-0.2,0.2-0.1,0.2,0
			S106,596.7,105.9,596.8C105.9,596.7,105.9,596.7,105.9,596.8L105.9,596.8 M106.1,598c0,0-0.2,0.2-0.2-0.1c0-0.4,0-0.6-0.1-0.8
			s-1,0-1,0c0,0.1-0.3,0-0.3,0.5c0,0.5-0.2,0.5-0.2,0.6c0,0-0.2,0-0.2-0.2s0.2-0.4,0.1-0.7c-0.1-0.3-0.7-0.5-0.7-0.3
			c0,0.2,0.3,0.2,0.3,0.5c0,0.3-0.2,0.5-0.2,0.5c-0.1,0-0.3,0.1-0.3-0.1c0-0.2,0-0.5,0.2-0.5c0.2,0,0.3,0,0.2,0
			c-0.1-0.1-0.2-0.2-0.4-0.3c-0.2-0.1-0.4-0.2-0.6-0.2s0-0.1,0-0.1c0,0,0.5,0,0.6,0c0.1,0.1,0.1,0.2,0.1,0.1c0-0.1-0.1-0.2,0-0.2
			c0.1,0,0.3-0.1,0.5,0c0.1,0,0.3,0.3,0.4,0.3s0.3-0.2,0.4-0.2c0.1,0,0.7-0.2,0.9-0.1c0.3,0.1,0.4,0.4,0.4,0.5c0,0.1,0,0.2,0.1,0.2
			c0.1,0,0.1,0,0.1,0.2C106.2,597.8,106.1,598,106.1,598L106.1,598 M105,598.2c0,0-0.2-0.4,0-0.4s0,0,0.1-0.2
			c0.1-0.2,0.1-0.2,0.1-0.3c0-0.1,0.1-0.1,0.1,0c0,0.1,0.1,0.3,0.2,0.4c0,0.1,0.1,0.2,0.1,0.1c0-0.1,0.2,0,0.1,0.1s-0.2,0.2-0.3,0
			c-0.1-0.1-0.1-0.3-0.1-0.2C105.2,598,105.1,598.4,105,598.2L105,598.2 M96.6,597.9C96.6,597.9,96.5,597.8,96.6,597.9
			c0.1-0.1,0-0.1,0-0.1c0,0,0-0.1,0-0.1c0,0,0,0,0,0c0,0,0.1,0.1,0.1,0.1c0,0,0,0,0.1,0c0,0,0.1,0,0.1,0c0,0-0.1,0-0.1,0
			s-0.1-0.1-0.1-0.1C96.7,597.8,96.7,597.9,96.6,597.9L96.6,597.9 M104.6,598.3c0,0,0.2-0.1,0.1-0.2c0-0.2-0.1-0.1-0.1-0.1
			s0,0.1,0,0.1C104.7,598.1,104.6,598.3,104.6,598.3L104.6,598.3 M104.2,597.1c0,0,0.2-0.1,0.1-0.2c0-0.2-0.1-0.1-0.1-0.1
			s0,0.1,0,0.1C104.3,596.9,104.2,597.1,104.2,597.1L104.2,597.1 M103.7,598.6c0,0,0.2-0.1,0.1-0.2c0-0.2-0.1-0.1-0.1-0.1
			s0,0.1,0,0.1C103.9,598.4,103.7,598.6,103.7,598.6L103.7,598.6 M102.6,598.2c0,0,0.2-0.1,0.1-0.2c0-0.2-0.1-0.1-0.1-0.1
			s0,0.1,0,0.1C102.7,598,102.6,598.2,102.6,598.2L102.6,598.2 M101.9,598.7c0,0,0.2-0.1,0.1-0.2c0-0.2-0.1-0.1-0.1-0.1s0,0.1,0,0.1
			C102,598.5,101.9,598.7,101.9,598.7L101.9,598.7 M95.8,597.1c0,0-0.1-0.2,0-0.4c0.1-0.2,0.2-0.1,0.2,0s0,0.2-0.1,0.2
			C95.7,596.8,95.8,597.1,95.8,597.1L95.8,597.1 M99.9,597.1c0,0,0.1,0,0.1-0.1c0-0.1-0.1-0.1-0.1,0S99.9,597,99.9,597.1
			C100,597.1,99.9,597.1,99.9,597.1L99.9,597.1 M99,598.5c0,0,0.2-0.1,0.1-0.2c0-0.2-0.1-0.1-0.1-0.1s0,0.1,0,0.1
			C99.1,598.4,99,598.5,99,598.5L99,598.5 M102.9,598.7c0,0-0.2-0.1-0.1-0.3c0.1-0.2,0.1-0.5,0.1-0.6s-0.5-0.4-0.8-0.2
			c-0.2,0.1-0.2,0.5-0.4,0.2c-0.2-0.2-0.3-0.6-0.5-0.5c-0.1,0.1-0.1,0-0.1,0.2s0.1,0,0.2,0.1c0.1,0,0.1,0.2,0,0.2s-0.2,0.1-0.3,0.1
			s-0.4,0.1-0.1,0.2c0.3,0.1,0.3-0.1,0.3-0.1s0.1,0,0.1,0.1c0,0.1-0.2,0.1-0.2,0.3c0,0.2,0,0.2,0,0.2s0,0,0.1,0.1s0,0.1-0.1,0.2
			s-0.2,0.2-0.2,0.2c0-0.1-0.1-0.2,0-0.3c0.1-0.2,0.1-0.3,0-0.3c0-0.1-0.4-0.2-0.5-0.3c-0.1-0.1-0.2-0.2-0.1-0.2c0.1,0,0.1,0,0.2,0
			s-0.1-0.1-0.2-0.1s-0.5,0-0.5,0.1s-0.1,0-0.2,0.4s-0.1,0.3-0.1,0.6c-0.1,0.3-0.2,0-0.2,0c0,0,0.1-0.6,0.1-0.7c0-0.1,0.1-0.7,0-0.5
			S99,597.9,99,598c0,0.1-0.2,0.3-0.2,0.3c0,0-0.2,0-0.1-0.1s0.3-0.5,0.2-0.6c-0.2-0.1-0.3-0.2-0.4-0.2s-0.2,0.1-0.1,0.2
			c0,0.1,0.1,0.3,0,0.2s-0.2-0.4-0.2-0.5s0.2-0.3,0.4-0.2c0.2,0.1,0.4,0.3,0.4,0.3c0.1,0,0-0.2,0.2-0.2c0.1,0,0.4,0,0.5,0.1
			c0.1,0.2,0.2,0,0.2,0c0,0,0.3,0,0.7,0.1c0.3,0.2,0.4,0.1,0.4,0.1s0.1-0.1,0.1-0.3s0.2-0.3,0.2-0.2c0.1,0,0.2,0.3,0.4,0.5
			c0.3,0.3,0.1,0.1,0.2,0c0-0.1,0.3-0.2,0.4-0.2c0.1,0,0.6,0.1,0.6,0.2s0.2,0.2,0.2,0.6c-0.1,0.4-0.1,0.3-0.1,0.4
			C103,598.5,103.2,598.4,102.9,598.7L102.9,598.7 M101.4,598.7c0,0-0.2-0.1-0.1-0.2c0.1-0.2,0.1-0.7,0.1-0.6s0-0.4,0.2-0.1
			s0,0.2,0,0.4c0,0.2,0.1,0.1,0,0.2S101.4,598.7,101.4,598.7L101.4,598.7 M102,598.2L102,598.2l-0.2,0l0.1-0.1L102,598.2l0.2-0.1
			l0.1,0.1l-0.2,0.1L102,598.2L102,598.2 M100.3,598.6l-0.6-0.3l-0.1-0.1l0.8,0.3L100.3,598.6L100.3,598.6 M100.5,598.3l-0.6-0.3
			l-0.1-0.1l0.8,0.3L100.5,598.3L100.5,598.3 M98.1,598.5l0.2-0.1c0,0,0-0.3-0.2-0.3c-0.1,0-0.3-0.1-0.2,0.1c0.1,0.2,0,0.2,0,0.1
			c0-0.1-0.1,0,0,0.1C98,598.4,98.1,598.5,98.1,598.5L98.1,598.5 M94.8,598l0.2-0.1c0,0,0-0.3-0.2-0.3c-0.1,0-0.3-0.1-0.2,0.1
			c0.1,0.2,0,0.2,0,0.1c0-0.1-0.1,0,0,0.1C94.7,598,94.8,598,94.8,598L94.8,598 M100.8,597.2c0,0-0.2,0-0.1-0.1c0.1-0.1,0-0.1,0-0.2
			c0-0.1,0.2-0.2,0.2-0.1c0.1,0.1,0.1,0.2,0,0.2c-0.1,0-0.1,0-0.1,0.1C100.8,597.1,100.8,597.2,100.8,597.2L100.8,597.2 M98.8,597
			c0,0-0.2-0.1-0.2-0.1s0-0.1,0.1-0.1S99,597,98.8,597L98.8,597 M97.9,597.1L97.9,597.1l-0.2-0.1l0.2-0.1L97.9,597.1l0.2-0.2
			l0.1,0.1l-0.1,0.1L97.9,597.1L97.9,597.1L97.9,597.1 M95.4,598L95.4,598l-0.2-0.1l0.2-0.1l0.1,0.1l0.1-0.1l0,0.1l-0.1,0.1
			L95.4,598L95.4,598L95.4,598 M97.9,597.9c0,0,0.1-0.1,0-0.2c0-0.1-0.2-0.1-0.2,0c0,0.1-0.2,0.3-0.2,0.5c0,0.1-0.1,0-0.1-0.1
			s0-0.2,0.1-0.3c0.1-0.1,0.1-0.2,0-0.2c-0.1,0-0.1-0.1-0.2,0c-0.1,0.1-0.2,0.3-0.3,0.2c-0.1-0.1-0.2-0.3-0.4-0.3
			c-0.2,0-0.3-0.1-0.5,0s-0.6,0.4-0.7,0.1c-0.1-0.3-0.1-0.8-0.3-0.6s-0.4,0.3-0.3,0.1c0.1-0.2,0.3-0.5,0.4-0.4
			c0.1,0.1,0.3,0.2,0.3,0.4c0.1,0.2,0.1,0.5,0.3,0.3c0.2-0.2,0.3-0.3,0.7-0.2c0.4,0,0.5,0.2,0.5,0.2c0.1,0.1,0,0.1,0.2,0
			s0.4,0,0.4,0.1c0,0.1,0.1,0.1,0.1,0s0.2-0.1,0.3,0C98.1,597.5,98.1,597.8,97.9,597.9L97.9,597.9 M96.7,598.4l-0.7-0.5l0-0.1
			l0.8,0.5l0,0.2L96.7,598.4L96.7,598.4 M97.4,597l-0.1-0.1l0.2-0.1l0.1,0.2L97.4,597L97.4,597z"/>
		<path id="path156" d="M107.7,597.2l-0.7-1.9l-1.2-0.3c1.2-0.3,2.5-0.8,3.7-1.3c-0.3,0.6-0.6,1.3-0.8,1.9c0.6,0.2,1.2,0.4,1.7,0.5
			C109.5,596.5,108.6,596.9,107.7,597.2L107.7,597.2 M100.7,596.2c-1.6,0-3.2-0.1-4.9-0.5l0.3-0.8c-1.5-0.4-3-1-4.4-1.6
			c0.3,0.7,0.6,1.5,0.9,2.1c-0.5,0.2-1.2,0.4-1.9,0.6c0.6,0.4,1.7,0.9,3.1,1.3l-0.3,0.9c2.4,0.8,4.9,1.1,7.4,1.1
			c2.5,0,4.9-0.3,7.4-1.1l-0.3-0.9c1.4-0.4,2.4-0.9,3.1-1.3c-0.7-0.2-1.4-0.4-1.9-0.6c0.3-0.7,0.6-1.5,0.9-2.1
			c-1.4,0.7-2.9,1.2-4.4,1.6l0.3,0.8C104,596.1,102.3,596.2,100.7,596.2L100.7,596.2 M93.8,597.2l0.7-1.9l1.2-0.3
			c-1.2-0.3-2.5-0.8-3.7-1.3c0.3,0.6,0.6,1.3,0.8,1.9c-0.6,0.2-1.2,0.4-1.7,0.5C91.9,596.5,92.8,596.9,93.8,597.2L93.8,597.2
			 M100.7,596.4c2.1,0,4.2-0.2,6.1-0.8l1,2.6c-1.9,0.6-4,1.1-7.1,1c-3.1,0-5.2-0.5-7.1-1l1-2.6C96.6,596.2,98.6,596.4,100.7,596.4
			L100.7,596.4z"/>
		<path id="path152" class="st14" d="M93.8,597.2l0.7-1.9l1.2-0.3c-1.2-0.3-2.5-0.8-3.7-1.3c0.3,0.6,0.6,1.3,0.8,1.9
			c-0.6,0.2-1.2,0.4-1.7,0.5C91.9,596.5,92.8,596.9,93.8,597.2L93.8,597.2z"/>
	</g>
</g>
<g>
	<g>
		<g>
			<path d="M57.1,22.2v-14h1.6l5.8,9.6h-1l5.8-9.6h1.6v14h-2.3v-10l0.5,0.1l-4.3,7.1h-1.6l-4.3-7.1l0.5-0.1v10H57.1z"/>
			<path d="M77.6,22.5c-0.9,0-1.6-0.2-2.3-0.7s-1.2-1-1.7-1.8S73,18.4,73,17.5c0-1,0.2-1.8,0.6-2.6s1-1.4,1.7-1.8
				c0.7-0.4,1.5-0.7,2.3-0.7c0.7,0,1.4,0.2,1.9,0.5c0.6,0.3,1,0.7,1.4,1.3s0.5,1.2,0.5,1.9v2.8c0,0.7-0.2,1.3-0.5,1.9
				c-0.3,0.5-0.8,1-1.3,1.3C79,22.3,78.4,22.5,77.6,22.5z M78,20.4c0.8,0,1.5-0.3,2-0.8s0.8-1.2,0.8-2.1c0-0.6-0.1-1.1-0.3-1.5
				c-0.2-0.4-0.5-0.8-0.9-1s-0.9-0.4-1.4-0.4c-0.5,0-1,0.1-1.4,0.4s-0.7,0.6-1,1c-0.2,0.4-0.3,1-0.3,1.5s0.1,1.1,0.3,1.5
				c0.2,0.4,0.6,0.8,1,1C77,20.3,77.5,20.4,78,20.4z M80.6,22.2v-2.6l0.4-2.3L80.6,15v-2.4h2.2v9.6H80.6z"/>
			<path d="M85.2,22.2V7.8h2.2v14.4H85.2z"/>
			<path d="M93.9,22.5c-0.9,0-1.7-0.2-2.4-0.7s-1.2-1-1.7-1.8s-0.6-1.6-0.6-2.5c0-1,0.2-1.8,0.6-2.6s1-1.4,1.7-1.8s1.5-0.7,2.4-0.7
				c0.7,0,1.4,0.2,1.9,0.5c0.6,0.3,1,0.7,1.3,1.3s0.5,1.2,0.5,1.9v2.8c0,0.7-0.2,1.3-0.5,1.9c-0.3,0.5-0.8,1-1.4,1.3
				C95.3,22.3,94.6,22.5,93.9,22.5z M94.2,20.4c0.6,0,1-0.1,1.4-0.4s0.7-0.6,0.9-1c0.2-0.4,0.3-1,0.3-1.5s-0.1-1.1-0.3-1.5
				c-0.2-0.4-0.5-0.8-0.9-1s-0.9-0.4-1.4-0.4c-0.5,0-1,0.1-1.4,0.4s-0.7,0.6-1,1c-0.2,0.4-0.3,1-0.3,1.5s0.1,1.1,0.3,1.5
				c0.2,0.4,0.6,0.8,1,1S93.7,20.4,94.2,20.4z M99,22.2h-2.2v-2.6l0.4-2.3L96.8,15V7.8H99V22.2z"/>
			<path d="M102.6,10.9c-0.4,0-0.7-0.1-0.9-0.4s-0.4-0.6-0.4-0.9s0.1-0.7,0.4-0.9s0.6-0.4,0.9-0.4c0.4,0,0.7,0.1,0.9,0.4
				c0.2,0.2,0.4,0.6,0.4,0.9s-0.1,0.7-0.4,0.9C103.3,10.8,103,10.9,102.6,10.9z M101.5,22.2v-9.6h2.2v9.6H101.5z"/>
			<path d="M109.4,22.2l-4.4-9.6h2.4l3.3,7.8h-1.4l3.4-7.8h2.3l-4.4,9.6H109.4z"/>
			<path d="M120.8,22.5c-1,0-1.8-0.2-2.6-0.6c-0.8-0.4-1.4-1-1.8-1.8c-0.4-0.8-0.7-1.6-0.7-2.6s0.2-1.8,0.7-2.6s1-1.4,1.8-1.8
				s1.6-0.7,2.5-0.7c0.9,0,1.7,0.2,2.4,0.6s1.2,1,1.6,1.7c0.4,0.7,0.6,1.5,0.6,2.5c0,0.2,0,0.3,0,0.5c0,0.2-0.1,0.4-0.1,0.5h-7.9
				v-1.8h6.7l-0.8,0.7c0-0.6-0.1-1.1-0.3-1.5s-0.5-0.7-0.9-0.9c-0.4-0.2-0.8-0.3-1.4-0.3c-0.6,0-1.1,0.1-1.5,0.4
				c-0.4,0.2-0.7,0.6-1,1s-0.3,1-0.3,1.5s0.1,1.1,0.4,1.6c0.2,0.5,0.6,0.8,1,1s0.9,0.4,1.5,0.4c0.5,0,0.9-0.1,1.4-0.3
				c0.4-0.2,0.8-0.4,1.1-0.8l1.4,1.4c-0.5,0.5-1,1-1.7,1.2C122.3,22.3,121.6,22.5,120.8,22.5z"/>
			<path d="M130.2,22.5c-0.5,0-1.1-0.1-1.5-0.2c-0.5-0.1-0.9-0.3-1.4-0.6s-0.8-0.6-1.1-1l1.4-1.4c0.3,0.4,0.7,0.7,1.2,0.9
				c0.4,0.2,0.9,0.3,1.5,0.3c0.5,0,0.9-0.1,1.1-0.2s0.4-0.4,0.4-0.6c0-0.3-0.1-0.5-0.4-0.7s-0.6-0.3-0.9-0.4
				c-0.4-0.1-0.8-0.2-1.2-0.4s-0.8-0.3-1.2-0.5c-0.4-0.2-0.7-0.5-0.9-0.9c-0.2-0.4-0.4-0.8-0.4-1.4c0-0.6,0.1-1.1,0.4-1.6
				c0.3-0.4,0.7-0.8,1.2-1c0.5-0.2,1.2-0.4,1.9-0.4c0.8,0,1.5,0.1,2.1,0.4c0.6,0.3,1.1,0.7,1.5,1.2l-1.4,1.4c-0.3-0.4-0.6-0.6-1-0.8
				s-0.8-0.3-1.2-0.3c-0.4,0-0.8,0.1-1,0.2s-0.4,0.3-0.4,0.6c0,0.3,0.1,0.5,0.4,0.6c0.2,0.2,0.6,0.3,0.9,0.4s0.8,0.2,1.2,0.4
				c0.4,0.1,0.8,0.3,1.2,0.5c0.4,0.2,0.7,0.5,0.9,0.9c0.2,0.4,0.4,0.8,0.4,1.4c0,0.9-0.3,1.7-1,2.2
				C132.2,22.2,131.3,22.5,130.2,22.5z"/>
			<path d="M139.9,22.2v-14h2.3v14H139.9z M141.5,22.2v-2h4c0.7,0,1.2-0.2,1.6-0.7s0.6-1,0.6-1.5c0-0.4-0.1-0.8-0.3-1.1
				s-0.4-0.6-0.8-0.8c-0.3-0.2-0.7-0.3-1.2-0.3h-4v-2h3.7c0.6,0,1.1-0.1,1.4-0.5s0.5-0.8,0.5-1.4c0-0.6-0.2-1.1-0.5-1.4
				c-0.4-0.3-0.8-0.5-1.4-0.5h-3.7v-2h3.7c0.9,0,1.7,0.2,2.4,0.5c0.6,0.4,1.1,0.8,1.4,1.3s0.5,1.1,0.5,1.8c0,0.7-0.2,1.4-0.6,1.9
				s-1,1-1.8,1.4l0.2-0.7c0.9,0.4,1.6,0.9,2.1,1.5c0.5,0.6,0.7,1.4,0.7,2.3c0,0.7-0.2,1.4-0.5,2s-0.9,1.1-1.6,1.5s-1.5,0.5-2.5,0.5
				H141.5z"/>
			<path d="M156,22.5c-0.8,0-1.5-0.2-2.2-0.5s-1.1-0.9-1.5-1.5c-0.4-0.6-0.5-1.4-0.5-2.2v-5.6h2.2v5.5c0,0.5,0.1,0.9,0.2,1.2
				s0.4,0.6,0.7,0.8c0.3,0.2,0.7,0.3,1.1,0.3c0.6,0,1.1-0.2,1.5-0.6s0.5-0.9,0.5-1.6v-5.5h2.2v5.6c0,0.8-0.2,1.6-0.5,2.2
				c-0.4,0.6-0.8,1.1-1.5,1.5S156.8,22.5,156,22.5z"/>
			<path d="M162.4,22.2v-9.6h2.2v9.6H162.4z M164.6,16.9l-0.8-0.4c0-1.2,0.3-2.2,0.8-2.9s1.4-1.1,2.4-1.1c0.5,0,0.9,0.1,1.3,0.3
				s0.8,0.4,1.1,0.8L168,15c-0.2-0.2-0.4-0.3-0.6-0.4s-0.5-0.1-0.7-0.1c-0.6,0-1.1,0.2-1.5,0.6C164.8,15.5,164.6,16.1,164.6,16.9z"
				/>
			<path d="M175.4,22.5c-1,0-1.8-0.2-2.6-0.6c-0.8-0.4-1.4-1-1.8-1.8c-0.4-0.8-0.7-1.6-0.7-2.6s0.2-1.8,0.7-2.6s1-1.4,1.8-1.8
				s1.6-0.7,2.5-0.7c0.9,0,1.7,0.2,2.4,0.6s1.2,1,1.6,1.7s0.6,1.5,0.6,2.5c0,0.2,0,0.3,0,0.5s-0.1,0.4-0.1,0.5h-7.9v-1.8h6.7
				l-0.8,0.7c0-0.6-0.1-1.1-0.3-1.5s-0.5-0.7-0.9-0.9c-0.4-0.2-0.8-0.3-1.4-0.3c-0.6,0-1.1,0.1-1.5,0.4s-0.7,0.6-1,1
				c-0.2,0.4-0.3,0.9-0.3,1.6s0.1,1.1,0.4,1.6s0.6,0.8,1,1s0.9,0.4,1.5,0.4c0.5,0,0.9-0.1,1.4-0.3s0.8-0.4,1.1-0.8l1.4,1.4
				c-0.5,0.5-1,1-1.7,1.2C176.8,22.3,176.1,22.5,175.4,22.5z"/>
			<path d="M185.6,22.5c-0.9,0-1.6-0.2-2.4-0.7c-0.7-0.4-1.2-1-1.7-1.8s-0.6-1.6-0.6-2.5c0-1,0.2-1.8,0.6-2.6s1-1.4,1.7-1.8
				s1.5-0.7,2.4-0.7c0.7,0,1.4,0.2,1.9,0.5c0.6,0.3,1,0.7,1.4,1.3s0.5,1.2,0.5,1.9v2.8c0,0.7-0.2,1.3-0.5,1.9
				c-0.3,0.5-0.8,1-1.4,1.3S186.3,22.5,185.6,22.5z M186,20.4c0.8,0,1.5-0.3,2-0.8s0.8-1.2,0.8-2.1c0-0.6-0.1-1.1-0.3-1.5
				c-0.2-0.4-0.5-0.8-0.9-1s-0.9-0.4-1.4-0.4c-0.5,0-1,0.1-1.4,0.4s-0.7,0.6-1,1c-0.2,0.4-0.4,1-0.4,1.5s0.1,1.1,0.4,1.5
				c0.2,0.4,0.6,0.8,1,1C185,20.2,185.4,20.4,186,20.4z M188.5,22.2v-2.6l0.4-2.3l-0.4-2.3v-2.4h2.2v9.6H188.5z"/>
			<path d="M197.1,22.5c-0.8,0-1.5-0.2-2.2-0.5s-1.1-0.9-1.5-1.5c-0.4-0.6-0.5-1.4-0.5-2.2v-5.6h2.2v5.5c0,0.5,0.1,0.9,0.2,1.2
				s0.4,0.6,0.7,0.8c0.3,0.2,0.7,0.3,1.1,0.3c0.6,0,1.1-0.2,1.5-0.6s0.5-0.9,0.5-1.6v-5.5h2.2v5.6c0,0.8-0.2,1.6-0.5,2.2
				c-0.4,0.6-0.8,1.1-1.5,1.5S198,22.5,197.1,22.5z"/>
			<path d="M211.9,22.5c-0.9,0-1.8-0.2-2.5-0.7s-1.4-1-1.8-1.8s-0.7-1.6-0.7-2.5s0.2-1.8,0.7-2.5s1.1-1.3,1.8-1.8s1.6-0.7,2.5-0.7
				c0.9,0,1.8,0.2,2.6,0.7s1.4,1,1.8,1.8s0.7,1.6,0.7,2.5s-0.2,1.8-0.7,2.5s-1.1,1.4-1.8,1.8S212.9,22.5,211.9,22.5z M211.9,20.3
				c0.6,0,1-0.1,1.4-0.4s0.8-0.6,1-1s0.4-0.9,0.4-1.5s-0.1-1-0.4-1.5s-0.6-0.8-1-1c-0.4-0.2-0.9-0.4-1.4-0.4c-0.5,0-1,0.1-1.4,0.4
				s-0.8,0.6-1,1s-0.4,0.9-0.4,1.5s0.1,1.1,0.4,1.5s0.6,0.8,1,1S211.4,20.3,211.9,20.3z"/>
			<path d="M217.8,14.6v-2h7.4v2H217.8z M220.1,22.2V11.4c0-0.7,0.2-1.4,0.5-1.9s0.8-1,1.4-1.3c0.6-0.3,1.2-0.5,2-0.5
				c0.6,0,1.1,0.1,1.5,0.3s0.8,0.5,1.2,0.9l-1.4,1.4c-0.2-0.2-0.3-0.3-0.5-0.4s-0.4-0.1-0.7-0.1c-0.5,0-0.9,0.1-1.2,0.4
				s-0.4,0.7-0.4,1.2v10.9H220.1z"/>
			<path d="M235,22.5c-1.1,0-2.1-0.2-2.8-0.6s-1.5-1-2.1-1.8l1.6-1.6c0.4,0.6,0.9,1,1.4,1.3s1.2,0.5,2,0.5c0.8,0,1.4-0.2,1.9-0.5
				s0.7-0.8,0.7-1.3c0-0.5-0.1-0.9-0.4-1.1c-0.2-0.3-0.6-0.5-0.9-0.7c-0.4-0.2-0.8-0.4-1.3-0.5s-0.9-0.3-1.4-0.5s-0.9-0.4-1.3-0.7
				s-0.7-0.7-0.9-1.1c-0.2-0.5-0.4-1.1-0.4-1.8c0-0.8,0.2-1.5,0.6-2.1s1-1,1.6-1.3c0.7-0.3,1.5-0.5,2.3-0.5c0.9,0,1.7,0.2,2.5,0.5
				s1.3,0.8,1.8,1.4l-1.6,1.6c-0.4-0.4-0.8-0.8-1.2-1s-0.9-0.3-1.5-0.3c-0.7,0-1.2,0.1-1.6,0.4s-0.6,0.7-0.6,1.2
				c0,0.4,0.1,0.8,0.4,1c0.2,0.3,0.6,0.5,0.9,0.7s0.8,0.4,1.3,0.5s0.9,0.3,1.4,0.5s0.9,0.5,1.3,0.8s0.7,0.7,0.9,1.2
				c0.2,0.5,0.4,1.1,0.4,1.9c0,1.2-0.4,2.2-1.3,3S236.6,22.5,235,22.5z"/>
			<path d="M241.1,14.6v-2h6.8v2H241.1z M243.4,22.2V8.6h2.2v13.6H243.4z"/>
			<path d="M253.5,22.5c-0.9,0-1.6-0.2-2.4-0.7c-0.7-0.4-1.2-1-1.7-1.8s-0.6-1.6-0.6-2.5c0-1,0.2-1.8,0.6-2.6s1-1.4,1.7-1.8
				s1.5-0.7,2.4-0.7c0.7,0,1.4,0.2,1.9,0.5c0.6,0.3,1,0.7,1.4,1.3c0.3,0.6,0.5,1.2,0.5,1.9v2.8c0,0.7-0.2,1.3-0.5,1.9
				c-0.3,0.5-0.8,1-1.4,1.3S254.3,22.5,253.5,22.5z M253.9,20.4c0.8,0,1.5-0.3,2-0.8s0.8-1.2,0.8-2.1c0-0.6-0.1-1.1-0.3-1.5
				c-0.2-0.4-0.5-0.8-0.9-1s-0.9-0.4-1.4-0.4c-0.5,0-1,0.1-1.4,0.4s-0.7,0.6-1,1c-0.2,0.4-0.4,1-0.4,1.5s0.1,1.1,0.4,1.5
				c0.2,0.4,0.6,0.8,1,1C252.9,20.2,253.4,20.4,253.9,20.4z M256.5,22.2v-2.6l0.4-2.3l-0.4-2.3v-2.4h2.2v9.6H256.5z"/>
			<path d="M260.3,14.6v-2h6.8v2H260.3z M262.6,22.2V8.6h2.2v13.6H262.6z"/>
			<path d="M269.8,10.9c-0.4,0-0.7-0.1-0.9-0.4s-0.4-0.6-0.4-0.9s0.1-0.7,0.4-0.9s0.6-0.4,0.9-0.4c0.4,0,0.7,0.1,0.9,0.4
				s0.4,0.6,0.4,0.9s-0.1,0.7-0.4,0.9S270.2,10.9,269.8,10.9z M268.7,22.2v-9.6h2.2v9.6H268.7z"/>
			<path d="M276.5,22.5c-0.5,0-1-0.1-1.5-0.2c-0.5-0.1-1-0.3-1.4-0.6c-0.4-0.3-0.8-0.6-1.1-1l1.4-1.4c0.3,0.4,0.7,0.7,1.1,0.9
				s0.9,0.3,1.5,0.3c0.5,0,0.9-0.1,1.1-0.2s0.4-0.4,0.4-0.6c0-0.3-0.1-0.5-0.4-0.7s-0.5-0.3-0.9-0.4s-0.8-0.2-1.2-0.4
				s-0.8-0.3-1.2-0.5s-0.7-0.5-0.9-0.9s-0.4-0.8-0.4-1.4c0-0.6,0.1-1.1,0.4-1.6c0.3-0.4,0.7-0.8,1.2-1c0.5-0.2,1.2-0.4,1.9-0.4
				c0.8,0,1.5,0.1,2,0.4c0.6,0.3,1.1,0.7,1.5,1.2l-1.4,1.4c-0.3-0.4-0.6-0.6-1-0.8s-0.8-0.3-1.2-0.3c-0.4,0-0.8,0.1-1,0.2
				s-0.4,0.3-0.4,0.6c0,0.3,0.1,0.5,0.4,0.6c0.2,0.2,0.5,0.3,0.9,0.4s0.8,0.2,1.2,0.4c0.4,0.1,0.8,0.3,1.2,0.5
				c0.4,0.2,0.7,0.5,0.9,0.9c0.2,0.4,0.4,0.8,0.4,1.4c0,0.9-0.3,1.7-1,2.2C278.5,22.2,277.6,22.5,276.5,22.5z"/>
			<path d="M281.1,14.6v-2h6.8v2H281.1z M283.4,22.2V8.6h2.2v13.6H283.4z"/>
			<path d="M290.6,10.9c-0.4,0-0.7-0.1-0.9-0.4s-0.4-0.6-0.4-0.9s0.1-0.7,0.4-0.9s0.6-0.4,0.9-0.4c0.4,0,0.7,0.1,0.9,0.4
				s0.4,0.6,0.4,0.9s-0.1,0.7-0.4,0.9S291,10.9,290.6,10.9z M289.5,22.2v-9.6h2.2v9.6H289.5z"/>
			<path d="M298.6,22.5c-1,0-1.8-0.2-2.6-0.7c-0.8-0.4-1.4-1-1.8-1.8c-0.4-0.8-0.7-1.6-0.7-2.5c0-1,0.2-1.8,0.7-2.6s1-1.4,1.8-1.8
				s1.6-0.7,2.6-0.7c0.8,0,1.4,0.1,2.1,0.4s1.2,0.7,1.6,1.2l-1.4,1.5c-0.3-0.3-0.6-0.6-1-0.8s-0.8-0.2-1.3-0.2c-0.5,0-1,0.1-1.5,0.4
				s-0.8,0.6-1,1s-0.4,0.9-0.4,1.5c0,0.6,0.1,1.1,0.4,1.5s0.6,0.8,1,1s0.9,0.4,1.5,0.4c0.5,0,0.9-0.1,1.3-0.2s0.7-0.4,1-0.8l1.4,1.5
				c-0.5,0.5-1,0.9-1.6,1.2S299.4,22.5,298.6,22.5z"/>
			<path d="M307.1,22.5c-0.5,0-1-0.1-1.5-0.2c-0.5-0.1-1-0.3-1.4-0.6c-0.4-0.3-0.8-0.6-1.1-1l1.4-1.4c0.3,0.4,0.7,0.7,1.1,0.9
				s0.9,0.3,1.5,0.3c0.5,0,0.9-0.1,1.1-0.2s0.4-0.4,0.4-0.6c0-0.3-0.1-0.5-0.4-0.7s-0.5-0.3-0.9-0.4s-0.8-0.2-1.2-0.4
				s-0.8-0.3-1.2-0.5s-0.7-0.5-0.9-0.9s-0.4-0.8-0.4-1.4c0-0.6,0.1-1.1,0.4-1.6c0.3-0.4,0.7-0.8,1.2-1c0.5-0.2,1.2-0.4,1.9-0.4
				c0.8,0,1.5,0.1,2,0.4c0.6,0.3,1.1,0.7,1.5,1.2l-1.4,1.4c-0.3-0.4-0.6-0.6-1-0.8s-0.8-0.3-1.2-0.3c-0.4,0-0.8,0.1-1,0.2
				s-0.4,0.3-0.4,0.6c0,0.3,0.1,0.5,0.4,0.6c0.2,0.2,0.5,0.3,0.9,0.4s0.8,0.2,1.2,0.4c0.4,0.1,0.8,0.3,1.2,0.5
				c0.4,0.2,0.7,0.5,0.9,0.9c0.2,0.4,0.4,0.8,0.4,1.4c0,0.9-0.3,1.7-1,2.2C309.1,22.2,308.2,22.5,307.1,22.5z"/>
		</g>
	</g>
</g>
<g>
	<g>
		<path d="M57.1,40.2V28h0.7l5.4,8.9h-0.5l5.4-8.9h0.7v12.3h-1V29.6l0.2,0.1l-4.7,7.8h-0.7l-4.7-7.8l0.2-0.1v10.6H57.1z"/>
		<path d="M72.3,29.9c-0.2,0-0.4-0.1-0.5-0.2c-0.1-0.1-0.2-0.3-0.2-0.5s0.1-0.4,0.2-0.5c0.1-0.1,0.3-0.2,0.5-0.2
			c0.2,0,0.4,0.1,0.5,0.2c0.1,0.1,0.2,0.3,0.2,0.5s-0.1,0.4-0.2,0.5C72.7,29.8,72.5,29.9,72.3,29.9z M71.8,40.2v-8.4h0.9v8.4H71.8z"
			/>
		<path d="M75.5,40.2v-8.4h0.9v8.4H75.5z M81.7,40.2v-5c0-0.8-0.2-1.5-0.7-2c-0.5-0.5-1.1-0.8-1.9-0.8c-0.5,0-1,0.1-1.4,0.4
			c-0.4,0.2-0.7,0.6-1,1c-0.2,0.4-0.4,0.9-0.4,1.4L75.9,35c0-0.6,0.2-1.2,0.5-1.7s0.7-0.9,1.2-1.2c0.5-0.3,1.1-0.4,1.8-0.4
			c0.7,0,1.2,0.2,1.7,0.5s0.9,0.7,1.2,1.3c0.3,0.5,0.4,1.1,0.4,1.8v5.1H81.7z"/>
		<path d="M85.7,29.9c-0.2,0-0.4-0.1-0.5-0.2c-0.1-0.1-0.2-0.3-0.2-0.5s0.1-0.4,0.2-0.5c0.1-0.1,0.3-0.2,0.5-0.2
			c0.2,0,0.4,0.1,0.5,0.2c0.1,0.1,0.2,0.3,0.2,0.5s-0.1,0.4-0.2,0.5C86,29.8,85.9,29.9,85.7,29.9z M85.2,40.2v-8.4h0.9v8.4H85.2z"/>
		<path d="M91.4,40.4c-0.5,0-0.9-0.1-1.3-0.2s-0.8-0.3-1.1-0.5c-0.3-0.2-0.6-0.5-0.9-0.8l0.6-0.6c0.3,0.4,0.7,0.8,1.2,1
			s0.9,0.3,1.5,0.3c0.6,0,1.1-0.1,1.5-0.4c0.4-0.3,0.5-0.6,0.5-1.1c0-0.4-0.1-0.7-0.3-1c-0.2-0.2-0.5-0.4-0.9-0.5
			c-0.4-0.1-0.8-0.3-1.2-0.4s-0.8-0.3-1.2-0.4s-0.7-0.4-0.9-0.7c-0.2-0.3-0.3-0.7-0.3-1.2c0-0.4,0.1-0.8,0.3-1.2
			c0.2-0.3,0.5-0.6,1-0.8c0.4-0.2,0.9-0.3,1.5-0.3c0.6,0,1.2,0.1,1.7,0.3c0.5,0.2,0.9,0.5,1.2,1l-0.6,0.6c-0.3-0.3-0.6-0.6-1-0.8
			c-0.4-0.2-0.9-0.3-1.4-0.3c-0.6,0-1.1,0.1-1.4,0.4c-0.3,0.3-0.5,0.6-0.5,1c0,0.4,0.1,0.7,0.3,0.9c0.2,0.2,0.5,0.4,0.9,0.5
			c0.4,0.1,0.7,0.2,1.2,0.4s0.8,0.3,1.2,0.4c0.4,0.2,0.7,0.4,0.9,0.7c0.2,0.3,0.3,0.7,0.3,1.3c0,0.7-0.3,1.3-0.8,1.7
			C92.9,40.2,92.2,40.4,91.4,40.4z"/>
		<path d="M95.6,32.7v-0.8h5.2v0.8H95.6z M97.7,40.2V28.3h0.9v11.9H97.7z"/>
		<path d="M102.7,40.2v-8.4h0.9v8.4H102.7z M103.6,35.2l-0.4-0.2c0-1.1,0.3-1.9,0.8-2.5c0.5-0.6,1.2-0.9,2.1-0.9
			c0.4,0,0.8,0.1,1.1,0.2c0.4,0.1,0.7,0.4,1,0.7l-0.6,0.6c-0.2-0.3-0.5-0.4-0.7-0.5c-0.3-0.1-0.6-0.2-0.9-0.2
			c-0.7,0-1.2,0.2-1.7,0.7C103.8,33.7,103.6,34.4,103.6,35.2z"/>
		<path d="M112.9,40.3l-3.7-8.4h1l3.2,7.4h-0.5l3.4-7.4h1l-3.9,8.4H112.9z M110.7,43.8l2.1-4.4l0.5,0.9l-1.7,3.5H110.7z"/>
		<path d="M126.9,40.4c-0.8,0-1.5-0.2-2.2-0.6c-0.7-0.4-1.2-0.9-1.6-1.6c-0.4-0.7-0.6-1.4-0.6-2.2c0-0.8,0.2-1.6,0.6-2.2
			c0.4-0.7,0.9-1.2,1.6-1.6c0.7-0.4,1.4-0.6,2.2-0.6c0.8,0,1.6,0.2,2.2,0.6s1.2,0.9,1.6,1.6c0.4,0.7,0.6,1.4,0.6,2.2
			c0,0.8-0.2,1.6-0.6,2.2c-0.4,0.7-0.9,1.2-1.6,1.6C128.4,40.2,127.7,40.4,126.9,40.4z M126.9,39.6c0.6,0,1.2-0.2,1.7-0.5
			c0.5-0.3,0.9-0.7,1.2-1.3c0.3-0.5,0.4-1.1,0.4-1.8c0-0.7-0.1-1.2-0.4-1.8c-0.3-0.5-0.7-0.9-1.2-1.2c-0.5-0.3-1.1-0.5-1.7-0.5
			c-0.6,0-1.2,0.2-1.7,0.5c-0.5,0.3-0.9,0.7-1.2,1.2c-0.3,0.5-0.5,1.1-0.5,1.8s0.1,1.3,0.5,1.8c0.3,0.5,0.7,0.9,1.2,1.3
			C125.7,39.4,126.2,39.6,126.9,39.6z"/>
		<path d="M132.5,32.7v-0.8h6v0.8H132.5z M134.6,40.2v-10c0-0.6,0.1-1,0.4-1.5c0.2-0.4,0.6-0.8,1-1s0.9-0.4,1.5-0.4
			c0.4,0,0.8,0.1,1.1,0.2c0.3,0.1,0.6,0.4,0.9,0.6l-0.6,0.6c-0.2-0.2-0.4-0.4-0.7-0.5c-0.2-0.1-0.5-0.1-0.8-0.1
			c-0.6,0-1.1,0.2-1.4,0.5s-0.5,0.9-0.5,1.5v9.9H134.6z"/>
		<path d="M144.7,40.2V28h1v12.3H144.7z M145.3,28.8V28h7v0.9H145.3z M145.3,34.5v-0.9h6.7v0.9H145.3z"/>
		<path d="M155.1,29.9c-0.2,0-0.4-0.1-0.5-0.2c-0.1-0.1-0.2-0.3-0.2-0.5s0.1-0.4,0.2-0.5c0.1-0.1,0.3-0.2,0.5-0.2
			c0.2,0,0.4,0.1,0.5,0.2c0.1,0.1,0.2,0.3,0.2,0.5s-0.1,0.4-0.2,0.5C155.4,29.8,155.3,29.9,155.1,29.9z M154.6,40.2v-8.4h0.9v8.4
			H154.6z"/>
		<path d="M158.2,40.2v-8.4h0.9v8.4H158.2z M164.5,40.2v-5c0-0.8-0.2-1.5-0.7-2c-0.5-0.5-1.1-0.8-1.9-0.8c-0.5,0-1,0.1-1.4,0.4
			c-0.4,0.2-0.7,0.6-1,1c-0.2,0.4-0.4,0.9-0.4,1.4l-0.5-0.3c0-0.6,0.2-1.2,0.5-1.7s0.7-0.9,1.2-1.2c0.5-0.3,1.1-0.4,1.8-0.4
			c0.7,0,1.2,0.2,1.7,0.5s0.9,0.7,1.2,1.3c0.3,0.5,0.4,1.1,0.4,1.8v5.1H164.5z"/>
		<path d="M171.7,40.4c-0.8,0-1.5-0.2-2.2-0.6s-1.1-0.9-1.5-1.6c-0.4-0.7-0.6-1.4-0.6-2.2c0-0.8,0.2-1.6,0.6-2.2s0.9-1.2,1.5-1.6
			c0.6-0.4,1.4-0.6,2.1-0.6c0.6,0,1.2,0.1,1.7,0.4s0.9,0.6,1.3,1c0.3,0.4,0.5,1,0.6,1.6v2.7c-0.1,0.6-0.3,1.1-0.7,1.6
			c-0.3,0.4-0.7,0.8-1.3,1C172.9,40.3,172.3,40.4,171.7,40.4z M171.8,39.6c1,0,1.7-0.3,2.3-1c0.6-0.6,0.9-1.5,0.9-2.5
			c0-0.7-0.1-1.3-0.4-1.8c-0.3-0.5-0.6-0.9-1.1-1.2c-0.5-0.3-1-0.4-1.7-0.4c-0.7,0-1.2,0.2-1.8,0.5c-0.5,0.3-0.9,0.7-1.2,1.2
			c-0.3,0.5-0.4,1.1-0.4,1.8c0,0.7,0.1,1.3,0.4,1.8c0.3,0.5,0.7,0.9,1.2,1.2S171.1,39.6,171.8,39.6z M174.9,40.2V38l0.2-2.1l-0.2-2
			v-2h0.9v8.4H174.9z"/>
		<path d="M178.5,40.2v-8.4h0.9v8.4H178.5z M184.8,40.2v-5c0-0.8-0.2-1.5-0.7-2c-0.5-0.5-1.1-0.8-1.9-0.8c-0.5,0-1,0.1-1.4,0.4
			c-0.4,0.2-0.7,0.6-1,1c-0.2,0.4-0.4,0.9-0.4,1.4L179,35c0-0.6,0.2-1.2,0.5-1.7s0.7-0.9,1.2-1.2c0.5-0.3,1.1-0.4,1.8-0.4
			c0.7,0,1.2,0.2,1.7,0.5s0.9,0.7,1.2,1.3c0.3,0.5,0.4,1.1,0.4,1.8v5.1H184.8z"/>
		<path d="M192.1,40.4c-0.8,0-1.6-0.2-2.2-0.6c-0.7-0.4-1.2-0.9-1.6-1.6c-0.4-0.7-0.6-1.4-0.6-2.2c0-0.8,0.2-1.6,0.6-2.2
			c0.4-0.7,0.9-1.2,1.6-1.6c0.7-0.4,1.4-0.6,2.2-0.6c0.6,0,1.2,0.1,1.7,0.3c0.5,0.2,1,0.6,1.4,1l-0.6,0.6c-0.3-0.3-0.7-0.6-1.1-0.8
			c-0.4-0.2-0.9-0.3-1.4-0.3c-0.6,0-1.2,0.2-1.7,0.5c-0.5,0.3-0.9,0.7-1.2,1.2c-0.3,0.5-0.5,1.1-0.5,1.8s0.1,1.3,0.5,1.8
			c0.3,0.5,0.7,0.9,1.2,1.3c0.5,0.3,1.1,0.5,1.7,0.5c0.5,0,1-0.1,1.4-0.3c0.4-0.2,0.8-0.5,1.1-0.8l0.6,0.6c-0.4,0.4-0.9,0.7-1.4,1
			C193.3,40.3,192.7,40.4,192.1,40.4z"/>
		<path d="M201,40.4c-0.8,0-1.6-0.2-2.2-0.6c-0.7-0.4-1.2-0.9-1.6-1.6c-0.4-0.7-0.6-1.4-0.6-2.2c0-0.8,0.2-1.6,0.6-2.2
			c0.4-0.7,0.9-1.2,1.5-1.6c0.7-0.4,1.4-0.6,2.2-0.6c0.8,0,1.4,0.2,2,0.5c0.6,0.3,1,0.8,1.4,1.4c0.3,0.6,0.5,1.3,0.5,2.1
			c0,0.1,0,0.2,0,0.3s0,0.2-0.1,0.4h-7.5v-0.8h6.9l-0.3,0.3c0-0.7-0.1-1.2-0.3-1.7s-0.6-0.9-1-1.2c-0.5-0.3-1-0.4-1.6-0.4
			c-0.7,0-1.2,0.1-1.7,0.4s-0.9,0.7-1.2,1.2c-0.3,0.5-0.4,1.1-0.4,1.8c0,0.7,0.1,1.3,0.4,1.9c0.3,0.5,0.7,0.9,1.2,1.2
			c0.5,0.3,1.1,0.4,1.9,0.4c0.5,0,1-0.1,1.5-0.3c0.5-0.2,0.8-0.5,1.2-0.9l0.6,0.6c-0.4,0.5-0.9,0.8-1.5,1.1S201.7,40.4,201,40.4z"/>
		<path d="M214.7,40.4c-0.8,0-1.4-0.2-2-0.5c-0.6-0.3-1-0.7-1.4-1.3s-0.5-1.2-0.5-1.9c0-0.8,0.2-1.5,0.6-2.1c0.4-0.6,1-1.1,1.7-1.5
			l0.5,0.6c-0.6,0.3-1,0.7-1.3,1.2c-0.3,0.5-0.5,1.1-0.5,1.8c0,0.5,0.1,1,0.4,1.4c0.3,0.4,0.6,0.7,1.1,1c0.5,0.2,1,0.4,1.5,0.4
			c0.6,0,1.2-0.1,1.8-0.4c0.5-0.3,0.9-0.7,1.2-1.2l0.6,0.7c-0.2,0.4-0.5,0.7-0.9,1c-0.4,0.3-0.8,0.5-1.3,0.6
			C215.7,40.3,215.2,40.4,214.7,40.4z M219.5,40.2l-6-6.2c-0.5-0.5-0.9-1-1.1-1.5c-0.2-0.5-0.4-1-0.4-1.6c0-0.6,0.1-1.2,0.4-1.7
			c0.3-0.5,0.7-0.9,1.2-1.1c0.5-0.3,1.1-0.4,1.7-0.4c0.5,0,0.9,0.1,1.3,0.2s0.7,0.3,1,0.5c0.3,0.2,0.6,0.5,0.8,0.9l-0.7,0.6
			c-0.3-0.4-0.6-0.8-1-1c-0.4-0.2-0.8-0.3-1.3-0.3c-0.7,0-1.3,0.2-1.7,0.6c-0.4,0.4-0.7,1-0.7,1.7c0,0.5,0.1,0.9,0.3,1.3
			c0.2,0.4,0.5,0.8,1,1.3l6.4,6.6H219.5z"/>
		<path d="M226.7,40.2V28h1v12.3H226.7z M227.2,35.2v-0.8h3.9c0.6,0,1.1-0.1,1.5-0.3c0.4-0.2,0.8-0.5,1-1s0.4-0.9,0.4-1.5
			c0-0.6-0.1-1.1-0.4-1.5s-0.6-0.7-1-1c-0.4-0.2-0.9-0.3-1.5-0.3h-3.9V28h4c0.7,0,1.4,0.1,1.9,0.4c0.6,0.3,1,0.7,1.3,1.3
			s0.5,1.2,0.5,1.9c0,0.7-0.2,1.4-0.5,1.9s-0.8,1-1.3,1.3c-0.6,0.3-1.2,0.4-1.9,0.4H227.2z"/>
		<path d="M237.3,40.2V27.6h0.9v12.6H237.3z"/>
		<path d="M244.6,40.4c-0.8,0-1.5-0.2-2.2-0.6s-1.1-0.9-1.5-1.6c-0.4-0.7-0.6-1.4-0.6-2.2c0-0.8,0.2-1.6,0.6-2.2s0.9-1.2,1.5-1.6
			c0.6-0.4,1.4-0.6,2.1-0.6c0.6,0,1.2,0.1,1.7,0.4s0.9,0.6,1.3,1c0.3,0.4,0.5,1,0.6,1.6v2.7c-0.1,0.6-0.3,1.1-0.7,1.6
			c-0.3,0.4-0.7,0.8-1.3,1C245.8,40.3,245.3,40.4,244.6,40.4z M244.8,39.6c1,0,1.7-0.3,2.3-1c0.6-0.6,0.9-1.5,0.9-2.5
			c0-0.7-0.1-1.3-0.4-1.8c-0.3-0.5-0.6-0.9-1.1-1.2c-0.5-0.3-1-0.4-1.7-0.4c-0.7,0-1.2,0.2-1.8,0.5c-0.5,0.3-0.9,0.7-1.2,1.2
			c-0.3,0.5-0.4,1.1-0.4,1.8c0,0.7,0.1,1.3,0.4,1.8c0.3,0.5,0.7,0.9,1.2,1.2S244.1,39.6,244.8,39.6z M247.9,40.2V38l0.2-2.1l-0.2-2
			v-2h0.9v8.4H247.9z"/>
		<path d="M251.5,40.2v-8.4h0.9v8.4H251.5z M257.8,40.2v-5c0-0.8-0.2-1.5-0.7-2c-0.5-0.5-1.1-0.8-1.9-0.8c-0.5,0-1,0.1-1.4,0.4
			c-0.4,0.2-0.7,0.6-1,1c-0.2,0.4-0.4,0.9-0.4,1.4l-0.5-0.3c0-0.6,0.2-1.2,0.5-1.7s0.7-0.9,1.2-1.2c0.5-0.3,1.1-0.4,1.8-0.4
			c0.7,0,1.2,0.2,1.7,0.5s0.9,0.7,1.2,1.3c0.3,0.5,0.4,1.1,0.4,1.8v5.1H257.8z"/>
		<path d="M261.2,40.2v-8.4h0.9v8.4H261.2z M267.5,40.2v-5c0-0.8-0.2-1.5-0.7-2c-0.5-0.5-1.1-0.8-1.9-0.8c-0.5,0-1,0.1-1.4,0.4
			c-0.4,0.2-0.7,0.6-1,1c-0.2,0.4-0.4,0.9-0.4,1.4l-0.5-0.3c0-0.6,0.2-1.2,0.5-1.7s0.7-0.9,1.2-1.2c0.5-0.3,1.1-0.4,1.8-0.4
			c0.7,0,1.2,0.2,1.7,0.5s0.9,0.7,1.2,1.3c0.3,0.5,0.4,1.1,0.4,1.8v5.1H267.5z"/>
		<path d="M271.4,29.9c-0.2,0-0.4-0.1-0.5-0.2c-0.1-0.1-0.2-0.3-0.2-0.5s0.1-0.4,0.2-0.5c0.1-0.1,0.3-0.2,0.5-0.2
			c0.2,0,0.4,0.1,0.5,0.2c0.1,0.1,0.2,0.3,0.2,0.5s-0.1,0.4-0.2,0.5C271.8,29.8,271.6,29.9,271.4,29.9z M271,40.2v-8.4h0.9v8.4H271z
			"/>
		<path d="M274.6,40.2v-8.4h0.9v8.4H274.6z M280.9,40.2v-5c0-0.8-0.2-1.5-0.7-2c-0.5-0.5-1.1-0.8-1.9-0.8c-0.5,0-1,0.1-1.4,0.4
			c-0.4,0.2-0.7,0.6-1,1c-0.2,0.4-0.4,0.9-0.4,1.4l-0.5-0.3c0-0.6,0.2-1.2,0.5-1.7s0.7-0.9,1.2-1.2c0.5-0.3,1.1-0.4,1.8-0.4
			c0.7,0,1.2,0.2,1.7,0.5s0.9,0.7,1.2,1.3c0.3,0.5,0.4,1.1,0.4,1.8v5.1H280.9z"/>
		<path d="M288,40.2c-0.8,0-1.5-0.2-2.1-0.5c-0.6-0.4-1.1-0.9-1.5-1.5c-0.4-0.6-0.5-1.4-0.5-2.2c0-0.8,0.2-1.5,0.5-2.2
			c0.4-0.6,0.8-1.1,1.5-1.5c0.6-0.4,1.3-0.6,2.1-0.6c0.6,0,1.2,0.1,1.8,0.4c0.5,0.2,1,0.6,1.3,1c0.3,0.4,0.6,1,0.7,1.6v2.5
			c-0.1,0.6-0.3,1.1-0.7,1.6c-0.3,0.5-0.8,0.8-1.3,1C289.2,40.1,288.6,40.2,288,40.2z M287.8,44c-0.8,0-1.6-0.2-2.2-0.5
			c-0.7-0.3-1.2-0.7-1.6-1.3l0.6-0.6c0.3,0.5,0.8,0.8,1.3,1.1c0.6,0.3,1.2,0.4,1.9,0.4c1.1,0,1.9-0.3,2.5-0.9s0.9-1.3,0.9-2.3v-2.1
			l0.2-1.9l-0.2-1.9v-2.1h0.9v8c0,0.8-0.2,1.5-0.5,2.1c-0.4,0.6-0.9,1.1-1.5,1.4C289.5,43.8,288.7,44,287.8,44z M288.1,39.3
			c0.6,0,1.2-0.1,1.7-0.4c0.5-0.3,0.9-0.7,1.1-1.2c0.3-0.5,0.4-1.1,0.4-1.8c0-0.7-0.1-1.3-0.4-1.8c-0.3-0.5-0.6-0.9-1.1-1.2
			s-1-0.4-1.7-0.4c-0.6,0-1.2,0.1-1.7,0.4s-0.9,0.7-1.2,1.2s-0.4,1.1-0.4,1.7s0.1,1.2,0.4,1.8s0.7,0.9,1.2,1.2
			C286.9,39.2,287.5,39.3,288.1,39.3z"/>
	</g>
</g>
</svg>
